<svg version="1.1" viewBox="0.0 0.0 600.0 371.0" fill="none" stroke="none" stroke-linecap="square" stroke-miterlimit="10" width="600" height="371" xmlns:xlink="http://www.w3.org/1999/xlink" xmlns="http://www.w3.org/2000/svg"><path d="M0 0L600.0 0L600.0 371.0L0 371.0L0 0Z" fill-rule="nonzero"/><path stroke="#cccccc" stroke-width="1.0" stroke-linecap="butt" d="M149.5 51.5L149.5 300.5" fill-rule="nonzero"/><path stroke="#cccccc" stroke-width="1.0" stroke-linecap="butt" d="M269.5 51.5L269.5 300.5" fill-rule="nonzero"/><path stroke="#cccccc" stroke-width="1.0" stroke-linecap="butt" d="M389.5 51.5L389.5 300.5" fill-rule="nonzero"/><path stroke="#cccccc" stroke-width="1.0" stroke-linecap="butt" d="M509.5 51.5L509.5 300.5" fill-rule="nonzero"/><path stroke="#333333" stroke-width="1.0" stroke-linecap="butt" d="M77.5 300.5L581.5 300.5" fill-rule="nonzero"/><path stroke="#cccccc" stroke-width="1.0" stroke-linecap="butt" d="M77.5 250.5L581.5 250.5" fill-rule="nonzero"/><path stroke="#cccccc" stroke-width="1.0" stroke-linecap="butt" d="M77.5 201.5L581.5 201.5" fill-rule="nonzero"/><path stroke="#cccccc" stroke-width="1.0" stroke-linecap="butt" d="M77.5 151.5L581.5 151.5" fill-rule="nonzero"/><path stroke="#cccccc" stroke-width="1.0" stroke-linecap="butt" d="M77.5 101.5L581.5 101.5" fill-rule="nonzero"/><path stroke="#cccccc" stroke-width="1.0" stroke-linecap="butt" d="M77.5 51.5L581.5 51.5" fill-rule="nonzero"/><clipPath id="id_0"><path d="M77.55 51.916668L581.45 51.916668L581.45 300.45L77.55 300.45L77.55 51.916668Z" clip-rule="nonzero"/></clipPath><path stroke="#4285f4" stroke-width="2.0" stroke-linecap="butt" clip-path="url(#id_0)" d="M77.55 94.310356C77.55 94.310356 93.54682 103.16616 101.545235 113.37567C109.54365 123.58519 117.54206 146.44545 125.540474 155.56743C133.5389 164.6894 141.53731 165.58717 149.53572 168.10757C157.53413 170.62796 165.53255 168.33733 173.53094 170.6898C181.52936 173.04228 189.52777 184.68408 197.52618 182.22243C205.5246 179.76077 213.52301 160.19215 221.52142 155.91988C229.51984 151.6476 237.51825 156.45558 245.51666 156.58879C253.51508 156.72198 261.5135 154.97511 269.5119 156.71909C277.5103 158.46306 285.50873 158.67416 293.50714 167.05261C301.50555 175.43108 309.50397 203.52835 317.50238 206.98982C325.5008 210.45128 333.4992 188.93248 341.49762 187.82143C349.49603 186.71036 357.49445 196.48889 365.49286 200.32349C373.49127 204.15808 381.4897 209.70229 389.4881 210.82896C397.4865 211.95564 405.48492 208.28503 413.48334 207.08356C421.48175 205.88208 429.48016 202.09268 437.47858 203.6201C445.477 205.14752 453.4754 217.5693 461.47382 216.24808C469.47223 214.92686 477.47064 194.97995 485.46906 195.69281C493.46747 196.40567 501.46588 216.27484 509.4643 220.52528C517.4627 224.77571 525.4611 219.4835 533.45953 221.19543C541.45795 222.90735 549.45636 229.87271 557.4548 230.79681C565.4532 231.72092 581.45 226.74004 581.45 226.74004" fill-rule="nonzero"/><path stroke="#ea4335" stroke-width="2.0" stroke-linecap="butt" clip-path="url(#id_0)" d="M77.55 113.71564C77.55 113.71564 93.54682 110.97507 101.545235 116.95772C109.54365 122.94037 117.54206 144.59787 125.540474 149.61156C133.5389 154.62524 141.53731 145.38417 149.53572 147.03983C157.53413 148.69548 165.53255 159.4732 173.53094 159.54544C181.52936 159.61769 189.52777 150.14551 197.52618 147.47327C205.5246 144.80103 213.52301 144.39317 221.52142 143.51198C229.51984 142.63078 237.51825 141.43819 245.51666 142.18613C253.51508 142.93408 261.5135 144.8239 269.5119 147.99966C277.5103 151.17543 285.50873 158.50217 293.50714 161.24074C301.50555 163.97932 309.50397 166.02916 317.50238 164.43114C325.5008 162.83311 333.4992 154.37125 341.49762 151.65262C349.49603 148.93399 357.49445 148.80136 365.49286 148.11932C373.49127 147.43729 381.4897 146.48238 389.4881 147.56042C397.4865 148.63846 405.48492 154.60953 413.48334 154.58757C421.48175 154.56563 429.48016 148.54518 437.47858 147.42873C445.477 146.31227 453.4754 146.81345 461.47382 147.88887C469.47223 148.9643 477.47064 150.15442 485.46906 153.88132C493.46747 157.60822 501.46588 168.75465 509.4643 170.25027C517.4627 171.74588 525.4611 165.7486 533.45953 162.85498C541.45795 159.96136 549.45636 154.402 557.4548 152.88855C565.4532 151.37509 581.45 153.77428 581.45 153.77428" fill-rule="nonzero"/><path fill="#000000" fill-opacity="0.0" clip-path="url(#id_0)" d="M80.55 94.310356C80.55 95.96721 79.206856 97.310356 77.55 97.310356C75.89314 97.310356 74.55 95.96721 74.55 94.310356C74.55 92.6535 75.89314 91.310356 77.55 91.310356C79.206856 91.310356 80.55 92.6535 80.55 94.310356Z" fill-rule="nonzero"/><path fill="#000000" fill-opacity="0.0" clip-path="url(#id_0)" d="M104.545235 113.37567C104.545235 115.03253 103.202095 116.37567 101.545235 116.37567C99.88838 116.37567 98.545235 115.03253 98.545235 113.37567C98.545235 111.71882 99.88838 110.37567 101.545235 110.37567C103.202095 110.37567 104.545235 111.71882 104.545235 113.37567Z" fill-rule="nonzero"/><path fill="#000000" fill-opacity="0.0" clip-path="url(#id_0)" d="M128.54048 155.56743C128.54048 157.22429 127.19733 158.56743 125.540474 158.56743C123.88362 158.56743 122.540474 157.22429 122.540474 155.56743C122.540474 153.91058 123.88362 152.56743 125.540474 152.56743C127.19733 152.56743 128.54048 153.91058 128.54048 155.56743Z" fill-rule="nonzero"/><path fill="#000000" fill-opacity="0.0" clip-path="url(#id_0)" d="M152.53572 168.10757C152.53572 169.76442 151.19257 171.10757 149.53572 171.10757C147.87886 171.10757 146.53572 169.76442 146.53572 168.10757C146.53572 166.45071 147.87886 165.10757 149.53572 165.10757C151.19257 165.10757 152.53572 166.45071 152.53572 168.10757Z" fill-rule="nonzero"/><path fill="#000000" fill-opacity="0.0" clip-path="url(#id_0)" d="M176.53094 170.6898C176.53094 172.34665 175.1878 173.6898 173.53094 173.6898C171.8741 173.6898 170.53094 172.34665 170.53094 170.6898C170.53094 169.03294 171.8741 167.6898 173.53094 167.6898C175.1878 167.6898 176.53094 169.03294 176.53094 170.6898Z" fill-rule="nonzero"/><path fill="#000000" fill-opacity="0.0" clip-path="url(#id_0)" d="M200.52618 182.22243C200.52618 183.87927 199.18304 185.22243 197.52618 185.22243C195.86934 185.22243 194.52618 183.87927 194.52618 182.22243C194.52618 180.56557 195.86934 179.22243 197.52618 179.22243C199.18304 179.22243 200.52618 180.56557 200.52618 182.22243Z" fill-rule="nonzero"/><path fill="#000000" fill-opacity="0.0" clip-path="url(#id_0)" d="M224.52142 155.91988C224.52142 157.57674 223.17828 158.91988 221.52142 158.91988C219.86458 158.91988 218.52142 157.57674 218.52142 155.91988C218.52142 154.26302 219.86458 152.91988 221.52142 152.91988C223.17828 152.91988 224.52142 154.26302 224.52142 155.91988Z" fill-rule="nonzero"/><path fill="#000000" fill-opacity="0.0" clip-path="url(#id_0)" d="M248.51666 156.58879C248.51666 158.24564 247.17352 159.58879 245.51666 159.58879C243.85982 159.58879 242.51666 158.24564 242.51666 156.58879C242.51666 154.93193 243.85982 153.58879 245.51666 153.58879C247.17352 153.58879 248.51666 154.93193 248.51666 156.58879Z" fill-rule="nonzero"/><path fill="#000000" fill-opacity="0.0" clip-path="url(#id_0)" d="M272.5119 156.71909C272.5119 158.37593 271.16876 159.71909 269.5119 159.71909C267.85504 159.71909 266.5119 158.37593 266.5119 156.71909C266.5119 155.06223 267.85504 153.71909 269.5119 153.71909C271.16876 153.71909 272.5119 155.06223 272.5119 156.71909Z" fill-rule="nonzero"/><path fill="#000000" fill-opacity="0.0" clip-path="url(#id_0)" d="M296.50714 167.05261C296.50714 168.70947 295.164 170.05261 293.50714 170.05261C291.85028 170.05261 290.50714 168.70947 290.50714 167.05261C290.50714 165.39577 291.85028 164.05261 293.50714 164.05261C295.164 164.05261 296.50714 165.39577 296.50714 167.05261Z" fill-rule="nonzero"/><path fill="#000000" fill-opacity="0.0" clip-path="url(#id_0)" d="M320.50238 206.98982C320.50238 208.64667 319.15924 209.98982 317.50238 209.98982C315.84552 209.98982 314.50238 208.64667 314.50238 206.98982C314.50238 205.33296 315.84552 203.98982 317.50238 203.98982C319.15924 203.98982 320.50238 205.33296 320.50238 206.98982Z" fill-rule="nonzero"/><path fill="#000000" fill-opacity="0.0" clip-path="url(#id_0)" d="M344.49762 187.82143C344.49762 189.47827 343.15448 190.82143 341.49762 190.82143C339.84076 190.82143 338.49762 189.47827 338.49762 187.82143C338.49762 186.16457 339.84076 184.82143 341.49762 184.82143C343.15448 184.82143 344.49762 186.16457 344.49762 187.82143Z" fill-rule="nonzero"/><path fill="#000000" fill-opacity="0.0" clip-path="url(#id_0)" d="M368.49286 200.32349C368.49286 201.98035 367.14972 203.32349 365.49286 203.32349C363.836 203.32349 362.49286 201.98035 362.49286 200.32349C362.49286 198.66663 363.836 197.32349 365.49286 197.32349C367.14972 197.32349 368.49286 198.66663 368.49286 200.32349Z" fill-rule="nonzero"/><path fill="#000000" fill-opacity="0.0" clip-path="url(#id_0)" d="M392.4881 210.82896C392.4881 212.48582 391.14496 213.82896 389.4881 213.82896C387.83124 213.82896 386.4881 212.48582 386.4881 210.82896C386.4881 209.17212 387.83124 207.82896 389.4881 207.82896C391.14496 207.82896 392.4881 209.17212 392.4881 210.82896Z" fill-rule="nonzero"/><path fill="#000000" fill-opacity="0.0" clip-path="url(#id_0)" d="M416.48334 207.08356C416.48334 208.74042 415.1402 210.08356 413.48334 210.08356C411.82648 210.08356 410.48334 208.74042 410.48334 207.08356C410.48334 205.42671 411.82648 204.08356 413.48334 204.08356C415.1402 204.08356 416.48334 205.42671 416.48334 207.08356Z" fill-rule="nonzero"/><path fill="#000000" fill-opacity="0.0" clip-path="url(#id_0)" d="M440.47858 203.6201C440.47858 205.27696 439.13544 206.6201 437.47858 206.6201C435.82172 206.6201 434.47858 205.27696 434.47858 203.6201C434.47858 201.96326 435.82172 200.6201 437.47858 200.6201C439.13544 200.6201 440.47858 201.96326 440.47858 203.6201Z" fill-rule="nonzero"/><path fill="#000000" fill-opacity="0.0" clip-path="url(#id_0)" d="M464.47382 216.24808C464.47382 217.90494 463.13068 219.24808 461.47382 219.24808C459.81696 219.24808 458.47382 217.90494 458.47382 216.24808C458.47382 214.59123 459.81696 213.24808 461.47382 213.24808C463.13068 213.24808 464.47382 214.59123 464.47382 216.24808Z" fill-rule="nonzero"/><path fill="#000000" fill-opacity="0.0" clip-path="url(#id_0)" d="M488.46906 195.69281C488.46906 197.34967 487.12592 198.69281 485.46906 198.69281C483.8122 198.69281 482.46906 197.34967 482.46906 195.69281C482.46906 194.03596 483.8122 192.69281 485.46906 192.69281C487.12592 192.69281 488.46906 194.03596 488.46906 195.69281Z" fill-rule="nonzero"/><path fill="#000000" fill-opacity="0.0" clip-path="url(#id_0)" d="M512.4643 220.52528C512.4643 222.18213 511.12115 223.52528 509.4643 223.52528C507.80743 223.52528 506.4643 222.18213 506.4643 220.52528C506.4643 218.86842 507.80743 217.52528 509.4643 217.52528C511.12115 217.52528 512.4643 218.86842 512.4643 220.52528Z" fill-rule="nonzero"/><path fill="#000000" fill-opacity="0.0" clip-path="url(#id_0)" d="M536.45953 221.19543C536.45953 222.85228 535.1164 224.19543 533.45953 224.19543C531.8027 224.19543 530.45953 222.85228 530.45953 221.19543C530.45953 219.53857 531.8027 218.19543 533.45953 218.19543C535.1164 218.19543 536.45953 219.53857 536.45953 221.19543Z" fill-rule="nonzero"/><path fill="#000000" fill-opacity="0.0" clip-path="url(#id_0)" d="M560.4548 230.79681C560.4548 232.45367 559.11163 233.79681 557.4548 233.79681C555.7979 233.79681 554.4548 232.45367 554.4548 230.79681C554.4548 229.13995 555.7979 227.79681 557.4548 227.79681C559.11163 227.79681 560.4548 229.13995 560.4548 230.79681Z" fill-rule="nonzero"/><path fill="#000000" fill-opacity="0.0" clip-path="url(#id_0)" d="M584.45 226.74004C584.45 228.39688 583.1069 229.74004 581.45 229.74004C579.79315 229.74004 578.45 228.39688 578.45 226.74004C578.45 225.08318 579.79315 223.74004 581.45 223.74004C583.1069 223.74004 584.45 225.08318 584.45 226.74004Z" fill-rule="nonzero"/><path fill="#000000" fill-opacity="0.0" clip-path="url(#id_0)" d="M80.55 113.71564C80.55 115.3725 79.206856 116.71564 77.55 116.71564C75.89314 116.71564 74.55 115.3725 74.55 113.71564C74.55 112.058784 75.89314 110.71564 77.55 110.71564C79.206856 110.71564 80.55 112.058784 80.55 113.71564Z" fill-rule="nonzero"/><path fill="#000000" fill-opacity="0.0" clip-path="url(#id_0)" d="M104.545235 116.95772C104.545235 118.61457 103.202095 119.95772 101.545235 119.95772C99.88838 119.95772 98.545235 118.61457 98.545235 116.95772C98.545235 115.300865 99.88838 113.95772 101.545235 113.95772C103.202095 113.95772 104.545235 115.300865 104.545235 116.95772Z" fill-rule="nonzero"/><path fill="#000000" fill-opacity="0.0" clip-path="url(#id_0)" d="M128.54048 149.61156C128.54048 151.26842 127.19733 152.61156 125.540474 152.61156C123.88362 152.61156 122.540474 151.26842 122.540474 149.61156C122.540474 147.95471 123.88362 146.61156 125.540474 146.61156C127.19733 146.61156 128.54048 147.95471 128.54048 149.61156Z" fill-rule="nonzero"/><path fill="#000000" fill-opacity="0.0" clip-path="url(#id_0)" d="M152.53572 147.03983C152.53572 148.69669 151.19257 150.03983 149.53572 150.03983C147.87886 150.03983 146.53572 148.69669 146.53572 147.03983C146.53572 145.38297 147.87886 144.03983 149.53572 144.03983C151.19257 144.03983 152.53572 145.38297 152.53572 147.03983Z" fill-rule="nonzero"/><path fill="#000000" fill-opacity="0.0" clip-path="url(#id_0)" d="M176.53094 159.54544C176.53094 161.2023 175.1878 162.54544 173.53094 162.54544C171.8741 162.54544 170.53094 161.2023 170.53094 159.54544C170.53094 157.8886 171.8741 156.54544 173.53094 156.54544C175.1878 156.54544 176.53094 157.8886 176.53094 159.54544Z" fill-rule="nonzero"/><path fill="#000000" fill-opacity="0.0" clip-path="url(#id_0)" d="M200.52618 147.47327C200.52618 149.13011 199.18304 150.47327 197.52618 150.47327C195.86934 150.47327 194.52618 149.13011 194.52618 147.47327C194.52618 145.8164 195.86934 144.47327 197.52618 144.47327C199.18304 144.47327 200.52618 145.8164 200.52618 147.47327Z" fill-rule="nonzero"/><path fill="#000000" fill-opacity="0.0" clip-path="url(#id_0)" d="M224.52142 143.51198C224.52142 145.16884 223.17828 146.51198 221.52142 146.51198C219.86458 146.51198 218.52142 145.16884 218.52142 143.51198C218.52142 141.85512 219.86458 140.51198 221.52142 140.51198C223.17828 140.51198 224.52142 141.85512 224.52142 143.51198Z" fill-rule="nonzero"/><path fill="#000000" fill-opacity="0.0" clip-path="url(#id_0)" d="M248.51666 142.18613C248.51666 143.84299 247.17352 145.18613 245.51666 145.18613C243.85982 145.18613 242.51666 143.84299 242.51666 142.18613C242.51666 140.52928 243.85982 139.18613 245.51666 139.18613C247.17352 139.18613 248.51666 140.52928 248.51666 142.18613Z" fill-rule="nonzero"/><path fill="#000000" fill-opacity="0.0" clip-path="url(#id_0)" d="M272.5119 147.99966C272.5119 149.65651 271.16876 150.99966 269.5119 150.99966C267.85504 150.99966 266.5119 149.65651 266.5119 147.99966C266.5119 146.3428 267.85504 144.99966 269.5119 144.99966C271.16876 144.99966 272.5119 146.3428 272.5119 147.99966Z" fill-rule="nonzero"/><path fill="#000000" fill-opacity="0.0" clip-path="url(#id_0)" d="M296.50714 161.24074C296.50714 162.8976 295.164 164.24074 293.50714 164.24074C291.85028 164.24074 290.50714 162.8976 290.50714 161.24074C290.50714 159.5839 291.85028 158.24074 293.50714 158.24074C295.164 158.24074 296.50714 159.5839 296.50714 161.24074Z" fill-rule="nonzero"/><path fill="#000000" fill-opacity="0.0" clip-path="url(#id_0)" d="M320.50238 164.43114C320.50238 166.08798 319.15924 167.43114 317.50238 167.43114C315.84552 167.43114 314.50238 166.08798 314.50238 164.43114C314.50238 162.77428 315.84552 161.43114 317.50238 161.43114C319.15924 161.43114 320.50238 162.77428 320.50238 164.43114Z" fill-rule="nonzero"/><path fill="#000000" fill-opacity="0.0" clip-path="url(#id_0)" d="M344.49762 151.65262C344.49762 153.30948 343.15448 154.65262 341.49762 154.65262C339.84076 154.65262 338.49762 153.30948 338.49762 151.65262C338.49762 149.99576 339.84076 148.65262 341.49762 148.65262C343.15448 148.65262 344.49762 149.99576 344.49762 151.65262Z" fill-rule="nonzero"/><path fill="#000000" fill-opacity="0.0" clip-path="url(#id_0)" d="M368.49286 148.11932C368.49286 149.77618 367.14972 151.11932 365.49286 151.11932C363.836 151.11932 362.49286 149.77618 362.49286 148.11932C362.49286 146.46248 363.836 145.11932 365.49286 145.11932C367.14972 145.11932 368.49286 146.46248 368.49286 148.11932Z" fill-rule="nonzero"/><path fill="#000000" fill-opacity="0.0" clip-path="url(#id_0)" d="M392.4881 147.56042C392.4881 149.21727 391.14496 150.56042 389.4881 150.56042C387.83124 150.56042 386.4881 149.21727 386.4881 147.56042C386.4881 145.90356 387.83124 144.56042 389.4881 144.56042C391.14496 144.56042 392.4881 145.90356 392.4881 147.56042Z" fill-rule="nonzero"/><path fill="#000000" fill-opacity="0.0" clip-path="url(#id_0)" d="M416.48334 154.58757C416.48334 156.24443 415.1402 157.58757 413.48334 157.58757C411.82648 157.58757 410.48334 156.24443 410.48334 154.58757C410.48334 152.93073 411.82648 151.58757 413.48334 151.58757C415.1402 151.58757 416.48334 152.93073 416.48334 154.58757Z" fill-rule="nonzero"/><path fill="#000000" fill-opacity="0.0" clip-path="url(#id_0)" d="M440.47858 147.42873C440.47858 149.08559 439.13544 150.42873 437.47858 150.42873C435.82172 150.42873 434.47858 149.08559 434.47858 147.42873C434.47858 145.77187 435.82172 144.42873 437.47858 144.42873C439.13544 144.42873 440.47858 145.77187 440.47858 147.42873Z" fill-rule="nonzero"/><path fill="#000000" fill-opacity="0.0" clip-path="url(#id_0)" d="M464.47382 147.88887C464.47382 149.54573 463.13068 150.88887 461.47382 150.88887C459.81696 150.88887 458.47382 149.54573 458.47382 147.88887C458.47382 146.23201 459.81696 144.88887 461.47382 144.88887C463.13068 144.88887 464.47382 146.23201 464.47382 147.88887Z" fill-rule="nonzero"/><path fill="#000000" fill-opacity="0.0" clip-path="url(#id_0)" d="M488.46906 153.88132C488.46906 155.53816 487.12592 156.88132 485.46906 156.88132C483.8122 156.88132 482.46906 155.53816 482.46906 153.88132C482.46906 152.22446 483.8122 150.88132 485.46906 150.88132C487.12592 150.88132 488.46906 152.22446 488.46906 153.88132Z" fill-rule="nonzero"/><path fill="#000000" fill-opacity="0.0" clip-path="url(#id_0)" d="M512.4643 170.25027C512.4643 171.90712 511.12115 173.25027 509.4643 173.25027C507.80743 173.25027 506.4643 171.90712 506.4643 170.25027C506.4643 168.59341 507.80743 167.25027 509.4643 167.25027C511.12115 167.25027 512.4643 168.59341 512.4643 170.25027Z" fill-rule="nonzero"/><path fill="#000000" fill-opacity="0.0" clip-path="url(#id_0)" d="M536.45953 162.85498C536.45953 164.51184 535.1164 165.85498 533.45953 165.85498C531.8027 165.85498 530.45953 164.51184 530.45953 162.85498C530.45953 161.19814 531.8027 159.85498 533.45953 159.85498C535.1164 159.85498 536.45953 161.19814 536.45953 162.85498Z" fill-rule="nonzero"/><path fill="#000000" fill-opacity="0.0" clip-path="url(#id_0)" d="M560.4548 152.88855C560.4548 154.5454 559.11163 155.88855 557.4548 155.88855C555.7979 155.88855 554.4548 154.5454 554.4548 152.88855C554.4548 151.23169 555.7979 149.88855 557.4548 149.88855C559.11163 149.88855 560.4548 151.23169 560.4548 152.88855Z" fill-rule="nonzero"/><path fill="#000000" fill-opacity="0.0" clip-path="url(#id_0)" d="M584.45 153.77428C584.45 155.43112 583.1069 156.77428 581.45 156.77428C579.79315 156.77428 578.45 155.43112 578.45 153.77428C578.45 152.11742 579.79315 150.77428 581.45 150.77428C583.1069 150.77428 584.45 152.11742 584.45 153.77428Z" fill-rule="nonzero"/><path fill="#000000" d="M301.875 349.45L301.875 340.85626L303.01562 340.85626L303.01562 345.1219L307.28125 340.85626L308.82812 340.85626L305.21875 344.34064L308.98438 349.45L307.48438 349.45L304.42188 345.10626L303.01562 346.46564L303.01562 349.45L301.875 349.45ZM314.04688 347.45L315.14062 347.575Q314.89062 348.52814 314.1875 349.0594Q313.48438 349.59064 312.40625 349.59064Q311.04688 349.59064 310.23438 348.7469Q309.4375 347.90314 309.4375 346.3875Q309.4375 344.825 310.25 343.96564Q311.0625 343.09064 312.34375 343.09064Q313.59375 343.09064 314.375 343.9344Q315.17188 344.77814 315.17188 346.325Q315.17188 346.41876 315.17188 346.60626L310.53125 346.60626Q310.59375 347.6375 311.10938 348.1844Q311.625 348.71564 312.40625 348.71564Q312.98438 348.71564 313.39062 348.41876Q313.8125 348.10626 314.04688 347.45ZM310.59375 345.7469L314.0625 345.7469Q314.0 344.95 313.67188 344.5594Q313.15625 343.95 312.35938 343.95Q311.625 343.95 311.125 344.4344Q310.64062 344.91876 310.59375 345.7469ZM316.75 351.84064L316.625 350.85626Q316.96875 350.95 317.23438 350.95Q317.57812 350.95 317.78125 350.825Q318.0 350.71564 318.14062 350.5125Q318.23438 350.34064 318.46875 349.71564Q318.48438 349.6375 318.5625 349.46564L316.1875 343.23126L317.32812 343.23126L318.625 346.825Q318.875 347.5125 319.07812 348.27814Q319.26562 347.54376 319.51562 346.85626L320.84375 343.23126L321.89062 343.23126L319.53125 349.5594Q319.14062 350.575 318.9375 350.96564Q318.65625 351.4969 318.28125 351.73126Q317.92188 351.98126 317.42188 351.98126Q317.125 351.98126 316.75 351.84064ZM324.76562 349.45L324.76562 340.85626L325.82812 340.85626L325.82812 349.45L324.76562 349.45ZM332.04688 347.45L333.14062 347.575Q332.89062 348.52814 332.1875 349.0594Q331.48438 349.59064 330.40625 349.59064Q329.04688 349.59064 328.23438 348.7469Q327.4375 347.90314 327.4375 346.3875Q327.4375 344.825 328.25 343.96564Q329.0625 343.09064 330.34375 343.09064Q331.59375 343.09064 332.375 343.9344Q333.17188 344.77814 333.17188 346.325Q333.17188 346.41876 333.17188 346.60626L328.53125 346.60626Q328.59375 347.6375 329.10938 348.1844Q329.625 348.71564 330.40625 348.71564Q330.98438 348.71564 331.39062 348.41876Q331.8125 348.10626 332.04688 347.45ZM328.59375 345.7469L332.0625 345.7469Q332.0 344.95 331.67188 344.5594Q331.15625 343.95 330.35938 343.95Q329.625 343.95 329.125 344.4344Q328.64062 344.91876 328.59375 345.7469ZM334.79688 349.45L334.79688 343.23126L335.73438 343.23126L335.73438 344.10626Q336.42188 343.09064 337.71875 343.09064Q338.28125 343.09064 338.75 343.29376Q339.23438 343.4969 339.46875 343.825Q339.70312 344.15314 339.79688 344.59064Q339.84375 344.8875 339.84375 345.6219L339.84375 349.45L338.79688 349.45L338.79688 345.66876Q338.79688 345.0125 338.67188 344.7Q338.54688 344.3875 338.23438 344.2Q337.92188 343.9969 337.5 343.9969Q336.82812 343.9969 336.32812 344.4344Q335.84375 344.85626 335.84375 346.04376L335.84375 349.45L334.79688 349.45ZM341.59375 349.96564L342.625 350.1219Q342.6875 350.59064 342.98438 350.8094Q343.375 351.10626 344.04688 351.10626Q344.78125 351.10626 345.17188 350.8094Q345.57812 350.5125 345.71875 349.9969Q345.8125 349.66876 345.79688 348.6375Q345.10938 349.45 344.07812 349.45Q342.79688 349.45 342.09375 348.52814Q341.39062 347.59064 341.39062 346.3094Q341.39062 345.41876 341.70312 344.66876Q342.03125 343.90314 342.64062 343.4969Q343.25 343.09064 344.07812 343.09064Q345.1875 343.09064 345.90625 343.98126L345.90625 343.23126L346.875 343.23126L346.875 348.60626Q346.875 350.0594 346.57812 350.66876Q346.28125 351.27814 345.64062 351.6219Q345.0 351.98126 344.0625 351.98126Q342.95312 351.98126 342.26562 351.48126Q341.57812 350.98126 341.59375 349.96564ZM342.46875 346.23126Q342.46875 347.45 342.95312 348.0125Q343.4375 348.575 344.17188 348.575Q344.90625 348.575 345.39062 348.0125Q345.89062 347.45 345.89062 346.2625Q345.89062 345.1219 345.375 344.54376Q344.875 343.96564 344.15625 343.96564Q343.45312 343.96564 342.95312 344.54376Q342.46875 345.10626 342.46875 346.23126ZM351.09375 348.5125L351.25 349.4344Q350.79688 349.52814 350.45312 349.52814Q349.875 349.52814 349.5625 349.35626Q349.25 349.16876 349.10938 348.8719Q348.98438 348.575 348.98438 347.6219L348.98438 344.04376L348.21875 344.04376L348.21875 343.23126L348.98438 343.23126L348.98438 341.6844L350.03125 341.0594L350.03125 343.23126L351.09375 343.23126L351.09375 344.04376L350.03125 344.04376L350.03125 347.6844Q350.03125 348.1375 350.07812 348.2625Q350.14062 348.3875 350.26562 348.46564Q350.39062 348.54376 350.625 348.54376Q350.8125 348.54376 351.09375 348.5125ZM351.79688 349.45L351.79688 340.85626L352.84375 340.85626L352.84375 343.9344Q353.57812 343.09064 354.70312 343.09064Q355.40625 343.09064 355.90625 343.3719Q356.42188 343.6375 356.64062 344.1219Q356.85938 344.59064 356.85938 345.5125L356.85938 349.45L355.8125 349.45L355.8125 345.5125Q355.8125 344.71564 355.46875 344.35626Q355.125 343.9969 354.5 343.9969Q354.03125 343.9969 353.60938 344.2469Q353.20312 344.48126 353.01562 344.90314Q352.84375 345.3094 352.84375 346.04376L352.84375 349.45L351.79688 349.45Z" fill-rule="nonzero"/><path fill="#000000" d="M25.362513 237.60521Q23.221888 237.60521 22.018763 236.46458Q20.800013 235.30833 20.800013 233.49583Q20.800013 232.29271 21.378138 231.33958Q21.940638 230.38646 22.956263 229.88646Q23.971888 229.38646 25.268763 229.38646Q26.565638 229.38646 27.596888 229.91771Q28.628138 230.44896 29.159388 231.41771Q29.690638 232.37083 29.690638 233.49583Q29.690638 234.71458 29.112513 235.66771Q28.518763 236.62083 27.518763 237.12083Q26.503138 237.60521 25.362513 237.60521ZM25.378138 236.43333Q26.940638 236.43333 27.831263 235.60521Q28.721888 234.76146 28.721888 233.49583Q28.721888 232.21458 27.831263 231.38646Q26.925013 230.55833 25.253138 230.55833Q24.206263 230.55833 23.425013 230.91771Q22.643763 231.26146 22.221888 231.94896Q21.784388 232.63646 21.784388 233.48021Q21.784388 234.68333 22.612513 235.55833Q23.440638 236.43333 25.378138 236.43333ZM31.940638 228.38646L23.331263 228.38646L23.331263 227.43333L24.128138 227.43333Q23.659388 227.08958 23.425013 226.66771Q23.190638 226.23021 23.190638 225.62083Q23.190638 224.82396 23.596888 224.21458Q24.003138 223.60521 24.753138 223.30833Q25.503138 222.99583 26.393763 222.99583Q27.346888 222.99583 28.112513 223.33958Q28.878138 223.66771 29.284388 224.32396Q29.690638 224.98021 29.690638 225.69896Q29.690638 226.23021 29.471888 226.65208Q29.237513 227.07396 28.909388 227.33958L31.940638 227.33958L31.940638 228.38646ZM26.471888 227.43333Q27.675013 227.43333 28.253138 226.94896Q28.815638 226.46458 28.815638 225.77708Q28.815638 225.07396 28.221888 224.57396Q27.628138 224.07396 26.378138 224.07396Q25.190638 224.07396 24.612513 224.55833Q24.018763 225.04271 24.018763 225.73021Q24.018763 226.40208 24.643763 226.91771Q25.268763 227.43333 26.471888 227.43333ZM27.550013 217.13646L27.675013 216.04271Q28.628138 216.29271 29.159388 216.99583Q29.690638 217.69896 29.690638 218.77708Q29.690638 220.13646 28.846888 220.94896Q28.003138 221.74583 26.487513 221.74583Q24.925013 221.74583 24.065638 220.93333Q23.190638 220.12083 23.190638 218.83958Q23.190638 217.58958 24.034388 216.80833Q24.878138 216.01146 26.425013 216.01146Q26.518763 216.01146 26.706263 216.01146L26.706263 220.65208Q27.737513 220.58958 28.284388 220.07396Q28.815638 219.55833 28.815638 218.77708Q28.815638 218.19896 28.518763 217.79271Q28.206263 217.37083 27.550013 217.13646ZM25.846888 220.58958L25.846888 217.12083Q25.050013 217.18333 24.659388 217.51146Q24.050013 218.02708 24.050013 218.82396Q24.050013 219.55833 24.534388 220.05833Q25.018763 220.54271 25.846888 220.58958ZM29.550013 214.40208L23.331263 214.40208L23.331263 213.44896L24.268763 213.44896Q23.612513 213.08958 23.409388 212.79271Q23.190638 212.48021 23.190638 212.10521Q23.190638 211.57396 23.518763 211.02708L24.503138 211.38646Q24.268763 211.77708 24.268763 212.15208Q24.268763 212.51146 24.487513 212.79271Q24.690638 213.05833 25.065638 213.16771Q25.628138 213.35521 26.284388 213.35521L29.550013 213.35521L29.550013 214.40208ZM28.784388 206.32396Q29.284388 206.91771 29.487513 207.46458Q29.690638 207.99583 29.690638 208.62083Q29.690638 209.65208 29.190638 210.19896Q28.690638 210.74583 27.909388 210.74583Q27.456263 210.74583 27.081263 210.54271Q26.690638 210.33958 26.471888 209.99583Q26.237513 209.65208 26.128138 209.23021Q26.034388 208.93333 25.956263 208.29271Q25.815638 207.02708 25.596888 206.41771Q25.378138 206.41771 25.331263 206.41771Q24.675013 206.41771 24.409388 206.71458Q24.065638 207.12083 24.065638 207.91771Q24.065638 208.65208 24.331263 209.01146Q24.581263 209.37083 25.237513 209.54271L25.096888 210.57396Q24.440638 210.43333 24.034388 210.10521Q23.628138 209.77708 23.409388 209.16771Q23.190638 208.55833 23.190638 207.76146Q23.190638 206.96458 23.378138 206.46458Q23.565638 205.96458 23.846888 205.73021Q24.128138 205.49583 24.565638 205.40208Q24.831263 205.35521 25.534388 205.35521L26.940638 205.35521Q28.409388 205.35521 28.800013 205.29271Q29.190638 205.21458 29.550013 205.01146L29.550013 206.12083Q29.221888 206.27708 28.784388 206.32396ZM26.425013 206.41771Q26.659388 206.99583 26.831263 208.13646Q26.925013 208.79271 27.050013 209.05833Q27.159388 209.32396 27.378138 209.48021Q27.596888 209.62083 27.878138 209.62083Q28.300013 209.62083 28.581263 209.30833Q28.862513 208.98021 28.862513 208.37083Q28.862513 207.76146 28.596888 207.29271Q28.331263 206.80833 27.862513 206.58958Q27.503138 206.41771 26.815638 206.41771L26.425013 206.41771ZM28.612513 201.08958L29.534388 200.93333Q29.628138 201.38646 29.628138 201.73021Q29.628138 202.30833 29.456263 202.62083Q29.268763 202.93333 28.971888 203.07396Q28.675013 203.19896 27.721888 203.19896L24.143763 203.19896L24.143763 203.96458L23.331263 203.96458L23.331263 203.19896L21.784388 203.19896L21.159388 202.15208L23.331263 202.15208L23.331263 201.08958L24.143763 201.08958L24.143763 202.15208L27.784388 202.15208Q28.237513 202.15208 28.362513 202.10521Q28.487513 202.04271 28.565638 201.91771Q28.643763 201.79271 28.643763 201.55833Q28.643763 201.37083 28.612513 201.08958ZM22.175013 200.38646L20.956263 200.38646L20.956263 199.32396L22.175013 199.32396L22.175013 200.38646ZM29.550013 200.38646L23.331263 200.38646L23.331263 199.32396L29.550013 199.32396L29.550013 200.38646ZM26.440638 197.77708Q24.706263 197.77708 23.878138 196.82396Q23.190638 196.02708 23.190638 194.87083Q23.190638 193.58958 24.034388 192.77708Q24.862513 191.94896 26.346888 191.94896Q27.550013 191.94896 28.237513 192.30833Q28.925013 192.66771 29.315638 193.37083Q29.690638 194.05833 29.690638 194.87083Q29.690638 196.16771 28.862513 196.98021Q28.018763 197.77708 26.440638 197.77708ZM26.440638 196.69896Q27.628138 196.69896 28.221888 196.18333Q28.815638 195.65208 28.815638 194.87083Q28.815638 194.07396 28.221888 193.55833Q27.628138 193.04271 26.409388 193.04271Q25.253138 193.04271 24.659388 193.57396Q24.065638 194.08958 24.065638 194.87083Q24.065638 195.65208 24.659388 196.18333Q25.237513 196.69896 26.440638 196.69896ZM29.550013 190.38646L23.331263 190.38646L23.331263 189.44896L24.206263 189.44896Q23.190638 188.76146 23.190638 187.46458Q23.190638 186.90208 23.393763 186.43333Q23.596888 185.94896 23.925013 185.71458Q24.253138 185.48021 24.690638 185.38646Q24.987513 185.33958 25.721888 185.33958L29.550013 185.33958L29.550013 186.38646L25.768763 186.38646Q25.112513 186.38646 24.800013 186.51146Q24.487513 186.63646 24.300013 186.94896Q24.096888 187.26146 24.096888 187.68333Q24.096888 188.35521 24.534388 188.85521Q24.956263 189.33958 26.143763 189.33958L29.550013 189.33958L29.550013 190.38646ZM27.690638 183.80833L27.534388 182.77708Q28.159388 182.68333 28.487513 182.29271Q28.815638 181.88646 28.815638 181.15208Q28.815638 180.43333 28.534388 180.08958Q28.237513 179.73021 27.831263 179.73021Q27.471888 179.73021 27.268763 180.04271Q27.128138 180.26146 26.909388 181.12083Q26.612513 182.27708 26.409388 182.73021Q26.190638 183.16771 25.815638 183.40208Q25.440638 183.63646 24.971888 183.63646Q24.565638 183.63646 24.206263 183.44896Q23.846888 183.26146 23.612513 182.93333Q23.440638 182.68333 23.315638 182.26146Q23.190638 181.83958 23.190638 181.33958Q23.190638 180.62083 23.409388 180.07396Q23.612513 179.51146 23.971888 179.24583Q24.331263 178.98021 24.925013 178.88646L25.065638 179.91771Q24.596888 179.98021 24.331263 180.32396Q24.050013 180.65208 24.050013 181.27708Q24.050013 181.99583 24.300013 182.30833Q24.534388 182.62083 24.862513 182.62083Q25.065638 182.62083 25.221888 182.49583Q25.393763 182.35521 25.503138 182.08958Q25.565638 181.93333 25.768763 181.15208Q26.081263 180.02708 26.268763 179.58958Q26.456263 179.15208 26.815638 178.90208Q27.175013 178.65208 27.721888 178.65208Q28.253138 178.65208 28.721888 178.96458Q29.175013 179.26146 29.440638 179.83958Q29.690638 180.41771 29.690638 181.15208Q29.690638 182.37083 29.190638 183.01146Q28.675013 183.63646 27.690638 183.80833ZM29.690638 174.18333L20.815638 171.69896L20.815638 170.85521L29.690638 173.33958L29.690638 174.18333ZM27.690638 167.80833L27.534388 166.77708Q28.159388 166.68333 28.487513 166.29271Q28.815638 165.88646 28.815638 165.15208Q28.815638 164.43333 28.534388 164.08958Q28.237513 163.73021 27.831263 163.73021Q27.471888 163.73021 27.268763 164.04271Q27.128138 164.26146 26.909388 165.12083Q26.612513 166.27708 26.409388 166.73021Q26.190638 167.16771 25.815638 167.40208Q25.440638 167.63646 24.971888 167.63646Q24.565638 167.63646 24.206263 167.44896Q23.846888 167.26146 23.612513 166.93333Q23.440638 166.68333 23.315638 166.26146Q23.190638 165.83958 23.190638 165.33958Q23.190638 164.62083 23.409388 164.07396Q23.612513 163.51146 23.971888 163.24583Q24.331263 162.98021 24.925013 162.88646L25.065638 163.91771Q24.596888 163.98021 24.331263 164.32396Q24.050013 164.65208 24.050013 165.27708Q24.050013 165.99583 24.300013 166.30833Q24.534388 166.62083 24.862513 166.62083Q25.065638 166.62083 25.221888 166.49583Q25.393763 166.35521 25.503138 166.08958Q25.565638 165.93333 25.768763 165.15208Q26.081263 164.02708 26.268763 163.58958Q26.456263 163.15208 26.815638 162.90208Q27.175013 162.65208 27.721888 162.65208Q28.253138 162.65208 28.721888 162.96458Q29.175013 163.26146 29.440638 163.83958Q29.690638 164.41771 29.690638 165.15208Q29.690638 166.37083 29.190638 167.01146Q28.675013 167.63646 27.690638 167.80833ZM27.550013 156.13646L27.675013 155.04271Q28.628138 155.29271 29.159388 155.99583Q29.690638 156.69896 29.690638 157.77708Q29.690638 159.13646 28.846888 159.94896Q28.003138 160.74583 26.487513 160.74583Q24.925013 160.74583 24.065638 159.93333Q23.190638 159.12083 23.190638 157.83958Q23.190638 156.58958 24.034388 155.80833Q24.878138 155.01146 26.425013 155.01146Q26.518763 155.01146 26.706263 155.01146L26.706263 159.65208Q27.737513 159.58958 28.284388 159.07396Q28.815638 158.55833 28.815638 157.77708Q28.815638 157.19896 28.518763 156.79271Q28.206263 156.37083 27.550013 156.13646ZM25.846888 159.58958L25.846888 156.12083Q25.050013 156.18333 24.659388 156.51146Q24.050013 157.02708 24.050013 157.82396Q24.050013 158.55833 24.534388 159.05833Q25.018763 159.54271 25.846888 159.58958ZM27.268763 149.32396L27.409388 148.29271Q28.471888 148.46458 29.081263 149.16771Q29.690638 149.87083 29.690638 150.88646Q29.690638 152.16771 28.862513 152.94896Q28.018763 153.71458 26.456263 153.71458Q25.456263 153.71458 24.706263 153.38646Q23.940638 153.04271 23.565638 152.37083Q23.190638 151.68333 23.190638 150.87083Q23.190638 149.87083 23.706263 149.23021Q24.206263 148.57396 25.159388 148.38646L25.315638 149.41771Q24.690638 149.55833 24.378138 149.93333Q24.050013 150.30833 24.050013 150.83958Q24.050013 151.63646 24.628138 152.13646Q25.190638 152.63646 26.425013 152.63646Q27.690638 152.63646 28.253138 152.15208Q28.815638 151.66771 28.815638 150.90208Q28.815638 150.27708 28.440638 149.87083Q28.065638 149.44896 27.268763 149.32396ZM26.440638 147.77708Q24.706263 147.77708 23.878138 146.82396Q23.190638 146.02708 23.190638 144.87083Q23.190638 143.58958 24.034388 142.77708Q24.862513 141.94896 26.346888 141.94896Q27.550013 141.94896 28.237513 142.30833Q28.925013 142.66771 29.315638 143.37083Q29.690638 144.05833 29.690638 144.87083Q29.690638 146.16771 28.862513 146.98021Q28.018763 147.77708 26.440638 147.77708ZM26.440638 146.69896Q27.628138 146.69896 28.221888 146.18333Q28.815638 145.65208 28.815638 144.87083Q28.815638 144.07396 28.221888 143.55833Q27.628138 143.04271 26.409388 143.04271Q25.253138 143.04271 24.659388 143.57396Q24.065638 144.08958 24.065638 144.87083Q24.065638 145.65208 24.659388 146.18333Q25.237513 146.69896 26.440638 146.69896ZM29.550013 140.38646L23.331263 140.38646L23.331263 139.44896L24.206263 139.44896Q23.190638 138.76146 23.190638 137.46458Q23.190638 136.90208 23.393763 136.43333Q23.596888 135.94896 23.925013 135.71458Q24.253138 135.48021 24.690638 135.38646Q24.987513 135.33958 25.721888 135.33958L29.550013 135.33958L29.550013 136.38646L25.768763 136.38646Q25.112513 136.38646 24.800013 136.51146Q24.487513 136.63646 24.300013 136.94896Q24.096888 137.26146 24.096888 137.68333Q24.096888 138.35521 24.534388 138.85521Q24.956263 139.33958 26.143763 139.33958L29.550013 139.33958L29.550013 140.38646ZM29.550013 129.35521L28.768763 129.35521Q29.690638 129.94896 29.690638 131.08958Q29.690638 131.83958 29.284388 132.46458Q28.862513 133.08958 28.128138 133.43333Q27.393763 133.77708 26.440638 133.77708Q25.518763 133.77708 24.753138 133.46458Q23.987513 133.15208 23.596888 132.52708Q23.190638 131.90208 23.190638 131.13646Q23.190638 130.57396 23.425013 130.13646Q23.659388 129.69896 24.034388 129.41771L20.956263 129.41771L20.956263 128.37083L29.550013 128.37083L29.550013 129.35521ZM26.440638 132.68333Q27.643763 132.68333 28.237513 132.18333Q28.815638 131.68333 28.815638 130.99583Q28.815638 130.30833 28.253138 129.82396Q27.690638 129.33958 26.534388 129.33958Q25.253138 129.33958 24.659388 129.83958Q24.065638 130.32396 24.065638 131.04271Q24.065638 131.74583 24.643763 132.21458Q25.206263 132.68333 26.440638 132.68333Z" fill-rule="nonzero"/><path fill="#000000" d="M65.05 300.21564Q65.05 298.6844 65.3625 297.7625Q65.675 296.825 66.28438 296.325Q66.90938 295.825 67.84688 295.825Q68.53438 295.825 69.05 296.10626Q69.58125 296.3875 69.925 296.91876Q70.26875 297.4344 70.45625 298.1844Q70.64375 298.9344 70.64375 300.21564Q70.64375 301.73126 70.33125 302.65314Q70.03438 303.575 69.40938 304.09064Q68.8 304.59064 67.84688 304.59064Q66.6125 304.59064 65.89375 303.7Q65.05 302.6375 65.05 300.21564ZM66.12813 300.21564Q66.12813 302.325 66.62813 303.02814Q67.12813 303.73126 67.84688 303.73126Q68.58125 303.73126 69.06563 303.02814Q69.56563 302.325 69.56563 300.21564Q69.56563 298.09064 69.06563 297.40314Q68.58125 296.7 67.83125 296.7Q67.1125 296.7 66.675 297.3094Q66.12813 298.09064 66.12813 300.21564Z" fill-rule="nonzero"/><path fill="#000000" d="M70.59688 253.7277L70.59688 254.74333L64.90938 254.74333Q64.90938 254.36833 65.03438 254.00896Q65.25313 253.43083 65.72188 252.86833Q66.20625 252.30583 67.1125 251.57146Q68.51875 250.4152 69.00313 249.74333Q69.50313 249.07146 69.50313 248.4777Q69.50313 247.8527 69.05 247.43083Q68.59688 246.99333 67.87813 246.99333Q67.1125 246.99333 66.65938 247.44646Q66.20625 247.89958 66.19063 248.71208L65.1125 248.6027Q65.22188 247.38396 65.94063 246.75896Q66.675 246.11833 67.90938 246.11833Q69.14375 246.11833 69.8625 246.80583Q70.58125 247.49333 70.58125 248.50896Q70.58125 249.02458 70.3625 249.52458Q70.15938 250.00896 69.65938 250.57146Q69.175 251.11833 68.05 252.07146Q67.09688 252.86833 66.81563 253.1652Q66.55 253.44646 66.37813 253.7277L70.59688 253.7277Z" fill-rule="nonzero"/><path fill="#000000" d="M68.425 205.03667L68.425 202.97417L64.70625 202.97417L64.70625 202.00542L68.62813 196.44292L69.4875 196.44292L69.4875 202.00542L70.64375 202.00542L70.64375 202.97417L69.4875 202.97417L69.4875 205.03667L68.425 205.03667ZM68.425 202.00542L68.425 198.14604L65.7375 202.00542L68.425 202.00542Z" fill-rule="nonzero"/><path fill="#000000" d="M70.51875 148.84563L69.47188 148.92375Q69.33125 148.29875 69.08125 148.0175Q68.64375 147.56438 68.01875 147.56438Q67.51875 147.56438 67.12813 147.84563Q66.64375 148.22063 66.34688 148.92375Q66.06563 149.61125 66.05 150.8925Q66.425 150.31438 66.97188 150.03313Q67.53438 149.75188 68.14375 149.75188Q69.19063 149.75188 69.925 150.53313Q70.675 151.31438 70.675 152.53313Q70.675 153.34563 70.31563 154.04875Q69.97188 154.73625 69.3625 155.11125Q68.75313 155.47063 67.9875 155.47063Q66.65938 155.47063 65.83125 154.50188Q65.00313 153.53313 65.00313 151.31438Q65.00313 148.81438 65.925 147.68938Q66.72188 146.705 68.08125 146.705Q69.09688 146.705 69.7375 147.28313Q70.39375 147.84563 70.51875 148.84563ZM66.22188 152.54875Q66.22188 153.09563 66.44063 153.59563Q66.675 154.08 67.08125 154.34563Q67.50313 154.61125 67.97188 154.61125Q68.62813 154.61125 69.1125 154.08Q69.59688 153.53313 69.59688 152.61125Q69.59688 151.72063 69.1125 151.205Q68.64375 150.68938 67.925 150.68938Q67.20625 150.68938 66.70625 151.205Q66.22188 151.72063 66.22188 152.54875Z" fill-rule="nonzero"/><path fill="#000000" d="M66.675 100.96709Q66.01875 100.71709 65.69063 100.27959Q65.37813 99.82646 65.37813 99.21709Q65.37813 98.27959 66.05 97.63896Q66.7375 96.99834 67.84688 96.99834Q68.97188 96.99834 69.65938 97.65459Q70.34688 98.31084 70.34688 99.24834Q70.34688 99.84209 70.03438 100.27959Q69.72188 100.71709 69.08125 100.96709Q69.87813 101.21709 70.28438 101.79521Q70.69063 102.37334 70.69063 103.17021Q70.69063 104.26396 69.90938 105.01396Q69.14375 105.76396 67.8625 105.76396Q66.59688 105.76396 65.81563 105.01396Q65.03438 104.26396 65.03438 103.13896Q65.03438 102.29521 65.45625 101.73271Q65.89375 101.17021 66.675 100.96709ZM66.45625 99.17021Q66.45625 99.77959 66.84688 100.17021Q67.25313 100.56084 67.87813 100.56084Q68.4875 100.56084 68.87813 100.18584Q69.26875 99.79521 69.26875 99.23271Q69.26875 98.65459 68.8625 98.26396Q68.45625 97.85771 67.8625 97.85771Q67.25313 97.85771 66.84688 98.24834Q66.45625 98.63896 66.45625 99.17021ZM66.12813 103.13896Q66.12813 103.59209 66.33125 104.01396Q66.55 104.43584 66.97188 104.67021Q67.39375 104.90459 67.87813 104.90459Q68.62813 104.90459 69.1125 104.42021Q69.6125 103.93584 69.6125 103.18584Q69.6125 102.42021 69.1125 101.92021Q68.6125 101.42021 67.84688 101.42021Q67.09688 101.42021 66.6125 101.92021Q66.12813 102.40459 66.12813 103.13896Z" fill-rule="nonzero"/><path fill="#000000" d="M62.01875 55.916668L60.971874 55.916668L60.971874 49.197918Q60.58125 49.557293 59.95625 49.932293Q59.346874 50.291668 58.8625 50.463543L58.8625 49.447918Q59.7375 49.026043 60.39375 48.447918Q61.065624 47.854168 61.346874 47.291668L62.01875 47.291668L62.01875 55.916668ZM65.05 51.682293Q65.05 50.151043 65.3625 49.229168Q65.675 48.291668 66.28438 47.791668Q66.90938 47.291668 67.84688 47.291668Q68.53438 47.291668 69.05 47.572918Q69.58125 47.854168 69.925 48.385418Q70.26875 48.901043 70.45625 49.651043Q70.64375 50.401043 70.64375 51.682293Q70.64375 53.197918 70.33125 54.119793Q70.03438 55.041668 69.40938 55.557293Q68.8 56.057293 67.84688 56.057293Q66.6125 56.057293 65.89375 55.166668Q65.05 54.104168 65.05 51.682293ZM66.12813 51.682293Q66.12813 53.791668 66.62813 54.494793Q67.12813 55.197918 67.84688 55.197918Q68.58125 55.197918 69.06563 54.494793Q69.56563 53.791668 69.56563 51.682293Q69.56563 49.557293 69.06563 48.869793Q68.58125 48.166668 67.83125 48.166668Q67.1125 48.166668 66.675 48.776043Q66.12813 49.557293 66.12813 51.682293Z" fill-rule="nonzero"/><path fill="#000000" d="M146.53572 315.2L147.6451 315.10626Q147.7701 315.91876 148.2076 316.325Q148.66072 316.73126 149.30135 316.73126Q150.05135 316.73126 150.5826 316.15314Q151.11385 315.575 151.11385 314.6375Q151.11385 313.73126 150.59822 313.21564Q150.09822 312.6844 149.2701 312.6844Q148.7701 312.6844 148.34822 312.91876Q147.94197 313.15314 147.7076 313.5125L146.72322 313.3875L147.55135 308.98126L151.8326 308.98126L151.8326 309.98126L148.3951 309.98126L147.94197 312.29376Q148.7076 311.7469 149.55135 311.7469Q150.67635 311.7469 151.44197 312.52814Q152.22322 313.3094 152.22322 314.54376Q152.22322 315.7 151.55135 316.5594Q150.72322 317.59064 149.30135 317.59064Q148.12947 317.59064 147.37947 316.9344Q146.6451 316.27814 146.53572 315.2Z" fill-rule="nonzero"/><path fill="#000000" d="M266.98065 317.45L265.93378 317.45L265.93378 310.73126Q265.54315 311.09064 264.91815 311.46564Q264.30878 311.825 263.8244 311.9969L263.8244 310.98126Q264.6994 310.5594 265.35565 309.98126Q266.02753 309.3875 266.30878 308.825L266.98065 308.825L266.98065 317.45ZM270.0119 313.21564Q270.0119 311.6844 270.3244 310.7625Q270.6369 309.825 271.24628 309.325Q271.87128 308.825 272.80878 308.825Q273.49628 308.825 274.0119 309.10626Q274.54315 309.3875 274.8869 309.91876Q275.23065 310.4344 275.41815 311.1844Q275.60565 311.9344 275.60565 313.21564Q275.60565 314.73126 275.29315 315.65314Q274.99628 316.575 274.37128 317.09064Q273.7619 317.59064 272.80878 317.59064Q271.5744 317.59064 270.85565 316.7Q270.0119 315.6375 270.0119 313.21564ZM271.09003 313.21564Q271.09003 315.325 271.59003 316.02814Q272.09003 316.73126 272.80878 316.73126Q273.54315 316.73126 274.02753 316.02814Q274.52753 315.325 274.52753 313.21564Q274.52753 311.09064 274.02753 310.40314Q273.54315 309.7 272.79315 309.7Q272.0744 309.7 271.6369 310.3094Q271.09003 311.09064 271.09003 313.21564Z" fill-rule="nonzero"/><path fill="#000000" d="M386.95685 317.45L385.90997 317.45L385.90997 310.73126Q385.51935 311.09064 384.89435 311.46564Q384.28497 311.825 383.8006 311.9969L383.8006 310.98126Q384.6756 310.5594 385.33185 309.98126Q386.00372 309.3875 386.28497 308.825L386.95685 308.825L386.95685 317.45ZM389.9881 315.2L391.09747 315.10626Q391.22247 315.91876 391.65997 316.325Q392.1131 316.73126 392.75372 316.73126Q393.50372 316.73126 394.03497 316.15314Q394.56622 315.575 394.56622 314.6375Q394.56622 313.73126 394.0506 313.21564Q393.5506 312.6844 392.72247 312.6844Q392.22247 312.6844 391.8006 312.91876Q391.39435 313.15314 391.15997 313.5125L390.1756 313.3875L391.00372 308.98126L395.28497 308.98126L395.28497 309.98126L391.84747 309.98126L391.39435 312.29376Q392.15997 311.7469 393.00372 311.7469Q394.12872 311.7469 394.89435 312.52814Q395.6756 313.3094 395.6756 314.54376Q395.6756 315.7 395.00372 316.5594Q394.1756 317.59064 392.75372 317.59064Q391.58185 317.59064 390.83185 316.9344Q390.09747 316.27814 389.9881 315.2Z" fill-rule="nonzero"/><path fill="#000000" d="M508.51117 316.4344L508.51117 317.45L502.82367 317.45Q502.82367 317.075 502.94867 316.71564Q503.16742 316.1375 503.63617 315.575Q504.12054 315.0125 505.0268 314.27814Q506.43304 313.1219 506.91742 312.45Q507.41742 311.77814 507.41742 311.1844Q507.41742 310.5594 506.9643 310.1375Q506.51117 309.7 505.79242 309.7Q505.0268 309.7 504.57367 310.15314Q504.12054 310.60626 504.10492 311.41876L503.0268 311.3094Q503.13617 310.09064 503.85492 309.46564Q504.5893 308.825 505.82367 308.825Q507.05804 308.825 507.7768 309.5125Q508.49554 310.2 508.49554 311.21564Q508.49554 311.73126 508.2768 312.23126Q508.07367 312.71564 507.57367 313.27814Q507.0893 313.825 505.9643 314.77814Q505.01117 315.575 504.72992 315.8719Q504.4643 316.15314 504.29242 316.4344L508.51117 316.4344ZM509.9643 313.21564Q509.9643 311.6844 510.2768 310.7625Q510.5893 309.825 511.19867 309.325Q511.82367 308.825 512.76117 308.825Q513.44867 308.825 513.9643 309.10626Q514.49554 309.3875 514.8393 309.91876Q515.18304 310.4344 515.37054 311.1844Q515.55804 311.9344 515.55804 313.21564Q515.55804 314.73126 515.24554 315.65314Q514.94867 316.575 514.32367 317.09064Q513.7143 317.59064 512.76117 317.59064Q511.5268 317.59064 510.80804 316.7Q509.9643 315.6375 509.9643 313.21564ZM511.04242 313.21564Q511.04242 315.325 511.54242 316.02814Q512.0424 316.73126 512.76117 316.73126Q513.49554 316.73126 513.9799 316.02814Q514.4799 315.325 514.4799 313.21564Q514.4799 311.09064 513.9799 310.40314Q513.49554 309.7 512.74554 309.7Q512.0268 309.7 511.5893 310.3094Q511.04242 311.09064 511.04242 313.21564Z" fill-rule="nonzero"/><path stroke="#4285f4" stroke-width="4.0" stroke-linecap="butt" d="M215.5 25.55L227.5 25.55" fill-rule="nonzero"/><path fill="#1a1a1a" d="M238.60938 29.55L238.60938 21.971874L235.78125 21.971874L235.78125 20.95625L242.59375 20.95625L242.59375 21.971874L239.75 21.971874L239.75 29.55L238.60938 29.55ZM243.28125 29.55L243.28125 23.33125L244.23438 23.33125L244.23438 24.26875Q244.59375 23.6125 244.89062 23.409374Q245.20312 23.190624 245.57812 23.190624Q246.10938 23.190624 246.65625 23.51875L246.29688 24.503124Q245.90625 24.26875 245.53125 24.26875Q245.17188 24.26875 244.89062 24.4875Q244.625 24.690624 244.51562 25.065624Q244.32812 25.628124 244.32812 26.284374L244.32812 29.55L243.28125 29.55ZM247.29688 22.175L247.29688 20.95625L248.35938 20.95625L248.35938 22.175L247.29688 22.175ZM247.29688 29.55L247.29688 23.33125L248.35938 23.33125L248.35938 29.55L247.29688 29.55ZM254.54688 27.55L255.64062 27.675Q255.39062 28.628124 254.6875 29.159374Q253.98438 29.690624 252.90625 29.690624Q251.54688 29.690624 250.73438 28.846874Q249.9375 28.003124 249.9375 26.4875Q249.9375 24.925 250.75 24.065624Q251.5625 23.190624 252.84375 23.190624Q254.09375 23.190624 254.875 24.034374Q255.67188 24.878124 255.67188 26.425Q255.67188 26.51875 255.67188 26.70625L251.03125 26.70625Q251.09375 27.7375 251.60938 28.284374Q252.125 28.815624 252.90625 28.815624Q253.48438 28.815624 253.89062 28.51875Q254.3125 28.20625 254.54688 27.55ZM251.09375 25.846874L254.5625 25.846874Q254.5 25.05 254.17188 24.659374Q253.65625 24.05 252.85938 24.05Q252.125 24.05 251.625 24.534374Q251.14062 25.01875 251.09375 25.846874ZM257.10938 29.690624L257.60938 27.20625L256.625 27.20625L256.625 26.33125L257.79688 26.33125L258.21875 24.20625L256.625 24.20625L256.625 23.33125L258.40625 23.33125L258.90625 20.815624L259.78125 20.815624L259.28125 23.33125L261.125 23.33125L261.64062 20.815624L262.51562 20.815624L262.01562 23.33125L263.01562 23.33125L263.01562 24.20625L261.82812 24.20625L261.39062 26.33125L263.01562 26.33125L263.01562 27.20625L261.21875 27.20625L260.70312 29.690624L259.82812 29.690624L260.32812 27.20625L258.5 27.20625L257.98438 29.690624L257.10938 29.690624ZM258.67188 26.33125L260.51562 26.33125L260.95312 24.20625L259.10938 24.20625L258.67188 26.33125ZM263.875 27.690624L264.90625 27.534374Q265.0 28.159374 265.39062 28.4875Q265.79688 28.815624 266.53125 28.815624Q267.25 28.815624 267.59375 28.534374Q267.95312 28.2375 267.95312 27.83125Q267.95312 27.471874 267.64062 27.26875Q267.42188 27.128124 266.5625 26.909374Q265.40625 26.6125 264.95312 26.409374Q264.51562 26.190624 264.28125 25.815624Q264.04688 25.440624 264.04688 24.971874Q264.04688 24.565624 264.23438 24.20625Q264.42188 23.846874 264.75 23.6125Q265.0 23.440624 265.42188 23.315624Q265.84375 23.190624 266.34375 23.190624Q267.0625 23.190624 267.60938 23.409374Q268.17188 23.6125 268.4375 23.971874Q268.70312 24.33125 268.79688 24.925L267.76562 25.065624Q267.70312 24.596874 267.35938 24.33125Q267.03125 24.05 266.40625 24.05Q265.6875 24.05 265.375 24.3Q265.0625 24.534374 265.0625 24.8625Q265.0625 25.065624 265.1875 25.221874Q265.32812 25.39375 265.59375 25.503124Q265.75 25.565624 266.53125 25.76875Q267.65625 26.08125 268.09375 26.26875Q268.53125 26.45625 268.78125 26.815624Q269.03125 27.175 269.03125 27.721874Q269.03125 28.253124 268.71875 28.721874Q268.42188 29.175 267.84375 29.440624Q267.26562 29.690624 266.53125 29.690624Q265.3125 29.690624 264.67188 29.190624Q264.04688 28.675 263.875 27.690624ZM275.54688 27.55L276.64062 27.675Q276.39062 28.628124 275.6875 29.159374Q274.98438 29.690624 273.90625 29.690624Q272.54688 29.690624 271.73438 28.846874Q270.9375 28.003124 270.9375 26.4875Q270.9375 24.925 271.75 24.065624Q272.5625 23.190624 273.84375 23.190624Q275.09375 23.190624 275.875 24.034374Q276.67188 24.878124 276.67188 26.425Q276.67188 26.51875 276.67188 26.70625L272.03125 26.70625Q272.09375 27.7375 272.60938 28.284374Q273.125 28.815624 273.90625 28.815624Q274.48438 28.815624 274.89062 28.51875Q275.3125 28.20625 275.54688 27.55ZM272.09375 25.846874L275.5625 25.846874Q275.5 25.05 275.17188 24.659374Q274.65625 24.05 273.85938 24.05Q273.125 24.05 272.625 24.534374Q272.14062 25.01875 272.09375 25.846874ZM282.35938 28.784374Q281.76562 29.284374 281.21875 29.4875Q280.6875 29.690624 280.0625 29.690624Q279.03125 29.690624 278.48438 29.190624Q277.9375 28.690624 277.9375 27.909374Q277.9375 27.45625 278.14062 27.08125Q278.34375 26.690624 278.6875 26.471874Q279.03125 26.2375 279.45312 26.128124Q279.75 26.034374 280.39062 25.95625Q281.65625 25.815624 282.26562 25.596874Q282.26562 25.378124 282.26562 25.33125Q282.26562 24.675 281.96875 24.409374Q281.5625 24.065624 280.76562 24.065624Q280.03125 24.065624 279.67188 24.33125Q279.3125 24.58125 279.14062 25.2375L278.10938 25.096874Q278.25 24.440624 278.57812 24.034374Q278.90625 23.628124 279.51562 23.409374Q280.125 23.190624 280.92188 23.190624Q281.71875 23.190624 282.21875 23.378124Q282.71875 23.565624 282.95312 23.846874Q283.1875 24.128124 283.28125 24.565624Q283.32812 24.83125 283.32812 25.534374L283.32812 26.940624Q283.32812 28.409374 283.39062 28.8Q283.46875 29.190624 283.67188 29.55L282.5625 29.55Q282.40625 29.221874 282.35938 28.784374ZM282.26562 26.425Q281.6875 26.659374 280.54688 26.83125Q279.89062 26.925 279.625 27.05Q279.35938 27.159374 279.20312 27.378124Q279.0625 27.596874 279.0625 27.878124Q279.0625 28.3 279.375 28.58125Q279.70312 28.8625 280.3125 28.8625Q280.92188 28.8625 281.39062 28.596874Q281.875 28.33125 282.09375 27.8625Q282.26562 27.503124 282.26562 26.815624L282.26562 26.425ZM285.28125 29.55L285.28125 23.33125L286.23438 23.33125L286.23438 24.26875Q286.59375 23.6125 286.89062 23.409374Q287.20312 23.190624 287.57812 23.190624Q288.10938 23.190624 288.65625 23.51875L288.29688 24.503124Q287.90625 24.26875 287.53125 24.26875Q287.17188 24.26875 286.89062 24.4875Q286.625 24.690624 286.51562 25.065624Q286.32812 25.628124 286.32812 26.284374L286.32812 29.55L285.28125 29.55ZM293.35938 27.26875L294.39062 27.409374Q294.21875 28.471874 293.51562 29.08125Q292.8125 29.690624 291.79688 29.690624Q290.51562 29.690624 289.73438 28.8625Q288.96875 28.01875 288.96875 26.45625Q288.96875 25.45625 289.29688 24.70625Q289.64062 23.940624 290.3125 23.565624Q291.0 23.190624 291.8125 23.190624Q292.8125 23.190624 293.45312 23.70625Q294.10938 24.20625 294.29688 25.159374L293.26562 25.315624Q293.125 24.690624 292.75 24.378124Q292.375 24.05 291.84375 24.05Q291.04688 24.05 290.54688 24.628124Q290.04688 25.190624 290.04688 26.425Q290.04688 27.690624 290.53125 28.253124Q291.01562 28.815624 291.78125 28.815624Q292.40625 28.815624 292.8125 28.440624Q293.23438 28.065624 293.35938 27.26875ZM295.29688 29.55L295.29688 20.95625L296.34375 20.95625L296.34375 24.034374Q297.07812 23.190624 298.20312 23.190624Q298.90625 23.190624 299.40625 23.471874Q299.92188 23.7375 300.14062 24.221874Q300.35938 24.690624 300.35938 25.6125L300.35938 29.55L299.3125 29.55L299.3125 25.6125Q299.3125 24.815624 298.96875 24.45625Q298.625 24.096874 298.0 24.096874Q297.53125 24.096874 297.10938 24.346874Q296.70312 24.58125 296.51562 25.003124Q296.34375 25.409374 296.34375 26.14375L296.34375 29.55L295.29688 29.55Z" fill-rule="nonzero"/><path stroke="#ea4335" stroke-width="4.0" stroke-linecap="butt" d="M317.5 25.55L329.5 25.55" fill-rule="nonzero"/><path fill="#1a1a1a" d="M338.39062 29.55L338.39062 20.95625L340.10938 20.95625L342.14062 27.034374Q342.42188 27.89375 342.54688 28.315624Q342.6875 27.846874 343.0 26.940624L345.0625 20.95625L346.59375 20.95625L346.59375 29.55L345.5 29.55L345.5 22.3625L343.0 29.55L341.96875 29.55L339.48438 22.2375L339.48438 29.55L338.39062 29.55ZM351.35938 28.784374Q350.76562 29.284374 350.21875 29.4875Q349.6875 29.690624 349.0625 29.690624Q348.03125 29.690624 347.48438 29.190624Q346.9375 28.690624 346.9375 27.909374Q346.9375 27.45625 347.14062 27.08125Q347.34375 26.690624 347.6875 26.471874Q348.03125 26.2375 348.45312 26.128124Q348.75 26.034374 349.39062 25.95625Q350.65625 25.815624 351.26562 25.596874Q351.26562 25.378124 351.26562 25.33125Q351.26562 24.675 350.96875 24.409374Q350.5625 24.065624 349.76562 24.065624Q349.03125 24.065624 348.67188 24.33125Q348.3125 24.58125 348.14062 25.2375L347.10938 25.096874Q347.25 24.440624 347.57812 24.034374Q347.90625 23.628124 348.51562 23.409374Q349.125 23.190624 349.92188 23.190624Q350.71875 23.190624 351.21875 23.378124Q351.71875 23.565624 351.95312 23.846874Q352.1875 24.128124 352.28125 24.565624Q352.32812 24.83125 352.32812 25.534374L352.32812 26.940624Q352.32812 28.409374 352.39062 28.8Q352.46875 29.190624 352.67188 29.55L351.5625 29.55Q351.40625 29.221874 351.35938 28.784374ZM351.26562 26.425Q350.6875 26.659374 349.54688 26.83125Q348.89062 26.925 348.625 27.05Q348.35938 27.159374 348.20312 27.378124Q348.0625 27.596874 348.0625 27.878124Q348.0625 28.3 348.375 28.58125Q348.70312 28.8625 349.3125 28.8625Q349.92188 28.8625 350.39062 28.596874Q350.875 28.33125 351.09375 27.8625Q351.26562 27.503124 351.26562 26.815624L351.26562 26.425ZM354.29688 31.940624L354.29688 23.33125L355.25 23.33125L355.25 24.128124Q355.59375 23.659374 356.01562 23.425Q356.45312 23.190624 357.0625 23.190624Q357.85938 23.190624 358.46875 23.596874Q359.07812 24.003124 359.375 24.753124Q359.6875 25.503124 359.6875 26.39375Q359.6875 27.346874 359.34375 28.1125Q359.01562 28.878124 358.35938 29.284374Q357.70312 29.690624 356.98438 29.690624Q356.45312 29.690624 356.03125 29.471874Q355.60938 29.2375 355.34375 28.909374L355.34375 31.940624L354.29688 31.940624ZM355.25 26.471874Q355.25 27.675 355.73438 28.253124Q356.21875 28.815624 356.90625 28.815624Q357.60938 28.815624 358.10938 28.221874Q358.60938 27.628124 358.60938 26.378124Q358.60938 25.190624 358.125 24.6125Q357.64062 24.01875 356.95312 24.01875Q356.28125 24.01875 355.76562 24.64375Q355.25 25.26875 355.25 26.471874ZM361.10938 29.690624L361.60938 27.20625L360.625 27.20625L360.625 26.33125L361.79688 26.33125L362.21875 24.20625L360.625 24.20625L360.625 23.33125L362.40625 23.33125L362.90625 20.815624L363.78125 20.815624L363.28125 23.33125L365.125 23.33125L365.64062 20.815624L366.51562 20.815624L366.01562 23.33125L367.01562 23.33125L367.01562 24.20625L365.82812 24.20625L365.39062 26.33125L367.01562 26.33125L367.01562 27.20625L365.21875 27.20625L364.70312 29.690624L363.82812 29.690624L364.32812 27.20625L362.5 27.20625L361.98438 29.690624L361.10938 29.690624ZM362.67188 26.33125L364.51562 26.33125L364.95312 24.20625L363.10938 24.20625L362.67188 26.33125ZM368.09375 30.065624L369.125 30.221874Q369.1875 30.690624 369.48438 30.909374Q369.875 31.20625 370.54688 31.20625Q371.28125 31.20625 371.67188 30.909374Q372.07812 30.6125 372.21875 30.096874Q372.3125 29.76875 372.29688 28.7375Q371.60938 29.55 370.57812 29.55Q369.29688 29.55 368.59375 28.628124Q367.89062 27.690624 367.89062 26.409374Q367.89062 25.51875 368.20312 24.76875Q368.53125 24.003124 369.14062 23.596874Q369.75 23.190624 370.57812 23.190624Q371.6875 23.190624 372.40625 24.08125L372.40625 23.33125L373.375 23.33125L373.375 28.70625Q373.375 30.159374 373.07812 30.76875Q372.78125 31.378124 372.14062 31.721874Q371.5 32.08125 370.5625 32.08125Q369.45312 32.08125 368.76562 31.58125Q368.07812 31.08125 368.09375 30.065624ZM368.96875 26.33125Q368.96875 27.55 369.45312 28.1125Q369.9375 28.675 370.67188 28.675Q371.40625 28.675 371.89062 28.1125Q372.39062 27.55 372.39062 26.3625Q372.39062 25.221874 371.875 24.64375Q371.375 24.065624 370.65625 24.065624Q369.95312 24.065624 369.45312 24.64375Q368.96875 25.20625 368.96875 26.33125ZM379.54688 27.55L380.64062 27.675Q380.39062 28.628124 379.6875 29.159374Q378.98438 29.690624 377.90625 29.690624Q376.54688 29.690624 375.73438 28.846874Q374.9375 28.003124 374.9375 26.4875Q374.9375 24.925 375.75 24.065624Q376.5625 23.190624 377.84375 23.190624Q379.09375 23.190624 379.875 24.034374Q380.67188 24.878124 380.67188 26.425Q380.67188 26.51875 380.67188 26.70625L376.03125 26.70625Q376.09375 27.7375 376.60938 28.284374Q377.125 28.815624 377.90625 28.815624Q378.48438 28.815624 378.89062 28.51875Q379.3125 28.20625 379.54688 27.55ZM376.09375 25.846874L379.5625 25.846874Q379.5 25.05 379.17188 24.659374Q378.65625 24.05 377.85938 24.05Q377.125 24.05 376.625 24.534374Q376.14062 25.01875 376.09375 25.846874ZM384.59375 28.6125L384.75 29.534374Q384.29688 29.628124 383.95312 29.628124Q383.375 29.628124 383.0625 29.45625Q382.75 29.26875 382.60938 28.971874Q382.48438 28.675 382.48438 27.721874L382.48438 24.14375L381.71875 24.14375L381.71875 23.33125L382.48438 23.33125L382.48438 21.784374L383.53125 21.159374L383.53125 23.33125L384.59375 23.33125L384.59375 24.14375L383.53125 24.14375L383.53125 27.784374Q383.53125 28.2375 383.57812 28.3625Q383.64062 28.4875 383.76562 28.565624Q383.89062 28.64375 384.125 28.64375Q384.3125 28.64375 384.59375 28.6125Z" fill-rule="nonzero"/></svg>