<svg width="735" height="496" viewBox="0 0 735 496" fill="none" xmlns="http://www.w3.org/2000/svg">
<rect width="735" height="496" rx="5" fill="white"/>
<path d="M345.106 458.241H347.193L350.284 467.337L353.353 458.241H355.418V469H354.034V462.65C354.034 462.43 354.039 462.066 354.049 461.559C354.059 461.051 354.063 460.506 354.063 459.925L350.995 469H349.552L346.461 459.925V460.255C346.461 460.519 346.466 460.921 346.476 461.463C346.49 462 346.498 462.396 346.498 462.65V469H345.106V458.241ZM357.462 461.192H358.802V469H357.462V461.192ZM357.462 458.241H358.802V459.735H357.462V458.241ZM360.838 458.241H362.157V469H360.838V458.241ZM364.178 458.241H365.497V469H364.178V458.241ZM367.481 461.192H368.822V469H367.481V461.192ZM367.481 458.241H368.822V459.735H367.481V458.241ZM373.934 468.15C374.808 468.15 375.406 467.821 375.729 467.162C376.056 466.498 376.219 465.76 376.219 464.95C376.219 464.217 376.102 463.622 375.868 463.163C375.497 462.44 374.857 462.079 373.949 462.079C373.143 462.079 372.557 462.386 372.191 463.001C371.825 463.617 371.642 464.359 371.642 465.228C371.642 466.063 371.825 466.759 372.191 467.315C372.557 467.872 373.138 468.15 373.934 468.15ZM373.985 460.929C374.996 460.929 375.851 461.266 376.549 461.939C377.247 462.613 377.596 463.604 377.596 464.913C377.596 466.178 377.289 467.223 376.673 468.048C376.058 468.873 375.104 469.286 373.81 469.286C372.73 469.286 371.874 468.922 371.239 468.194C370.604 467.462 370.287 466.48 370.287 465.25C370.287 463.932 370.621 462.882 371.29 462.101C371.959 461.319 372.857 460.929 373.985 460.929ZM379.171 461.156H380.423V462.269C380.794 461.81 381.188 461.48 381.603 461.28C382.018 461.08 382.479 460.98 382.987 460.98C384.1 460.98 384.852 461.368 385.243 462.145C385.458 462.569 385.565 463.177 385.565 463.968V469H384.225V464.056C384.225 463.578 384.154 463.192 384.012 462.899C383.778 462.411 383.353 462.167 382.738 462.167C382.425 462.167 382.169 462.198 381.969 462.262C381.607 462.369 381.29 462.584 381.017 462.906C380.797 463.165 380.653 463.434 380.584 463.712C380.521 463.985 380.489 464.378 380.489 464.891V469H379.171V461.156ZM388.304 466.539C388.343 466.979 388.453 467.315 388.634 467.55C388.966 467.975 389.542 468.187 390.362 468.187C390.851 468.187 391.28 468.082 391.651 467.872C392.022 467.657 392.208 467.328 392.208 466.883C392.208 466.546 392.059 466.29 391.761 466.114C391.571 466.007 391.195 465.882 390.633 465.741L389.586 465.477C388.917 465.311 388.424 465.125 388.106 464.92C387.54 464.564 387.257 464.071 387.257 463.441C387.257 462.699 387.523 462.098 388.055 461.639C388.592 461.18 389.312 460.951 390.216 460.951C391.397 460.951 392.25 461.297 392.772 461.991C393.099 462.43 393.258 462.904 393.248 463.412H392.003C391.979 463.114 391.874 462.843 391.688 462.599C391.385 462.252 390.86 462.079 390.113 462.079C389.615 462.079 389.237 462.174 388.978 462.364C388.724 462.555 388.597 462.806 388.597 463.119C388.597 463.46 388.766 463.734 389.103 463.939C389.298 464.061 389.586 464.168 389.967 464.261L390.838 464.474C391.786 464.703 392.42 464.925 392.743 465.14C393.255 465.477 393.512 466.007 393.512 466.729C393.512 467.428 393.246 468.031 392.713 468.539C392.186 469.046 391.38 469.3 390.296 469.3C389.129 469.3 388.302 469.037 387.813 468.509C387.33 467.977 387.071 467.32 387.037 466.539H388.304ZM402.308 468.15C403.182 468.15 403.78 467.821 404.103 467.162C404.43 466.498 404.593 465.76 404.593 464.95C404.593 464.217 404.476 463.622 404.242 463.163C403.871 462.44 403.231 462.079 402.323 462.079C401.517 462.079 400.931 462.386 400.565 463.001C400.199 463.617 400.016 464.359 400.016 465.228C400.016 466.063 400.199 466.759 400.565 467.315C400.931 467.872 401.512 468.15 402.308 468.15ZM402.359 460.929C403.37 460.929 404.225 461.266 404.923 461.939C405.621 462.613 405.97 463.604 405.97 464.913C405.97 466.178 405.663 467.223 405.047 468.048C404.432 468.873 403.478 469.286 402.184 469.286C401.104 469.286 400.248 468.922 399.613 468.194C398.978 467.462 398.661 466.48 398.661 465.25C398.661 463.932 398.995 462.882 399.664 462.101C400.333 461.319 401.231 460.929 402.359 460.929ZM407.875 459.962C407.894 459.415 407.989 459.015 408.16 458.761C408.468 458.312 409.061 458.087 409.94 458.087C410.023 458.087 410.108 458.089 410.196 458.094C410.284 458.099 410.384 458.106 410.497 458.116V459.317C410.36 459.308 410.26 459.303 410.196 459.303C410.138 459.298 410.082 459.295 410.028 459.295C409.627 459.295 409.388 459.4 409.31 459.61C409.232 459.815 409.193 460.343 409.193 461.192H410.497V462.232H409.178V469H407.875V462.232H406.783V461.192H407.875V459.962ZM419.007 468.15C419.881 468.15 420.479 467.821 420.802 467.162C421.129 466.498 421.292 465.76 421.292 464.95C421.292 464.217 421.175 463.622 420.941 463.163C420.57 462.44 419.93 462.079 419.022 462.079C418.216 462.079 417.63 462.386 417.264 463.001C416.898 463.617 416.715 464.359 416.715 465.228C416.715 466.063 416.898 466.759 417.264 467.315C417.63 467.872 418.211 468.15 419.007 468.15ZM419.059 460.929C420.069 460.929 420.924 461.266 421.622 461.939C422.32 462.613 422.669 463.604 422.669 464.913C422.669 466.178 422.362 467.223 421.747 468.048C421.131 468.873 420.177 469.286 418.883 469.286C417.804 469.286 416.947 468.922 416.312 468.194C415.677 467.462 415.36 466.48 415.36 465.25C415.36 463.932 415.694 462.882 416.363 462.101C417.032 461.319 417.931 460.929 419.059 460.929ZM427.555 468.114C428.17 468.114 428.68 467.857 429.085 467.345C429.496 466.827 429.701 466.056 429.701 465.03C429.701 464.405 429.61 463.868 429.43 463.419C429.088 462.555 428.463 462.123 427.555 462.123C426.642 462.123 426.017 462.579 425.68 463.492C425.499 463.98 425.409 464.601 425.409 465.353C425.409 465.958 425.499 466.473 425.68 466.898C426.021 467.708 426.646 468.114 427.555 468.114ZM424.142 461.192H425.423V462.232C425.687 461.876 425.975 461.6 426.288 461.405C426.732 461.112 427.254 460.965 427.855 460.965C428.744 460.965 429.498 461.307 430.118 461.991C430.738 462.669 431.048 463.641 431.048 464.906C431.048 466.615 430.602 467.835 429.708 468.568C429.142 469.032 428.482 469.264 427.73 469.264C427.14 469.264 426.644 469.134 426.244 468.875C426.009 468.729 425.748 468.478 425.46 468.121V472.127H424.142V461.192ZM435.86 460.98C436.417 460.98 436.957 461.112 437.479 461.375C438.001 461.634 438.399 461.971 438.673 462.386C438.937 462.782 439.112 463.243 439.2 463.771C439.278 464.132 439.317 464.708 439.317 465.499H433.568C433.592 466.295 433.78 466.935 434.132 467.418C434.483 467.896 435.028 468.136 435.765 468.136C436.454 468.136 437.003 467.909 437.413 467.455C437.647 467.191 437.813 466.886 437.911 466.539H439.208C439.173 466.827 439.059 467.149 438.863 467.506C438.673 467.857 438.458 468.146 438.219 468.37C437.818 468.761 437.323 469.024 436.732 469.161C436.415 469.239 436.056 469.278 435.655 469.278C434.679 469.278 433.851 468.924 433.172 468.216C432.494 467.503 432.154 466.507 432.154 465.228C432.154 463.968 432.496 462.945 433.18 462.159C433.863 461.373 434.757 460.98 435.86 460.98ZM437.962 464.452C437.909 463.88 437.784 463.424 437.589 463.082C437.228 462.447 436.625 462.13 435.78 462.13C435.174 462.13 434.667 462.35 434.256 462.789C433.846 463.224 433.629 463.778 433.604 464.452H437.962ZM440.98 461.156H442.232V462.511C442.335 462.247 442.586 461.927 442.987 461.551C443.387 461.17 443.849 460.98 444.371 460.98C444.396 460.98 444.437 460.982 444.496 460.987C444.554 460.992 444.654 461.002 444.796 461.017V462.408C444.718 462.394 444.645 462.384 444.576 462.379C444.513 462.374 444.442 462.372 444.364 462.372C443.7 462.372 443.189 462.586 442.833 463.016C442.477 463.441 442.298 463.932 442.298 464.488V469H440.98V461.156ZM446.949 466.913C446.949 467.293 447.088 467.594 447.367 467.813C447.645 468.033 447.975 468.143 448.355 468.143C448.819 468.143 449.269 468.036 449.703 467.821C450.436 467.464 450.802 466.881 450.802 466.07V465.008C450.641 465.111 450.433 465.196 450.179 465.265C449.925 465.333 449.676 465.382 449.432 465.411L448.634 465.514C448.155 465.577 447.796 465.677 447.557 465.814C447.152 466.043 446.949 466.41 446.949 466.913ZM450.143 464.247C450.445 464.208 450.648 464.081 450.75 463.866C450.809 463.749 450.838 463.58 450.838 463.36C450.838 462.911 450.677 462.586 450.355 462.386C450.038 462.181 449.581 462.079 448.985 462.079C448.297 462.079 447.809 462.264 447.521 462.635C447.359 462.84 447.254 463.146 447.206 463.551H445.975C446 462.584 446.312 461.913 446.913 461.537C447.518 461.156 448.219 460.965 449.015 460.965C449.938 460.965 450.687 461.141 451.263 461.493C451.834 461.844 452.12 462.391 452.12 463.133V467.652C452.12 467.789 452.147 467.899 452.201 467.982C452.259 468.065 452.379 468.106 452.56 468.106C452.618 468.106 452.684 468.104 452.757 468.099C452.831 468.089 452.909 468.077 452.992 468.062V469.037C452.787 469.095 452.63 469.132 452.523 469.146C452.416 469.161 452.269 469.168 452.083 469.168C451.629 469.168 451.3 469.007 451.095 468.685C450.987 468.514 450.912 468.272 450.868 467.96C450.599 468.312 450.213 468.617 449.71 468.875C449.208 469.134 448.653 469.264 448.048 469.264C447.32 469.264 446.725 469.044 446.261 468.604C445.802 468.16 445.572 467.606 445.572 466.942C445.572 466.214 445.799 465.65 446.253 465.25C446.708 464.85 447.303 464.603 448.041 464.51L450.143 464.247ZM454.552 458.966H455.885V461.156H457.137V462.232H455.885V467.352C455.885 467.625 455.978 467.809 456.163 467.901C456.266 467.955 456.437 467.982 456.676 467.982C456.739 467.982 456.808 467.982 456.881 467.982C456.954 467.977 457.04 467.97 457.137 467.96V469C456.986 469.044 456.827 469.076 456.661 469.095C456.5 469.115 456.324 469.125 456.134 469.125C455.519 469.125 455.101 468.968 454.881 468.656C454.662 468.338 454.552 467.928 454.552 467.425V462.232H453.49V461.156H454.552V458.966ZM458.463 461.192H459.803V469H458.463V461.192ZM458.463 458.241H459.803V459.735H458.463V458.241ZM464.916 468.15C465.79 468.15 466.388 467.821 466.71 467.162C467.037 466.498 467.201 465.76 467.201 464.95C467.201 464.217 467.083 463.622 466.849 463.163C466.478 462.44 465.838 462.079 464.93 462.079C464.125 462.079 463.539 462.386 463.172 463.001C462.806 463.617 462.623 464.359 462.623 465.228C462.623 466.063 462.806 466.759 463.172 467.315C463.539 467.872 464.12 468.15 464.916 468.15ZM464.967 460.929C465.978 460.929 466.832 461.266 467.53 461.939C468.229 462.613 468.578 463.604 468.578 464.913C468.578 466.178 468.27 467.223 467.655 468.048C467.04 468.873 466.085 469.286 464.791 469.286C463.712 469.286 462.855 468.922 462.22 468.194C461.585 467.462 461.268 466.48 461.268 465.25C461.268 463.932 461.603 462.882 462.271 462.101C462.94 461.319 463.839 460.929 464.967 460.929ZM470.152 461.156H471.405V462.269C471.776 461.81 472.169 461.48 472.584 461.28C472.999 461.08 473.46 460.98 473.968 460.98C475.082 460.98 475.833 461.368 476.224 462.145C476.439 462.569 476.546 463.177 476.546 463.968V469H475.206V464.056C475.206 463.578 475.135 463.192 474.994 462.899C474.759 462.411 474.334 462.167 473.719 462.167C473.407 462.167 473.15 462.198 472.95 462.262C472.589 462.369 472.271 462.584 471.998 462.906C471.778 463.165 471.634 463.434 471.566 463.712C471.502 463.985 471.471 464.378 471.471 464.891V469H470.152V461.156ZM479.286 466.539C479.325 466.979 479.435 467.315 479.615 467.55C479.947 467.975 480.523 468.187 481.344 468.187C481.832 468.187 482.262 468.082 482.633 467.872C483.004 467.657 483.189 467.328 483.189 466.883C483.189 466.546 483.041 466.29 482.743 466.114C482.552 466.007 482.176 465.882 481.615 465.741L480.567 465.477C479.898 465.311 479.405 465.125 479.088 464.92C478.521 464.564 478.238 464.071 478.238 463.441C478.238 462.699 478.504 462.098 479.037 461.639C479.574 461.18 480.294 460.951 481.197 460.951C482.379 460.951 483.231 461.297 483.753 461.991C484.081 462.43 484.239 462.904 484.229 463.412H482.984C482.96 463.114 482.855 462.843 482.669 462.599C482.367 462.252 481.842 462.079 481.095 462.079C480.597 462.079 480.218 462.174 479.959 462.364C479.706 462.555 479.579 462.806 479.579 463.119C479.579 463.46 479.747 463.734 480.084 463.939C480.279 464.061 480.567 464.168 480.948 464.261L481.82 464.474C482.767 464.703 483.402 464.925 483.724 465.14C484.237 465.477 484.493 466.007 484.493 466.729C484.493 467.428 484.227 468.031 483.695 468.539C483.167 469.046 482.362 469.3 481.278 469.3C480.111 469.3 479.283 469.037 478.795 468.509C478.312 467.977 478.053 467.32 478.019 466.539H479.286ZM493.487 468.114C494.103 468.114 494.613 467.857 495.018 467.345C495.428 466.827 495.633 466.056 495.633 465.03C495.633 464.405 495.543 463.868 495.362 463.419C495.021 462.555 494.396 462.123 493.487 462.123C492.574 462.123 491.949 462.579 491.612 463.492C491.432 463.98 491.341 464.601 491.341 465.353C491.341 465.958 491.432 466.473 491.612 466.898C491.954 467.708 492.579 468.114 493.487 468.114ZM490.074 461.192H491.356V462.232C491.62 461.876 491.908 461.6 492.22 461.405C492.665 461.112 493.187 460.965 493.788 460.965C494.676 460.965 495.431 461.307 496.051 461.991C496.671 462.669 496.981 463.641 496.981 464.906C496.981 466.615 496.534 467.835 495.641 468.568C495.074 469.032 494.415 469.264 493.663 469.264C493.072 469.264 492.577 469.134 492.176 468.875C491.942 468.729 491.681 468.478 491.393 468.121V472.127H490.074V461.192ZM501.793 460.98C502.35 460.98 502.889 461.112 503.412 461.375C503.934 461.634 504.332 461.971 504.605 462.386C504.869 462.782 505.045 463.243 505.133 463.771C505.211 464.132 505.25 464.708 505.25 465.499H499.5C499.525 466.295 499.713 466.935 500.064 467.418C500.416 467.896 500.96 468.136 501.698 468.136C502.386 468.136 502.936 467.909 503.346 467.455C503.58 467.191 503.746 466.886 503.844 466.539H505.14C505.106 466.827 504.991 467.149 504.796 467.506C504.605 467.857 504.391 468.146 504.151 468.37C503.751 468.761 503.255 469.024 502.665 469.161C502.347 469.239 501.988 469.278 501.588 469.278C500.611 469.278 499.784 468.924 499.105 468.216C498.426 467.503 498.087 466.507 498.087 465.228C498.087 463.968 498.429 462.945 499.112 462.159C499.796 461.373 500.689 460.98 501.793 460.98ZM503.895 464.452C503.841 463.88 503.717 463.424 503.521 463.082C503.16 462.447 502.557 462.13 501.712 462.13C501.107 462.13 500.599 462.35 500.189 462.789C499.779 463.224 499.562 463.778 499.537 464.452H503.895ZM506.913 461.156H508.165V462.511C508.268 462.247 508.519 461.927 508.919 461.551C509.32 461.17 509.781 460.98 510.304 460.98C510.328 460.98 510.37 460.982 510.428 460.987C510.487 460.992 510.587 461.002 510.729 461.017V462.408C510.65 462.394 510.577 462.384 510.509 462.379C510.445 462.374 510.375 462.372 510.296 462.372C509.632 462.372 509.122 462.586 508.766 463.016C508.409 463.441 508.231 463.932 508.231 464.488V469H506.913V461.156ZM516.83 466.539C516.869 466.979 516.979 467.315 517.159 467.55C517.491 467.975 518.067 468.187 518.888 468.187C519.376 468.187 519.806 468.082 520.177 467.872C520.548 467.657 520.733 467.328 520.733 466.883C520.733 466.546 520.584 466.29 520.287 466.114C520.096 466.007 519.72 465.882 519.159 465.741L518.111 465.477C517.442 465.311 516.949 465.125 516.632 464.92C516.065 464.564 515.782 464.071 515.782 463.441C515.782 462.699 516.048 462.098 516.581 461.639C517.118 461.18 517.838 460.951 518.741 460.951C519.923 460.951 520.775 461.297 521.297 461.991C521.625 462.43 521.783 462.904 521.773 463.412H520.528C520.504 463.114 520.399 462.843 520.213 462.599C519.911 462.252 519.386 462.079 518.639 462.079C518.141 462.079 517.762 462.174 517.503 462.364C517.25 462.555 517.123 462.806 517.123 463.119C517.123 463.46 517.291 463.734 517.628 463.939C517.823 464.061 518.111 464.168 518.492 464.261L519.364 464.474C520.311 464.703 520.946 464.925 521.268 465.14C521.781 465.477 522.037 466.007 522.037 466.729C522.037 467.428 521.771 468.031 521.239 468.539C520.711 469.046 519.906 469.3 518.822 469.3C517.655 469.3 516.827 469.037 516.339 468.509C515.855 467.977 515.597 467.32 515.562 466.539H516.83ZM526.812 460.98C527.369 460.98 527.909 461.112 528.431 461.375C528.954 461.634 529.352 461.971 529.625 462.386C529.889 462.782 530.064 463.243 530.152 463.771C530.23 464.132 530.27 464.708 530.27 465.499H524.52C524.544 466.295 524.732 466.935 525.084 467.418C525.436 467.896 525.98 468.136 526.717 468.136C527.406 468.136 527.955 467.909 528.365 467.455C528.6 467.191 528.766 466.886 528.863 466.539H530.16C530.125 466.827 530.011 467.149 529.815 467.506C529.625 467.857 529.41 468.146 529.171 468.37C528.771 468.761 528.275 469.024 527.684 469.161C527.367 469.239 527.008 469.278 526.607 469.278C525.631 469.278 524.803 468.924 524.125 468.216C523.446 467.503 523.106 466.507 523.106 465.228C523.106 463.968 523.448 462.945 524.132 462.159C524.815 461.373 525.709 460.98 526.812 460.98ZM528.915 464.452C528.861 463.88 528.736 463.424 528.541 463.082C528.18 462.447 527.577 462.13 526.732 462.13C526.126 462.13 525.619 462.35 525.208 462.789C524.798 463.224 524.581 463.778 524.557 464.452H528.915ZM534.92 460.929C535.804 460.929 536.522 461.144 537.074 461.573C537.63 462.003 537.965 462.743 538.077 463.792H536.795C536.717 463.309 536.539 462.909 536.261 462.591C535.982 462.269 535.536 462.108 534.92 462.108C534.081 462.108 533.48 462.518 533.119 463.338C532.884 463.871 532.767 464.527 532.767 465.309C532.767 466.095 532.933 466.756 533.265 467.293C533.597 467.831 534.12 468.099 534.833 468.099C535.379 468.099 535.812 467.933 536.129 467.601C536.451 467.264 536.673 466.805 536.795 466.224H538.077C537.931 467.264 537.564 468.026 536.979 468.509C536.393 468.988 535.643 469.227 534.73 469.227C533.705 469.227 532.887 468.854 532.276 468.106C531.666 467.354 531.361 466.417 531.361 465.294C531.361 463.917 531.695 462.845 532.364 462.079C533.033 461.312 533.885 460.929 534.92 460.929ZM542.508 468.15C543.382 468.15 543.98 467.821 544.303 467.162C544.63 466.498 544.793 465.76 544.793 464.95C544.793 464.217 544.676 463.622 544.442 463.163C544.071 462.44 543.431 462.079 542.523 462.079C541.717 462.079 541.131 462.386 540.765 463.001C540.399 463.617 540.216 464.359 540.216 465.228C540.216 466.063 540.399 466.759 540.765 467.315C541.131 467.872 541.712 468.15 542.508 468.15ZM542.56 460.929C543.57 460.929 544.425 461.266 545.123 461.939C545.821 462.613 546.17 463.604 546.17 464.913C546.17 466.178 545.863 467.223 545.248 468.048C544.632 468.873 543.678 469.286 542.384 469.286C541.305 469.286 540.448 468.922 539.813 468.194C539.178 467.462 538.861 466.48 538.861 465.25C538.861 463.932 539.195 462.882 539.864 462.101C540.533 461.319 541.432 460.929 542.56 460.929ZM547.745 461.156H548.998V462.269C549.369 461.81 549.762 461.48 550.177 461.28C550.592 461.08 551.053 460.98 551.561 460.98C552.674 460.98 553.426 461.368 553.817 462.145C554.032 462.569 554.139 463.177 554.139 463.968V469H552.799V464.056C552.799 463.578 552.728 463.192 552.586 462.899C552.352 462.411 551.927 462.167 551.312 462.167C551 462.167 550.743 462.198 550.543 462.262C550.182 462.369 549.864 462.584 549.591 462.906C549.371 463.165 549.227 463.434 549.159 463.712C549.095 463.985 549.063 464.378 549.063 464.891V469H547.745V461.156ZM556.93 465.169C556.93 466.009 557.108 466.712 557.464 467.279C557.821 467.845 558.392 468.128 559.178 468.128C559.789 468.128 560.289 467.867 560.68 467.345C561.075 466.817 561.273 466.063 561.273 465.082C561.273 464.09 561.07 463.358 560.665 462.884C560.26 462.406 559.759 462.167 559.164 462.167C558.5 462.167 557.96 462.42 557.545 462.928C557.135 463.436 556.93 464.183 556.93 465.169ZM558.915 461.017C559.515 461.017 560.018 461.144 560.423 461.397C560.658 461.544 560.924 461.8 561.222 462.167V458.204H562.489V469H561.302V467.909C560.995 468.392 560.631 468.741 560.211 468.956C559.791 469.171 559.31 469.278 558.768 469.278C557.894 469.278 557.137 468.912 556.498 468.18C555.858 467.442 555.538 466.463 555.538 465.243C555.538 464.1 555.829 463.111 556.41 462.276C556.996 461.437 557.831 461.017 558.915 461.017Z" fill="black"/>
<path d="M216.246 431.609C217.332 431.609 218.117 432.057 218.602 432.951C218.977 433.643 219.164 434.59 219.164 435.793C219.164 436.934 218.994 437.877 218.654 438.623C218.162 439.693 217.357 440.229 216.24 440.229C215.232 440.229 214.482 439.791 213.99 438.916C213.58 438.186 213.375 437.205 213.375 435.975C213.375 435.021 213.498 434.203 213.744 433.52C214.205 432.246 215.039 431.609 216.246 431.609ZM216.234 439.268C216.781 439.268 217.217 439.025 217.541 438.541C217.865 438.057 218.027 437.154 218.027 435.834C218.027 434.881 217.91 434.098 217.676 433.484C217.441 432.867 216.986 432.559 216.311 432.559C215.689 432.559 215.234 432.852 214.945 433.438C214.66 434.02 214.518 434.879 214.518 436.016C214.518 436.871 214.609 437.559 214.793 438.078C215.074 438.871 215.555 439.268 216.234 439.268Z" fill="black"/>
<path d="M333.482 437.861C333.553 438.463 333.832 438.879 334.32 439.109C334.57 439.227 334.859 439.285 335.188 439.285C335.812 439.285 336.275 439.086 336.576 438.688C336.877 438.289 337.027 437.848 337.027 437.363C337.027 436.777 336.848 436.324 336.488 436.004C336.133 435.684 335.705 435.523 335.205 435.523C334.842 435.523 334.529 435.594 334.268 435.734C334.01 435.875 333.789 436.07 333.605 436.32L332.691 436.268L333.33 431.75H337.689V432.77H334.121L333.764 435.102C333.959 434.953 334.145 434.842 334.32 434.768C334.633 434.639 334.994 434.574 335.404 434.574C336.174 434.574 336.826 434.822 337.361 435.318C337.896 435.814 338.164 436.443 338.164 437.205C338.164 437.998 337.918 438.697 337.426 439.303C336.938 439.908 336.156 440.211 335.082 440.211C334.398 440.211 333.793 440.02 333.266 439.637C332.742 439.25 332.449 438.658 332.387 437.861H333.482Z" fill="black"/>
<path d="M448.148 434.059V433.25C448.91 433.176 449.441 433.053 449.742 432.881C450.043 432.705 450.268 432.293 450.416 431.645H451.248V440H450.123V434.059H448.148ZM456.926 431.609C458.012 431.609 458.797 432.057 459.281 432.951C459.656 433.643 459.844 434.59 459.844 435.793C459.844 436.934 459.674 437.877 459.334 438.623C458.842 439.693 458.037 440.229 456.92 440.229C455.912 440.229 455.162 439.791 454.67 438.916C454.26 438.186 454.055 437.205 454.055 435.975C454.055 435.021 454.178 434.203 454.424 433.52C454.885 432.246 455.719 431.609 456.926 431.609ZM456.914 439.268C457.461 439.268 457.896 439.025 458.221 438.541C458.545 438.057 458.707 437.154 458.707 435.834C458.707 434.881 458.59 434.098 458.355 433.484C458.121 432.867 457.666 432.559 456.99 432.559C456.369 432.559 455.914 432.852 455.625 433.438C455.34 434.02 455.197 434.879 455.197 436.016C455.197 436.871 455.289 437.559 455.473 438.078C455.754 438.871 456.234 439.268 456.914 439.268Z" fill="black"/>
<path d="M567.148 434.059V433.25C567.91 433.176 568.441 433.053 568.742 432.881C569.043 432.705 569.268 432.293 569.416 431.645H570.248V440H569.123V434.059H567.148ZM574.162 437.861C574.232 438.463 574.512 438.879 575 439.109C575.25 439.227 575.539 439.285 575.867 439.285C576.492 439.285 576.955 439.086 577.256 438.688C577.557 438.289 577.707 437.848 577.707 437.363C577.707 436.777 577.527 436.324 577.168 436.004C576.812 435.684 576.385 435.523 575.885 435.523C575.521 435.523 575.209 435.594 574.947 435.734C574.689 435.875 574.469 436.07 574.285 436.32L573.371 436.268L574.01 431.75H578.369V432.77H574.801L574.443 435.102C574.639 434.953 574.824 434.842 575 434.768C575.312 434.639 575.674 434.574 576.084 434.574C576.854 434.574 577.506 434.822 578.041 435.318C578.576 435.814 578.844 436.443 578.844 437.205C578.844 437.998 578.598 438.697 578.105 439.303C577.617 439.908 576.836 440.211 575.762 440.211C575.078 440.211 574.473 440.02 573.945 439.637C573.422 439.25 573.129 438.658 573.066 437.861H574.162Z" fill="black"/>
<path d="M685.375 440C685.414 439.277 685.562 438.648 685.82 438.113C686.082 437.578 686.59 437.092 687.344 436.654L688.469 436.004C688.973 435.711 689.326 435.461 689.529 435.254C689.85 434.93 690.01 434.559 690.01 434.141C690.01 433.652 689.863 433.266 689.57 432.98C689.277 432.691 688.887 432.547 688.398 432.547C687.676 432.547 687.176 432.82 686.898 433.367C686.75 433.66 686.668 434.066 686.652 434.586H685.58C685.592 433.855 685.727 433.26 685.984 432.799C686.441 431.986 687.248 431.58 688.404 431.58C689.365 431.58 690.066 431.84 690.508 432.359C690.953 432.879 691.176 433.457 691.176 434.094C691.176 434.766 690.939 435.34 690.467 435.816C690.193 436.094 689.703 436.43 688.996 436.824L688.193 437.27C687.811 437.48 687.51 437.682 687.291 437.873C686.9 438.213 686.654 438.59 686.553 439.004H691.135V440H685.375ZM694.926 431.609C696.012 431.609 696.797 432.057 697.281 432.951C697.656 433.643 697.844 434.59 697.844 435.793C697.844 436.934 697.674 437.877 697.334 438.623C696.842 439.693 696.037 440.229 694.92 440.229C693.912 440.229 693.162 439.791 692.67 438.916C692.26 438.186 692.055 437.205 692.055 435.975C692.055 435.021 692.178 434.203 692.424 433.52C692.885 432.246 693.719 431.609 694.926 431.609ZM694.914 439.268C695.461 439.268 695.896 439.025 696.221 438.541C696.545 438.057 696.707 437.154 696.707 435.834C696.707 434.881 696.59 434.098 696.355 433.484C696.121 432.867 695.666 432.559 694.99 432.559C694.369 432.559 693.914 432.852 693.625 433.438C693.34 434.02 693.197 434.879 693.197 436.016C693.197 436.871 693.289 437.559 693.473 438.078C693.754 438.871 694.234 439.268 694.914 439.268Z" fill="black"/>
<path d="M326 28C326 27.4477 326.448 27 327 27H337C337.552 27 338 27.4477 338 28V38C338 38.5523 337.552 39 337 39H327C326.448 39 326 38.5523 326 38V28Z" fill="#F7BE19"/>
<path d="M352.665 33.5908L351.032 28.8374L349.296 33.5908H352.665ZM350.27 27.2407H351.918L355.822 38H354.225L353.134 34.7773H348.878L347.714 38H346.22L350.27 27.2407ZM357.807 34.1694C357.807 35.0093 357.985 35.7124 358.341 36.2788C358.698 36.8452 359.269 37.1284 360.055 37.1284C360.666 37.1284 361.166 36.8672 361.557 36.3447C361.952 35.8174 362.15 35.063 362.15 34.0815C362.15 33.0903 361.947 32.3579 361.542 31.8843C361.137 31.4058 360.636 31.1665 360.041 31.1665C359.376 31.1665 358.837 31.4204 358.422 31.9282C358.012 32.436 357.807 33.1831 357.807 34.1694ZM359.792 30.0166C360.392 30.0166 360.895 30.1436 361.3 30.3975C361.535 30.5439 361.801 30.8003 362.099 31.1665V27.2041H363.366V38H362.179V36.9087C361.872 37.3921 361.508 37.7412 361.088 37.9561C360.668 38.1709 360.187 38.2783 359.645 38.2783C358.771 38.2783 358.014 37.9121 357.375 37.1797C356.735 36.4424 356.415 35.4634 356.415 34.2427C356.415 33.1001 356.706 32.1113 357.287 31.2764C357.873 30.4365 358.708 30.0166 359.792 30.0166ZM366.156 34.1694C366.156 35.0093 366.334 35.7124 366.691 36.2788C367.047 36.8452 367.619 37.1284 368.405 37.1284C369.015 37.1284 369.516 36.8672 369.906 36.3447C370.302 35.8174 370.5 35.063 370.5 34.0815C370.5 33.0903 370.297 32.3579 369.892 31.8843C369.486 31.4058 368.986 31.1665 368.39 31.1665C367.726 31.1665 367.187 31.4204 366.771 31.9282C366.361 32.436 366.156 33.1831 366.156 34.1694ZM368.141 30.0166C368.742 30.0166 369.245 30.1436 369.65 30.3975C369.884 30.5439 370.15 30.8003 370.448 31.1665V27.2041H371.715V38H370.529V36.9087C370.221 37.3921 369.857 37.7412 369.438 37.9561C369.018 38.1709 368.537 38.2783 367.995 38.2783C367.121 38.2783 366.364 37.9121 365.724 37.1797C365.084 36.4424 364.765 35.4634 364.765 34.2427C364.765 33.1001 365.055 32.1113 365.636 31.2764C366.222 30.4365 367.057 30.0166 368.141 30.0166Z" fill="black"/>
<path d="M538 28C538 27.4477 538.448 27 539 27H549C549.552 27 550 27.4477 550 28V38C550 38.5523 549.552 39 549 39H539C538.448 39 538 38.5523 538 38V28Z" fill="#EA4335"/>
<path d="M563.793 26.9624C564.804 26.9624 565.678 27.1577 566.416 27.5483C567.485 28.1099 568.139 29.0938 568.378 30.5H566.936C566.76 29.7139 566.396 29.1426 565.844 28.7861C565.292 28.4248 564.597 28.2441 563.757 28.2441C562.761 28.2441 561.921 28.6177 561.237 29.3647C560.559 30.1118 560.219 31.2251 560.219 32.7046C560.219 33.9839 560.5 35.0264 561.062 35.832C561.623 36.6328 562.539 37.0332 563.808 37.0332C564.78 37.0332 565.583 36.7524 566.218 36.1909C566.857 35.6245 567.185 34.7114 567.199 33.4517H563.83V32.2432H568.554V38H567.617L567.265 36.6157C566.772 37.1577 566.335 37.5337 565.954 37.7437C565.314 38.105 564.501 38.2856 563.515 38.2856C562.241 38.2856 561.145 37.873 560.227 37.0479C559.226 36.0127 558.725 34.5918 558.725 32.7852C558.725 30.9834 559.213 29.5503 560.19 28.4858C561.118 27.4702 562.319 26.9624 563.793 26.9624ZM573.908 29.98C574.465 29.98 575.004 30.1118 575.527 30.3755C576.049 30.6343 576.447 30.9712 576.721 31.3862C576.984 31.7817 577.16 32.2432 577.248 32.7705C577.326 33.1318 577.365 33.708 577.365 34.499H571.616C571.64 35.2949 571.828 35.9346 572.18 36.418C572.531 36.8965 573.076 37.1357 573.813 37.1357C574.501 37.1357 575.051 36.9087 575.461 36.4546C575.695 36.1909 575.861 35.8857 575.959 35.5391H577.255C577.221 35.8271 577.106 36.1494 576.911 36.5059C576.721 36.8574 576.506 37.1455 576.267 37.3701C575.866 37.7607 575.371 38.0244 574.78 38.1611C574.462 38.2393 574.104 38.2783 573.703 38.2783C572.727 38.2783 571.899 37.9243 571.22 37.2163C570.542 36.5034 570.202 35.5073 570.202 34.228C570.202 32.9683 570.544 31.9453 571.228 31.1592C571.911 30.373 572.805 29.98 573.908 29.98ZM576.01 33.4517C575.957 32.8804 575.832 32.4238 575.637 32.082C575.275 31.4473 574.672 31.1299 573.828 31.1299C573.222 31.1299 572.714 31.3496 572.304 31.7891C571.894 32.2236 571.677 32.7778 571.652 33.4517H576.01ZM579.255 27.9658H580.588V30.1558H581.84V31.2324H580.588V36.3521C580.588 36.6255 580.681 36.8086 580.866 36.9014C580.969 36.9551 581.14 36.9819 581.379 36.9819C581.442 36.9819 581.511 36.9819 581.584 36.9819C581.657 36.9771 581.743 36.9697 581.84 36.96V38C581.689 38.0439 581.53 38.0757 581.364 38.0952C581.203 38.1147 581.027 38.1245 580.837 38.1245C580.222 38.1245 579.804 37.9683 579.584 37.6558C579.365 37.3384 579.255 36.9282 579.255 36.4253V31.2324H578.193V30.1558H579.255V27.9658Z" fill="black"/>
<path d="M421 28C421 27.4477 421.448 27 422 27H432C432.552 27 433 27.4477 433 28V38C433 38.5523 432.552 39 432 39H422C421.448 39 421 38.5523 421 38V28Z" fill="#4285F4"/>
<path d="M443.725 27.2407V33.8911C443.725 34.6724 443.871 35.3218 444.164 35.8394C444.599 36.6206 445.331 37.0112 446.361 37.0112C447.597 37.0112 448.437 36.5889 448.881 35.7441C449.12 35.2852 449.24 34.6675 449.24 33.8911V27.2407H450.719V33.2832C450.719 34.6064 450.541 35.6245 450.185 36.3374C449.53 37.6362 448.295 38.2856 446.479 38.2856C444.662 38.2856 443.429 37.6362 442.78 36.3374C442.423 35.6245 442.245 34.6064 442.245 33.2832V27.2407H443.725ZM456.117 37.1138C456.732 37.1138 457.243 36.8574 457.648 36.3447C458.058 35.8271 458.263 35.0557 458.263 34.0303C458.263 33.4053 458.173 32.8682 457.992 32.4189C457.65 31.5547 457.025 31.1226 456.117 31.1226C455.204 31.1226 454.579 31.5791 454.242 32.4922C454.062 32.9805 453.971 33.6006 453.971 34.3525C453.971 34.958 454.062 35.4731 454.242 35.8979C454.584 36.7085 455.209 37.1138 456.117 37.1138ZM452.704 30.1924H453.986V31.2324C454.25 30.876 454.538 30.6001 454.85 30.4048C455.294 30.1118 455.817 29.9653 456.417 29.9653C457.306 29.9653 458.061 30.3071 458.681 30.9907C459.301 31.6694 459.611 32.6411 459.611 33.9058C459.611 35.6147 459.164 36.8354 458.271 37.5679C457.704 38.0317 457.045 38.2637 456.293 38.2637C455.702 38.2637 455.207 38.1343 454.806 37.8755C454.572 37.729 454.311 37.4775 454.022 37.1211V41.1274H452.704V30.1924ZM461.991 34.1694C461.991 35.0093 462.169 35.7124 462.526 36.2788C462.882 36.8452 463.454 37.1284 464.24 37.1284C464.85 37.1284 465.351 36.8672 465.741 36.3447C466.137 35.8174 466.334 35.063 466.334 34.0815C466.334 33.0903 466.132 32.3579 465.727 31.8843C465.321 31.4058 464.821 31.1665 464.225 31.1665C463.561 31.1665 463.021 31.4204 462.606 31.9282C462.196 32.436 461.991 33.1831 461.991 34.1694ZM463.976 30.0166C464.577 30.0166 465.08 30.1436 465.485 30.3975C465.719 30.5439 465.985 30.8003 466.283 31.1665V27.2041H467.55V38H466.364V36.9087C466.056 37.3921 465.692 37.7412 465.272 37.9561C464.853 38.1709 464.372 38.2783 463.83 38.2783C462.956 38.2783 462.199 37.9121 461.559 37.1797C460.919 36.4424 460.6 35.4634 460.6 34.2427C460.6 33.1001 460.89 32.1113 461.471 31.2764C462.057 30.4365 462.892 30.0166 463.976 30.0166ZM470.517 35.9126C470.517 36.2935 470.656 36.5938 470.934 36.8135C471.212 37.0332 471.542 37.1431 471.923 37.1431C472.387 37.1431 472.836 37.0356 473.271 36.8208C474.003 36.4644 474.369 35.8809 474.369 35.0703V34.0083C474.208 34.1108 474 34.1963 473.747 34.2646C473.493 34.333 473.244 34.3818 473 34.4111L472.201 34.5137C471.723 34.5771 471.364 34.6772 471.125 34.814C470.719 35.0435 470.517 35.4097 470.517 35.9126ZM473.71 33.2466C474.013 33.2075 474.215 33.0806 474.318 32.8657C474.376 32.7485 474.406 32.5801 474.406 32.3604C474.406 31.9111 474.245 31.5864 473.922 31.3862C473.605 31.1812 473.148 31.0786 472.553 31.0786C471.864 31.0786 471.376 31.2642 471.088 31.6353C470.927 31.8403 470.822 32.1455 470.773 32.5508H469.542C469.567 31.584 469.879 30.9126 470.48 30.5366C471.085 30.1558 471.786 29.9653 472.582 29.9653C473.505 29.9653 474.254 30.1411 474.831 30.4927C475.402 30.8442 475.688 31.3911 475.688 32.1333V36.6523C475.688 36.7891 475.714 36.8989 475.768 36.9819C475.827 37.0649 475.946 37.1064 476.127 37.1064C476.186 37.1064 476.251 37.104 476.325 37.0991C476.398 37.0894 476.476 37.0771 476.559 37.0625V38.0366C476.354 38.0952 476.198 38.1318 476.09 38.1465C475.983 38.1611 475.836 38.1685 475.651 38.1685C475.197 38.1685 474.867 38.0073 474.662 37.6851C474.555 37.5142 474.479 37.2725 474.435 36.96C474.167 37.3115 473.781 37.6167 473.278 37.8755C472.775 38.1343 472.221 38.2637 471.615 38.2637C470.888 38.2637 470.292 38.0439 469.828 37.6045C469.369 37.1602 469.14 36.606 469.14 35.9419C469.14 35.2144 469.367 34.6504 469.821 34.25C470.275 33.8496 470.871 33.603 471.608 33.5103L473.71 33.2466ZM478.119 27.9658H479.452V30.1558H480.705V31.2324H479.452V36.3521C479.452 36.6255 479.545 36.8086 479.73 36.9014C479.833 36.9551 480.004 36.9819 480.243 36.9819C480.307 36.9819 480.375 36.9819 480.448 36.9819C480.521 36.9771 480.607 36.9697 480.705 36.96V38C480.553 38.0439 480.395 38.0757 480.229 38.0952C480.067 38.1147 479.892 38.1245 479.701 38.1245C479.086 38.1245 478.668 37.9683 478.449 37.6558C478.229 37.3384 478.119 36.9282 478.119 36.4253V31.2324H477.057V30.1558H478.119V27.9658ZM485.297 29.98C485.854 29.98 486.393 30.1118 486.916 30.3755C487.438 30.6343 487.836 30.9712 488.109 31.3862C488.373 31.7817 488.549 32.2432 488.637 32.7705C488.715 33.1318 488.754 33.708 488.754 34.499H483.004C483.029 35.2949 483.217 35.9346 483.568 36.418C483.92 36.8965 484.464 37.1357 485.202 37.1357C485.89 37.1357 486.439 36.9087 486.85 36.4546C487.084 36.1909 487.25 35.8857 487.348 35.5391H488.644C488.61 35.8271 488.495 36.1494 488.3 36.5059C488.109 36.8574 487.895 37.1455 487.655 37.3701C487.255 37.7607 486.759 38.0244 486.168 38.1611C485.851 38.2393 485.492 38.2783 485.092 38.2783C484.115 38.2783 483.288 37.9243 482.609 37.2163C481.93 36.5034 481.591 35.5073 481.591 34.228C481.591 32.9683 481.933 31.9453 482.616 31.1592C483.3 30.373 484.193 29.98 485.297 29.98ZM487.399 33.4517C487.345 32.8804 487.221 32.4238 487.025 32.082C486.664 31.4473 486.061 31.1299 485.216 31.1299C484.611 31.1299 484.103 31.3496 483.693 31.7891C483.283 32.2236 483.065 32.7778 483.041 33.4517H487.399Z" fill="black"/>
<path d="M215.95 425V413" stroke="black" stroke-miterlimit="10"/>
<path d="M334.95 57V419" stroke="#CCCCCC" stroke-miterlimit="10"/>
<path d="M453.95 57V419" stroke="#CCCCCC" stroke-miterlimit="10"/>
<path d="M572.95 57V419" stroke="#CCCCCC" stroke-miterlimit="10"/>
<path d="M691.95 57V419" stroke="#CCCCCC" stroke-miterlimit="10"/>
<path d="M245.95 57V419" stroke="#E6E6E6" stroke-miterlimit="10"/>
<path d="M275.95 57V419" stroke="#E6E6E6" stroke-miterlimit="10"/>
<path d="M304.95 57V419" stroke="#E6E6E6" stroke-miterlimit="10"/>
<path d="M364.95 57V419" stroke="#E6E6E6" stroke-miterlimit="10"/>
<path d="M394.95 57V419" stroke="#E6E6E6" stroke-miterlimit="10"/>
<path d="M423.95 57V419" stroke="#E6E6E6" stroke-miterlimit="10"/>
<path d="M483.95 57V419" stroke="#E6E6E6" stroke-miterlimit="10"/>
<path d="M512.95 57V419" stroke="#E6E6E6" stroke-miterlimit="10"/>
<path d="M542.95 57V419" stroke="#E6E6E6" stroke-miterlimit="10"/>
<path d="M602.95 57V419" stroke="#E6E6E6" stroke-miterlimit="10"/>
<path d="M631.95 57V419" stroke="#E6E6E6" stroke-miterlimit="10"/>
<path d="M661.95 57V419" stroke="#E6E6E6" stroke-miterlimit="10"/>
<path d="M692 419H216" stroke="black" stroke-miterlimit="10"/>
<path d="M176.208 115H174.106V104.204H177.387L179.35 112.693L181.298 104.204H184.543V115H182.441V107.698C182.441 107.488 182.443 107.195 182.448 106.819C182.453 106.438 182.456 106.145 182.456 105.94L180.412 115H178.222L176.193 105.94C176.193 106.145 176.196 106.438 176.201 106.819C176.206 107.195 176.208 107.488 176.208 107.698V115ZM186.77 107.881C187.321 107.178 188.269 106.826 189.611 106.826C190.485 106.826 191.262 107 191.94 107.346C192.619 107.693 192.958 108.347 192.958 109.309V112.971C192.958 113.225 192.963 113.533 192.973 113.894C192.988 114.167 193.029 114.353 193.098 114.451C193.166 114.548 193.269 114.629 193.405 114.692V115H191.135C191.071 114.839 191.027 114.688 191.003 114.546C190.979 114.404 190.959 114.243 190.944 114.062C190.656 114.375 190.324 114.641 189.948 114.861C189.499 115.12 188.991 115.249 188.425 115.249C187.702 115.249 187.104 115.044 186.63 114.634C186.162 114.219 185.927 113.633 185.927 112.876C185.927 111.895 186.306 111.184 187.062 110.745C187.478 110.505 188.088 110.334 188.894 110.232L189.604 110.144C189.99 110.095 190.266 110.034 190.432 109.961C190.729 109.834 190.878 109.636 190.878 109.368C190.878 109.041 190.764 108.816 190.534 108.694C190.31 108.567 189.978 108.503 189.538 108.503C189.045 108.503 188.696 108.625 188.491 108.87C188.344 109.05 188.247 109.294 188.198 109.602H186.184C186.228 108.904 186.423 108.33 186.77 107.881ZM188.322 113.491C188.518 113.652 188.757 113.733 189.04 113.733C189.489 113.733 189.902 113.601 190.278 113.337C190.659 113.074 190.856 112.593 190.871 111.895V111.118C190.739 111.201 190.605 111.27 190.468 111.323C190.336 111.372 190.153 111.418 189.919 111.462L189.45 111.55C189.011 111.628 188.696 111.724 188.505 111.836C188.183 112.026 188.022 112.322 188.022 112.722C188.022 113.079 188.122 113.335 188.322 113.491ZM201.506 107.874C202.15 108.562 202.473 109.573 202.473 110.906C202.473 112.312 202.155 113.384 201.521 114.121C200.891 114.858 200.078 115.227 199.082 115.227C198.447 115.227 197.919 115.068 197.5 114.751C197.27 114.575 197.045 114.319 196.826 113.982V118.142H194.76V107.017H196.76V108.196C196.984 107.849 197.224 107.576 197.478 107.375C197.941 107.019 198.493 106.841 199.133 106.841C200.065 106.841 200.856 107.185 201.506 107.874ZM200.319 111.008C200.319 110.393 200.178 109.849 199.895 109.375C199.616 108.901 199.162 108.665 198.532 108.665C197.775 108.665 197.255 109.023 196.972 109.741C196.826 110.122 196.752 110.605 196.752 111.191C196.752 112.119 196.999 112.771 197.492 113.147C197.785 113.367 198.132 113.477 198.532 113.477C199.113 113.477 199.555 113.252 199.858 112.803C200.166 112.354 200.319 111.755 200.319 111.008Z" fill="black"/>
<path d="M216 139V122H685.663C686.954 122 688 122.895 688 124V137C688 138.105 686.954 139 685.663 139H216Z" fill="#EA4335"/>
<path d="M216 101V84H662.709C663.974 84 665 84.8954 665 86V99C665 100.105 663.974 101 662.709 101H216Z" fill="#F7BE19"/>
<path d="M216 120V103H650.77C652.002 103 653 103.895 653 105V118C653 119.105 652.002 120 650.77 120H216Z" fill="#4285F4"/>
<path d="M82.6289 283.513V285.073L81.6401 285.11C80.6538 285.144 79.98 284.973 79.6187 284.597C79.3843 284.358 79.2671 283.989 79.2671 283.491V278.577H78.1538V277.09H79.2671V274.863H81.3325V277.09H82.6289V278.577H81.3325V282.795C81.3325 283.123 81.374 283.328 81.457 283.411C81.54 283.489 81.7939 283.528 82.2188 283.528C82.2822 283.528 82.3481 283.528 82.4165 283.528C82.4897 283.523 82.5605 283.518 82.6289 283.513ZM87.9829 278.943C87.1431 278.943 86.5791 279.216 86.291 279.763C86.1299 280.071 86.0493 280.544 86.0493 281.184V285H83.9473V277.017H85.9395V278.408C86.2617 277.876 86.5425 277.512 86.7817 277.317C87.1724 276.99 87.6802 276.826 88.3052 276.826C88.3442 276.826 88.376 276.829 88.4004 276.833C88.4297 276.833 88.4907 276.836 88.5835 276.841V278.979C88.4517 278.965 88.3345 278.955 88.2319 278.95C88.1294 278.945 88.0464 278.943 87.9829 278.943ZM91.96 277.017V285H89.8433V277.017H91.96ZM91.96 274.138V276.064H89.8433V274.138H91.96ZM100.822 282.656C100.769 283.13 100.522 283.611 100.083 284.099C99.3989 284.875 98.4419 285.264 97.2114 285.264C96.1958 285.264 95.2998 284.937 94.5234 284.282C93.7471 283.628 93.3589 282.563 93.3589 281.089C93.3589 279.707 93.708 278.647 94.4062 277.91C95.1094 277.173 96.02 276.804 97.1382 276.804C97.8022 276.804 98.4004 276.929 98.9326 277.178C99.4648 277.427 99.9043 277.82 100.251 278.357C100.563 278.831 100.766 279.38 100.859 280.005C100.913 280.371 100.935 280.898 100.925 281.587H95.4609C95.4902 282.388 95.7417 282.949 96.2153 283.271C96.5034 283.472 96.8501 283.572 97.2554 283.572C97.6851 283.572 98.0342 283.45 98.3027 283.206C98.4492 283.074 98.5786 282.891 98.6909 282.656H100.822ZM98.7568 280.21C98.7227 279.658 98.5542 279.241 98.2515 278.958C97.9536 278.669 97.5825 278.525 97.1382 278.525C96.6548 278.525 96.2788 278.677 96.0103 278.979C95.7466 279.282 95.5806 279.692 95.5122 280.21H98.7568ZM101.708 279.829H105.913V281.807H101.708V279.829ZM112.834 277.383C113.459 277.783 113.818 278.472 113.911 279.448H111.823C111.794 279.18 111.718 278.967 111.596 278.811C111.367 278.528 110.976 278.386 110.424 278.386C109.97 278.386 109.646 278.457 109.45 278.599C109.26 278.74 109.165 278.906 109.165 279.097C109.165 279.336 109.267 279.509 109.472 279.617C109.677 279.729 110.402 279.922 111.647 280.195C112.478 280.391 113.1 280.686 113.515 281.082C113.925 281.482 114.13 281.982 114.13 282.583C114.13 283.374 113.835 284.021 113.244 284.524C112.658 285.022 111.75 285.271 110.52 285.271C109.265 285.271 108.337 285.007 107.736 284.48C107.141 283.948 106.843 283.271 106.843 282.451H108.959C109.003 282.822 109.099 283.086 109.245 283.242C109.504 283.521 109.982 283.66 110.681 283.66C111.091 283.66 111.416 283.599 111.655 283.477C111.899 283.354 112.021 283.171 112.021 282.927C112.021 282.693 111.923 282.515 111.728 282.393C111.533 282.271 110.808 282.061 109.553 281.763C108.649 281.538 108.012 281.257 107.641 280.92C107.27 280.588 107.084 280.11 107.084 279.485C107.084 278.748 107.373 278.115 107.949 277.588C108.53 277.056 109.345 276.79 110.395 276.79C111.391 276.79 112.204 276.987 112.834 277.383ZM122.517 282.656C122.463 283.13 122.216 283.611 121.777 284.099C121.093 284.875 120.136 285.264 118.906 285.264C117.89 285.264 116.994 284.937 116.218 284.282C115.441 283.628 115.053 282.563 115.053 281.089C115.053 279.707 115.402 278.647 116.101 277.91C116.804 277.173 117.714 276.804 118.833 276.804C119.497 276.804 120.095 276.929 120.627 277.178C121.159 277.427 121.599 277.82 121.945 278.357C122.258 278.831 122.46 279.38 122.553 280.005C122.607 280.371 122.629 280.898 122.619 281.587H117.155C117.185 282.388 117.436 282.949 117.91 283.271C118.198 283.472 118.544 283.572 118.95 283.572C119.379 283.572 119.729 283.45 119.997 283.206C120.144 283.074 120.273 282.891 120.385 282.656H122.517ZM120.451 280.21C120.417 279.658 120.249 279.241 119.946 278.958C119.648 278.669 119.277 278.525 118.833 278.525C118.349 278.525 117.973 278.677 117.705 278.979C117.441 279.282 117.275 279.692 117.207 280.21H120.451ZM124.333 277.881C124.885 277.178 125.832 276.826 127.175 276.826C128.049 276.826 128.825 277 129.504 277.346C130.183 277.693 130.522 278.347 130.522 279.309V282.971C130.522 283.225 130.527 283.533 130.537 283.894C130.551 284.167 130.593 284.353 130.661 284.451C130.729 284.548 130.832 284.629 130.969 284.692V285H128.698C128.635 284.839 128.591 284.688 128.566 284.546C128.542 284.404 128.522 284.243 128.508 284.062C128.22 284.375 127.888 284.641 127.512 284.861C127.062 285.12 126.555 285.249 125.988 285.249C125.266 285.249 124.667 285.044 124.194 284.634C123.725 284.219 123.491 283.633 123.491 282.876C123.491 281.895 123.869 281.184 124.626 280.745C125.041 280.505 125.651 280.334 126.457 280.232L127.167 280.144C127.553 280.095 127.829 280.034 127.995 279.961C128.293 279.834 128.442 279.636 128.442 279.368C128.442 279.041 128.327 278.816 128.098 278.694C127.873 278.567 127.541 278.503 127.102 278.503C126.608 278.503 126.259 278.625 126.054 278.87C125.908 279.05 125.81 279.294 125.761 279.602H123.747C123.791 278.904 123.986 278.33 124.333 277.881ZM125.886 283.491C126.081 283.652 126.32 283.733 126.604 283.733C127.053 283.733 127.465 283.601 127.841 283.337C128.222 283.074 128.42 282.593 128.435 281.895V281.118C128.303 281.201 128.168 281.27 128.032 281.323C127.9 281.372 127.717 281.418 127.482 281.462L127.014 281.55C126.574 281.628 126.259 281.724 126.069 281.836C125.747 282.026 125.585 282.322 125.585 282.722C125.585 283.079 125.686 283.335 125.886 283.491ZM136.396 278.943C135.556 278.943 134.992 279.216 134.704 279.763C134.543 280.071 134.462 280.544 134.462 281.184V285H132.36V277.017H134.353V278.408C134.675 277.876 134.956 277.512 135.195 277.317C135.585 276.99 136.093 276.826 136.718 276.826C136.757 276.826 136.789 276.829 136.813 276.833C136.843 276.833 136.904 276.836 136.997 276.841V278.979C136.865 278.965 136.748 278.955 136.645 278.95C136.542 278.945 136.459 278.943 136.396 278.943ZM145.134 279.88H142.995C142.956 279.583 142.856 279.314 142.695 279.075C142.46 278.752 142.097 278.591 141.604 278.591C140.9 278.591 140.419 278.94 140.161 279.639C140.024 280.01 139.956 280.503 139.956 281.118C139.956 281.704 140.024 282.175 140.161 282.532C140.41 283.196 140.878 283.528 141.567 283.528C142.055 283.528 142.402 283.396 142.607 283.132C142.812 282.869 142.937 282.527 142.98 282.107H145.112C145.063 282.742 144.833 283.342 144.423 283.909C143.769 284.822 142.8 285.278 141.516 285.278C140.231 285.278 139.287 284.897 138.681 284.136C138.076 283.374 137.773 282.385 137.773 281.169C137.773 279.797 138.107 278.73 138.776 277.969C139.445 277.207 140.368 276.826 141.545 276.826C142.546 276.826 143.364 277.051 143.999 277.5C144.638 277.949 145.017 278.743 145.134 279.88ZM153.791 280.312V285H151.66V280.144C151.66 279.714 151.586 279.368 151.44 279.104C151.25 278.733 150.888 278.547 150.356 278.547C149.804 278.547 149.384 278.733 149.096 279.104C148.813 279.47 148.671 279.995 148.671 280.679V285H146.591V274.241H148.671V278.057C148.974 277.593 149.323 277.271 149.719 277.09C150.119 276.904 150.539 276.812 150.979 276.812C151.472 276.812 151.918 276.897 152.319 277.068C152.724 277.239 153.056 277.5 153.315 277.852C153.535 278.149 153.669 278.457 153.718 278.774C153.767 279.087 153.791 279.6 153.791 280.312ZM163.92 278.459C163.92 278.157 163.818 277.886 163.613 277.646C163.413 277.402 163.134 277.28 162.778 277.28C162.221 277.28 161.738 277.61 161.328 278.269C160.922 278.923 160.72 279.575 160.72 280.225C160.72 280.703 160.825 281.069 161.035 281.323C161.245 281.572 161.508 281.697 161.826 281.697C162.485 281.697 162.998 281.313 163.364 280.547C163.735 279.775 163.92 279.08 163.92 278.459ZM162.463 285.315C160.422 285.315 158.85 284.678 157.746 283.403C156.862 282.383 156.42 281.204 156.42 279.866C156.42 278.274 156.958 276.921 158.032 275.808C159.223 274.568 160.822 273.948 162.829 273.948C164.567 273.948 165.935 274.387 166.931 275.266C167.863 276.096 168.33 277.173 168.33 278.496C168.33 279.609 167.995 280.562 167.326 281.353C166.662 282.139 165.917 282.532 165.092 282.532C164.609 282.532 164.252 282.417 164.023 282.188C163.793 281.953 163.679 281.672 163.679 281.345C163.679 281.292 163.684 281.235 163.693 281.177C163.703 281.118 163.715 281.057 163.73 280.994C163.471 281.555 163.144 281.953 162.749 282.188C162.353 282.417 161.945 282.532 161.525 282.532C160.925 282.532 160.437 282.314 160.061 281.88C159.689 281.445 159.504 280.886 159.504 280.203C159.504 279.231 159.821 278.374 160.456 277.632C161.096 276.89 161.782 276.519 162.514 276.519C163.012 276.519 163.422 276.663 163.745 276.951C164.072 277.239 164.245 277.585 164.265 277.991L164.631 276.76H165.708L164.733 279.968C164.66 280.217 164.606 280.417 164.572 280.569C164.538 280.72 164.521 280.854 164.521 280.972C164.521 281.191 164.587 281.353 164.719 281.455C164.855 281.553 165.009 281.602 165.18 281.602C165.737 281.602 166.235 281.311 166.674 280.73C167.119 280.149 167.341 279.39 167.341 278.452C167.341 277.319 166.945 276.431 166.154 275.786C165.363 275.137 164.299 274.812 162.961 274.812C161.105 274.812 159.687 275.354 158.706 276.438C157.866 277.361 157.446 278.521 157.446 279.917C157.446 281.138 157.846 282.163 158.647 282.993C159.584 283.975 160.92 284.465 162.653 284.465C163.464 284.465 164.218 284.338 164.917 284.084C165.615 283.826 166.254 283.479 166.835 283.044L167.319 283.704C166.879 284.094 166.223 284.46 165.349 284.802C164.475 285.144 163.513 285.315 162.463 285.315ZM171.442 277.573V276.562C172.395 276.47 173.059 276.316 173.435 276.101C173.811 275.881 174.091 275.366 174.277 274.556H175.317V285H173.911V277.573H171.442ZM179.638 283.403H181.169V285H179.638V283.403ZM187.49 281.287V276.533L184.128 281.287H187.49ZM187.512 285V282.437H182.912V281.147L187.717 274.482H188.83V281.287H190.375V282.437H188.83V285H187.512ZM192.163 283.403H193.693V285H192.163V283.403ZM195.524 285C195.573 284.097 195.759 283.311 196.081 282.642C196.408 281.973 197.043 281.365 197.985 280.818L199.392 280.005C200.021 279.639 200.463 279.326 200.717 279.067C201.118 278.662 201.318 278.198 201.318 277.676C201.318 277.065 201.135 276.582 200.769 276.226C200.402 275.864 199.914 275.684 199.304 275.684C198.4 275.684 197.775 276.025 197.429 276.709C197.243 277.075 197.141 277.583 197.121 278.232H195.781C195.795 277.319 195.964 276.575 196.286 275.999C196.857 274.983 197.866 274.475 199.311 274.475C200.512 274.475 201.389 274.8 201.94 275.449C202.497 276.099 202.775 276.821 202.775 277.617C202.775 278.457 202.48 279.175 201.889 279.771C201.547 280.117 200.935 280.537 200.051 281.03L199.047 281.587C198.569 281.851 198.193 282.102 197.919 282.341C197.431 282.766 197.124 283.237 196.997 283.755H202.724V285H195.524Z" fill="black"/>
<path d="M216 307V290H310.53C310.789 290 311 290.895 311 292V305C311 306.105 310.789 307 310.53 307H216Z" fill="#EA4335"/>
<path d="M216.45 269V252H258.236C258.354 252 258.45 252.895 258.45 254V267C258.45 268.105 258.354 269 258.236 269H216.45Z" fill="#F7BE19"/>
<path d="M216.45 288V271H263.21C263.343 271 263.45 271.895 263.45 273V286C263.45 287.105 263.343 288 263.21 288H216.45Z" fill="#4285F4"/>
<path d="M71.4565 363.214C71.2808 362.828 70.9365 362.635 70.4238 362.635C69.8281 362.635 69.4277 362.828 69.2227 363.214C69.1104 363.434 69.0542 363.761 69.0542 364.195V369H66.9375V361.031H68.9663V362.196C69.2251 361.781 69.4692 361.485 69.6987 361.31C70.104 360.997 70.6289 360.841 71.2734 360.841C71.8838 360.841 72.377 360.975 72.7529 361.244C73.0557 361.493 73.2852 361.812 73.4414 362.203C73.7148 361.734 74.0542 361.39 74.4595 361.17C74.8892 360.951 75.3677 360.841 75.895 360.841C76.2466 360.841 76.5933 360.909 76.9351 361.046C77.2769 361.183 77.5869 361.422 77.8652 361.764C78.0898 362.042 78.2412 362.384 78.3193 362.789C78.3682 363.058 78.3926 363.451 78.3926 363.968L78.3779 369H76.2393V363.917C76.2393 363.614 76.1904 363.365 76.0928 363.17C75.9072 362.799 75.5654 362.613 75.0674 362.613C74.4912 362.613 74.0933 362.853 73.8735 363.331C73.7612 363.585 73.7051 363.89 73.7051 364.247V369H71.603V364.247C71.603 363.773 71.5542 363.429 71.4565 363.214ZM84.0762 362.562C83.3682 362.562 82.8823 362.862 82.6187 363.463C82.4819 363.78 82.4136 364.186 82.4136 364.679V369H80.3335V361.031H82.3477V362.196C82.6162 361.786 82.8701 361.49 83.1094 361.31C83.5391 360.987 84.0835 360.826 84.7427 360.826C85.5679 360.826 86.2417 361.043 86.7642 361.478C87.2915 361.908 87.5552 362.623 87.5552 363.624V369H85.4165V364.144C85.4165 363.724 85.3604 363.402 85.248 363.177C85.043 362.767 84.6523 362.562 84.0762 362.562ZM96.3223 366.656C96.2686 367.13 96.022 367.611 95.5825 368.099C94.8989 368.875 93.9419 369.264 92.7114 369.264C91.6958 369.264 90.7998 368.937 90.0234 368.282C89.2471 367.628 88.8589 366.563 88.8589 365.089C88.8589 363.707 89.208 362.647 89.9062 361.91C90.6094 361.173 91.52 360.804 92.6382 360.804C93.3022 360.804 93.9004 360.929 94.4326 361.178C94.9648 361.427 95.4043 361.82 95.751 362.357C96.0635 362.831 96.2661 363.38 96.3589 364.005C96.4126 364.371 96.4346 364.898 96.4248 365.587H90.9609C90.9902 366.388 91.2417 366.949 91.7153 367.271C92.0034 367.472 92.3501 367.572 92.7554 367.572C93.1851 367.572 93.5342 367.45 93.8027 367.206C93.9492 367.074 94.0786 366.891 94.1909 366.656H96.3223ZM94.2568 364.21C94.2227 363.658 94.0542 363.241 93.7515 362.958C93.4536 362.669 93.0825 362.525 92.6382 362.525C92.1548 362.525 91.7788 362.677 91.5103 362.979C91.2466 363.282 91.0806 363.692 91.0122 364.21H94.2568ZM102.321 363.214C102.145 362.828 101.801 362.635 101.288 362.635C100.692 362.635 100.292 362.828 100.087 363.214C99.9746 363.434 99.9185 363.761 99.9185 364.195V369H97.8018V361.031H99.8306V362.196C100.089 361.781 100.333 361.485 100.563 361.31C100.968 360.997 101.493 360.841 102.138 360.841C102.748 360.841 103.241 360.975 103.617 361.244C103.92 361.493 104.149 361.812 104.306 362.203C104.579 361.734 104.918 361.39 105.324 361.17C105.753 360.951 106.232 360.841 106.759 360.841C107.111 360.841 107.458 360.909 107.799 361.046C108.141 361.183 108.451 361.422 108.729 361.764C108.954 362.042 109.105 362.384 109.184 362.789C109.232 363.058 109.257 363.451 109.257 363.968L109.242 369H107.104V363.917C107.104 363.614 107.055 363.365 106.957 363.17C106.771 362.799 106.43 362.613 105.932 362.613C105.355 362.613 104.958 362.853 104.738 363.331C104.625 363.585 104.569 363.89 104.569 364.247V369H102.467V364.247C102.467 363.773 102.418 363.429 102.321 363.214ZM117.841 362.027C118.515 362.872 118.852 363.871 118.852 365.023C118.852 366.195 118.515 367.198 117.841 368.033C117.167 368.863 116.144 369.278 114.772 369.278C113.4 369.278 112.377 368.863 111.703 368.033C111.029 367.198 110.692 366.195 110.692 365.023C110.692 363.871 111.029 362.872 111.703 362.027C112.377 361.183 113.4 360.76 114.772 360.76C116.144 360.76 117.167 361.183 117.841 362.027ZM114.765 362.525C114.154 362.525 113.683 362.743 113.351 363.177C113.024 363.607 112.86 364.222 112.86 365.023C112.86 365.824 113.024 366.441 113.351 366.876C113.683 367.311 114.154 367.528 114.765 367.528C115.375 367.528 115.844 367.311 116.171 366.876C116.498 366.441 116.662 365.824 116.662 365.023C116.662 364.222 116.498 363.607 116.171 363.177C115.844 362.743 115.375 362.525 114.765 362.525ZM124.11 362.562C123.402 362.562 122.917 362.862 122.653 363.463C122.516 363.78 122.448 364.186 122.448 364.679V369H120.368V361.031H122.382V362.196C122.65 361.786 122.904 361.49 123.144 361.31C123.573 360.987 124.118 360.826 124.777 360.826C125.602 360.826 126.276 361.043 126.798 361.478C127.326 361.908 127.589 362.623 127.589 363.624V369H125.451V364.144C125.451 363.724 125.395 363.402 125.282 363.177C125.077 362.767 124.687 362.562 124.11 362.562ZM131.669 361.017V369H129.552V361.017H131.669ZM131.669 358.138V360.064H129.552V358.138H131.669ZM139.198 361.383C139.823 361.783 140.182 362.472 140.275 363.448H138.188C138.158 363.18 138.083 362.967 137.96 362.811C137.731 362.528 137.34 362.386 136.789 362.386C136.334 362.386 136.01 362.457 135.814 362.599C135.624 362.74 135.529 362.906 135.529 363.097C135.529 363.336 135.631 363.509 135.836 363.617C136.042 363.729 136.767 363.922 138.012 364.195C138.842 364.391 139.464 364.686 139.879 365.082C140.29 365.482 140.495 365.982 140.495 366.583C140.495 367.374 140.199 368.021 139.608 368.524C139.022 369.022 138.114 369.271 136.884 369.271C135.629 369.271 134.701 369.007 134.101 368.48C133.505 367.948 133.207 367.271 133.207 366.451H135.324C135.368 366.822 135.463 367.086 135.609 367.242C135.868 367.521 136.347 367.66 137.045 367.66C137.455 367.66 137.78 367.599 138.019 367.477C138.263 367.354 138.385 367.171 138.385 366.927C138.385 366.693 138.288 366.515 138.092 366.393C137.897 366.271 137.172 366.061 135.917 365.763C135.014 365.538 134.376 365.257 134.005 364.92C133.634 364.588 133.449 364.11 133.449 363.485C133.449 362.748 133.737 362.115 134.313 361.588C134.894 361.056 135.709 360.79 136.759 360.79C137.755 360.79 138.568 360.987 139.198 361.383ZM145.702 367.513V369.073L144.713 369.11C143.727 369.144 143.053 368.973 142.692 368.597C142.458 368.358 142.34 367.989 142.34 367.491V362.577H141.227V361.09H142.34V358.863H144.406V361.09H145.702V362.577H144.406V366.795C144.406 367.123 144.447 367.328 144.53 367.411C144.613 367.489 144.867 367.528 145.292 367.528C145.355 367.528 145.421 367.528 145.49 367.528C145.563 367.523 145.634 367.518 145.702 367.513ZM155.216 362.459C155.216 362.157 155.114 361.886 154.909 361.646C154.708 361.402 154.43 361.28 154.074 361.28C153.517 361.28 153.034 361.61 152.624 362.269C152.218 362.923 152.016 363.575 152.016 364.225C152.016 364.703 152.121 365.069 152.331 365.323C152.541 365.572 152.804 365.697 153.122 365.697C153.781 365.697 154.293 365.313 154.66 364.547C155.031 363.775 155.216 363.08 155.216 362.459ZM153.759 369.315C151.718 369.315 150.146 368.678 149.042 367.403C148.158 366.383 147.716 365.204 147.716 363.866C147.716 362.274 148.253 360.921 149.328 359.808C150.519 358.568 152.118 357.948 154.125 357.948C155.863 357.948 157.23 358.387 158.227 359.266C159.159 360.096 159.625 361.173 159.625 362.496C159.625 363.609 159.291 364.562 158.622 365.353C157.958 366.139 157.213 366.532 156.388 366.532C155.905 366.532 155.548 366.417 155.319 366.188C155.089 365.953 154.975 365.672 154.975 365.345C154.975 365.292 154.979 365.235 154.989 365.177C154.999 365.118 155.011 365.057 155.026 364.994C154.767 365.555 154.44 365.953 154.044 366.188C153.649 366.417 153.241 366.532 152.821 366.532C152.221 366.532 151.732 366.314 151.356 365.88C150.985 365.445 150.8 364.886 150.8 364.203C150.8 363.231 151.117 362.374 151.752 361.632C152.392 360.89 153.078 360.519 153.81 360.519C154.308 360.519 154.718 360.663 155.041 360.951C155.368 361.239 155.541 361.585 155.561 361.991L155.927 360.76H157.003L156.029 363.968C155.956 364.217 155.902 364.417 155.868 364.569C155.834 364.72 155.817 364.854 155.817 364.972C155.817 365.191 155.883 365.353 156.015 365.455C156.151 365.553 156.305 365.602 156.476 365.602C157.033 365.602 157.531 365.311 157.97 364.73C158.415 364.149 158.637 363.39 158.637 362.452C158.637 361.319 158.241 360.431 157.45 359.786C156.659 359.137 155.595 358.812 154.257 358.812C152.401 358.812 150.983 359.354 150.001 360.438C149.162 361.361 148.742 362.521 148.742 363.917C148.742 365.138 149.142 366.163 149.943 366.993C150.88 367.975 152.216 368.465 153.949 368.465C154.76 368.465 155.514 368.338 156.212 368.084C156.911 367.826 157.55 367.479 158.131 367.044L158.615 367.704C158.175 368.094 157.519 368.46 156.645 368.802C155.771 369.144 154.809 369.315 153.759 369.315ZM165.36 358.512C166.718 358.512 167.699 359.071 168.305 360.189C168.773 361.053 169.008 362.237 169.008 363.741C169.008 365.167 168.795 366.346 168.371 367.279C167.755 368.617 166.75 369.286 165.353 369.286C164.093 369.286 163.156 368.739 162.541 367.645C162.028 366.732 161.771 365.506 161.771 363.968C161.771 362.777 161.925 361.754 162.233 360.899C162.809 359.308 163.852 358.512 165.36 358.512ZM165.346 368.084C166.029 368.084 166.574 367.782 166.979 367.176C167.384 366.571 167.587 365.443 167.587 363.792C167.587 362.601 167.44 361.622 167.147 360.855C166.854 360.084 166.286 359.698 165.441 359.698C164.665 359.698 164.096 360.064 163.734 360.797C163.378 361.524 163.2 362.599 163.2 364.02C163.2 365.089 163.314 365.948 163.544 366.598C163.896 367.589 164.496 368.084 165.346 368.084ZM170.934 367.403H172.465V369H170.934V367.403ZM177.724 369.286C176.483 369.286 175.583 368.946 175.021 368.268C174.464 367.584 174.186 366.754 174.186 365.777H175.563C175.622 366.456 175.749 366.949 175.944 367.257C176.286 367.809 176.903 368.084 177.797 368.084C178.49 368.084 179.047 367.899 179.467 367.528C179.887 367.157 180.097 366.678 180.097 366.092C180.097 365.37 179.875 364.864 179.43 364.576C178.991 364.288 178.378 364.144 177.592 364.144C177.504 364.144 177.414 364.146 177.321 364.151C177.233 364.151 177.143 364.154 177.05 364.159V362.994C177.187 363.009 177.301 363.019 177.394 363.023C177.487 363.028 177.587 363.031 177.694 363.031C178.188 363.031 178.593 362.953 178.91 362.796C179.467 362.523 179.745 362.035 179.745 361.332C179.745 360.809 179.56 360.406 179.188 360.123C178.817 359.84 178.385 359.698 177.892 359.698C177.013 359.698 176.405 359.991 176.068 360.577C175.883 360.899 175.778 361.358 175.753 361.954H174.45C174.45 361.173 174.606 360.509 174.918 359.962C175.456 358.985 176.4 358.497 177.753 358.497C178.822 358.497 179.65 358.736 180.236 359.215C180.822 359.688 181.115 360.377 181.115 361.28C181.115 361.925 180.941 362.447 180.595 362.848C180.38 363.097 180.102 363.292 179.76 363.434C180.312 363.585 180.741 363.878 181.049 364.312C181.361 364.742 181.518 365.27 181.518 365.895C181.518 366.896 181.188 367.711 180.529 368.341C179.87 368.971 178.935 369.286 177.724 369.286ZM184.169 366.466C184.208 367.193 184.489 367.696 185.011 367.975C185.28 368.121 185.583 368.194 185.919 368.194C186.549 368.194 187.086 367.933 187.531 367.411C187.975 366.883 188.29 365.816 188.476 364.21C188.183 364.674 187.819 365.001 187.384 365.191C186.955 365.377 186.491 365.47 185.993 365.47C184.982 365.47 184.181 365.155 183.59 364.525C183.004 363.895 182.711 363.084 182.711 362.093C182.711 361.141 183.002 360.304 183.583 359.581C184.164 358.858 185.021 358.497 186.154 358.497C187.682 358.497 188.737 359.186 189.318 360.562C189.64 361.319 189.801 362.267 189.801 363.404C189.801 364.688 189.608 365.826 189.223 366.817C188.583 368.468 187.499 369.293 185.971 369.293C184.945 369.293 184.167 369.024 183.634 368.487C183.102 367.95 182.836 367.276 182.836 366.466H184.169ZM186.168 364.312C186.691 364.312 187.167 364.142 187.597 363.8C188.031 363.453 188.249 362.85 188.249 361.991C188.249 361.219 188.053 360.646 187.663 360.27C187.277 359.889 186.784 359.698 186.183 359.698C185.539 359.698 185.026 359.916 184.645 360.35C184.269 360.78 184.081 361.356 184.081 362.079C184.081 362.762 184.247 363.307 184.579 363.712C184.911 364.112 185.441 364.312 186.168 364.312ZM191.808 367.403H193.339V369H191.808V367.403ZM196.554 366.327C196.642 367.079 196.991 367.599 197.602 367.887C197.914 368.033 198.275 368.106 198.686 368.106C199.467 368.106 200.045 367.857 200.421 367.359C200.797 366.861 200.985 366.31 200.985 365.704C200.985 364.972 200.761 364.405 200.312 364.005C199.867 363.604 199.333 363.404 198.708 363.404C198.253 363.404 197.863 363.492 197.536 363.668C197.213 363.844 196.938 364.088 196.708 364.4L195.565 364.334L196.364 358.688H201.813V359.962H197.353L196.906 362.877C197.15 362.691 197.382 362.552 197.602 362.459C197.992 362.298 198.444 362.218 198.957 362.218C199.918 362.218 200.734 362.528 201.403 363.148C202.072 363.768 202.406 364.554 202.406 365.506C202.406 366.498 202.099 367.372 201.483 368.128C200.873 368.885 199.896 369.264 198.554 369.264C197.699 369.264 196.942 369.024 196.283 368.546C195.629 368.062 195.263 367.323 195.185 366.327H196.554Z" fill="black"/>
<path d="M216 391V374H383.168C383.628 374 384 374.895 384 376V389C384 390.105 383.628 391 383.168 391H216Z" fill="#EA4335"/>
<path d="M216.45 353V336H301.016C301.256 336 301.45 336.895 301.45 338V351C301.45 352.105 301.256 353 301.016 353H216.45Z" fill="#F7BE19"/>
<path d="M216.45 372V355H388.567C389.055 355 389.45 355.895 389.45 357V370C389.45 371.105 389.055 372 388.567 372H216.45Z" fill="#4285F4"/>
<path d="M334.95 425V413" stroke="black" stroke-miterlimit="10"/>
<path d="M453.95 425V413" stroke="black" stroke-miterlimit="10"/>
<path d="M572.95 425V413" stroke="black" stroke-miterlimit="10"/>
<path d="M691.95 425V413" stroke="black" stroke-miterlimit="10"/>
<path d="M36.1479 194.459C36.1479 194.157 36.0454 193.886 35.8403 193.646C35.6401 193.402 35.3618 193.28 35.0054 193.28C34.4487 193.28 33.9653 193.61 33.5552 194.269C33.1499 194.923 32.9473 195.575 32.9473 196.225C32.9473 196.703 33.0522 197.069 33.2622 197.323C33.4722 197.572 33.7358 197.697 34.0532 197.697C34.7124 197.697 35.2251 197.313 35.5913 196.547C35.9624 195.775 36.1479 195.08 36.1479 194.459ZM34.6904 201.315C32.6494 201.315 31.0771 200.678 29.9736 199.403C29.0898 198.383 28.6479 197.204 28.6479 195.866C28.6479 194.274 29.1851 192.921 30.2593 191.808C31.4507 190.568 33.0498 189.948 35.0566 189.948C36.7949 189.948 38.1621 190.387 39.1582 191.266C40.0908 192.096 40.5571 193.173 40.5571 194.496C40.5571 195.609 40.2227 196.562 39.5537 197.353C38.8896 198.139 38.145 198.532 37.3198 198.532C36.8364 198.532 36.48 198.417 36.2505 198.188C36.021 197.953 35.9062 197.672 35.9062 197.345C35.9062 197.292 35.9111 197.235 35.9209 197.177C35.9307 197.118 35.9429 197.057 35.9575 196.994C35.6987 197.555 35.3716 197.953 34.9761 198.188C34.5806 198.417 34.1729 198.532 33.7529 198.532C33.1523 198.532 32.6641 198.314 32.2881 197.88C31.917 197.445 31.7314 196.886 31.7314 196.203C31.7314 195.231 32.0488 194.374 32.6836 193.632C33.3232 192.89 34.0093 192.519 34.7417 192.519C35.2397 192.519 35.6499 192.663 35.9722 192.951C36.2993 193.239 36.4727 193.585 36.4922 193.991L36.8584 192.76H37.9351L36.9609 195.968C36.8877 196.217 36.834 196.417 36.7998 196.569C36.7656 196.72 36.7485 196.854 36.7485 196.972C36.7485 197.191 36.8145 197.353 36.9463 197.455C37.083 197.553 37.2368 197.602 37.4077 197.602C37.9644 197.602 38.4624 197.311 38.9019 196.73C39.3462 196.149 39.5684 195.39 39.5684 194.452C39.5684 193.319 39.1729 192.431 38.3818 191.786C37.5908 191.137 36.5264 190.812 35.1885 190.812C33.333 190.812 31.9146 191.354 30.9331 192.438C30.0933 193.361 29.6733 194.521 29.6733 195.917C29.6733 197.138 30.0737 198.163 30.8745 198.993C31.812 199.975 33.1475 200.465 34.8809 200.465C35.6914 200.465 36.4458 200.338 37.144 200.084C37.8423 199.826 38.4819 199.479 39.063 199.044L39.5464 199.704C39.1069 200.094 38.4502 200.46 37.5762 200.802C36.7021 201.144 35.7402 201.315 34.6904 201.315ZM43.9849 198.539C44.0239 198.979 44.1338 199.315 44.3145 199.55C44.6465 199.975 45.2227 200.187 46.043 200.187C46.5312 200.187 46.9609 200.082 47.332 199.872C47.7031 199.657 47.8887 199.328 47.8887 198.883C47.8887 198.546 47.7397 198.29 47.4419 198.114C47.2515 198.007 46.8755 197.882 46.314 197.741L45.2666 197.477C44.5977 197.311 44.1045 197.125 43.7871 196.92C43.2207 196.564 42.9375 196.071 42.9375 195.441C42.9375 194.699 43.2036 194.098 43.7358 193.639C44.2729 193.18 44.9932 192.951 45.8965 192.951C47.0781 192.951 47.9302 193.297 48.4526 193.991C48.7798 194.43 48.9385 194.904 48.9287 195.412H47.6836C47.6592 195.114 47.5542 194.843 47.3687 194.599C47.0659 194.252 46.541 194.079 45.7939 194.079C45.2959 194.079 44.9175 194.174 44.6587 194.364C44.4048 194.555 44.2778 194.806 44.2778 195.119C44.2778 195.46 44.4463 195.734 44.7832 195.939C44.9785 196.061 45.2666 196.168 45.6475 196.261L46.519 196.474C47.4663 196.703 48.1011 196.925 48.4233 197.14C48.936 197.477 49.1924 198.007 49.1924 198.729C49.1924 199.428 48.9263 200.031 48.394 200.539C47.8667 201.046 47.061 201.3 45.9771 201.3C44.8101 201.3 43.9824 201.037 43.4941 200.509C43.0107 199.977 42.752 199.32 42.7178 198.539H43.9849ZM50.7012 193.156H52.0049V194.269C52.3174 193.883 52.6006 193.603 52.8545 193.427C53.2891 193.129 53.7822 192.98 54.334 192.98C54.959 192.98 55.4619 193.134 55.8428 193.441C56.0576 193.617 56.2529 193.876 56.4287 194.218C56.7217 193.798 57.0659 193.488 57.4614 193.288C57.8569 193.083 58.3013 192.98 58.7944 192.98C59.8491 192.98 60.5669 193.361 60.9478 194.123C61.1528 194.533 61.2554 195.084 61.2554 195.778V201H59.8857V195.551C59.8857 195.028 59.7539 194.669 59.4902 194.474C59.2314 194.279 58.9141 194.181 58.5381 194.181C58.0205 194.181 57.5737 194.354 57.1978 194.701C56.8267 195.048 56.6411 195.626 56.6411 196.437V201H55.3008V195.88C55.3008 195.348 55.2373 194.96 55.1104 194.716C54.9102 194.35 54.5366 194.167 53.9897 194.167C53.4917 194.167 53.0376 194.359 52.6274 194.745C52.2222 195.131 52.0195 195.829 52.0195 196.84V201H50.7012V193.156ZM63.1963 193.192H64.5366V201H63.1963V193.192ZM63.1963 190.241H64.5366V191.735H63.1963V190.241ZM66.5068 190.241H67.7739V196.488L71.1577 193.156H72.8423L69.8394 196.093L73.0107 201H71.3262L68.8799 197.045L67.7739 198.056V201H66.5068V190.241ZM74.0361 190.204H75.3545V194.218C75.667 193.822 75.9478 193.544 76.1968 193.383C76.6216 193.104 77.1514 192.965 77.7861 192.965C78.9238 192.965 79.6953 193.363 80.1006 194.159C80.3203 194.594 80.4302 195.197 80.4302 195.968V201H79.0752V196.056C79.0752 195.48 79.002 195.058 78.8555 194.789C78.6162 194.359 78.167 194.145 77.5078 194.145C76.9609 194.145 76.4653 194.333 76.021 194.708C75.5767 195.084 75.3545 195.795 75.3545 196.84V201H74.0361V190.204ZM83.3965 198.913C83.3965 199.293 83.5356 199.594 83.814 199.813C84.0923 200.033 84.4219 200.143 84.8027 200.143C85.2666 200.143 85.7158 200.036 86.1504 199.821C86.8828 199.464 87.249 198.881 87.249 198.07V197.008C87.0879 197.111 86.8804 197.196 86.6265 197.265C86.3726 197.333 86.1235 197.382 85.8794 197.411L85.0811 197.514C84.6025 197.577 84.2437 197.677 84.0044 197.814C83.5991 198.043 83.3965 198.41 83.3965 198.913ZM86.5898 196.247C86.8926 196.208 87.0952 196.081 87.1978 195.866C87.2563 195.749 87.2856 195.58 87.2856 195.36C87.2856 194.911 87.1245 194.586 86.8022 194.386C86.4849 194.181 86.0283 194.079 85.4326 194.079C84.7441 194.079 84.2559 194.264 83.9678 194.635C83.8066 194.84 83.7017 195.146 83.6528 195.551H82.4224C82.4468 194.584 82.7593 193.913 83.3599 193.537C83.9653 193.156 84.666 192.965 85.4619 192.965C86.3848 192.965 87.1343 193.141 87.7104 193.493C88.2817 193.844 88.5674 194.391 88.5674 195.133V199.652C88.5674 199.789 88.5942 199.899 88.6479 199.982C88.7065 200.065 88.8262 200.106 89.0068 200.106C89.0654 200.106 89.1313 200.104 89.2046 200.099C89.2778 200.089 89.356 200.077 89.439 200.062V201.037C89.2339 201.095 89.0776 201.132 88.9702 201.146C88.8628 201.161 88.7163 201.168 88.5308 201.168C88.0767 201.168 87.7471 201.007 87.542 200.685C87.4346 200.514 87.3589 200.272 87.3149 199.96C87.0464 200.312 86.6606 200.617 86.1577 200.875C85.6548 201.134 85.1006 201.264 84.4951 201.264C83.7676 201.264 83.1719 201.044 82.708 200.604C82.249 200.16 82.0195 199.606 82.0195 198.942C82.0195 198.214 82.2466 197.65 82.7007 197.25C83.1548 196.85 83.7505 196.603 84.4878 196.51L86.5898 196.247ZM90.772 190.241H92.0903V201H90.772V190.241ZM97.3418 192.98C97.8984 192.98 98.438 193.112 98.9604 193.375C99.4829 193.634 99.8809 193.971 100.154 194.386C100.418 194.782 100.594 195.243 100.682 195.771C100.76 196.132 100.799 196.708 100.799 197.499H95.0493C95.0737 198.295 95.2617 198.935 95.6133 199.418C95.9648 199.896 96.5093 200.136 97.2466 200.136C97.9351 200.136 98.4844 199.909 98.8945 199.455C99.1289 199.191 99.2949 198.886 99.3926 198.539H100.689C100.655 198.827 100.54 199.149 100.345 199.506C100.154 199.857 99.9395 200.146 99.7002 200.37C99.2998 200.761 98.8042 201.024 98.2134 201.161C97.896 201.239 97.5371 201.278 97.1367 201.278C96.1602 201.278 95.3325 200.924 94.6538 200.216C93.9751 199.503 93.6357 198.507 93.6357 197.228C93.6357 195.968 93.9775 194.945 94.6611 194.159C95.3447 193.373 96.2383 192.98 97.3418 192.98ZM99.4438 196.452C99.3901 195.88 99.2656 195.424 99.0703 195.082C98.709 194.447 98.106 194.13 97.2612 194.13C96.6558 194.13 96.1479 194.35 95.7378 194.789C95.3276 195.224 95.1104 195.778 95.0859 196.452H99.4438ZM103.069 193.156L105.164 199.542L107.354 193.156H108.797L105.838 201H104.432L101.539 193.156H103.069ZM110.708 198.539C110.748 198.979 110.857 199.315 111.038 199.55C111.37 199.975 111.946 200.187 112.767 200.187C113.255 200.187 113.685 200.082 114.056 199.872C114.427 199.657 114.612 199.328 114.612 198.883C114.612 198.546 114.463 198.29 114.166 198.114C113.975 198.007 113.599 197.882 113.038 197.741L111.99 197.477C111.321 197.311 110.828 197.125 110.511 196.92C109.944 196.564 109.661 196.071 109.661 195.441C109.661 194.699 109.927 194.098 110.459 193.639C110.997 193.18 111.717 192.951 112.62 192.951C113.802 192.951 114.654 193.297 115.176 193.991C115.503 194.43 115.662 194.904 115.652 195.412H114.407C114.383 195.114 114.278 194.843 114.092 194.599C113.79 194.252 113.265 194.079 112.518 194.079C112.02 194.079 111.641 194.174 111.382 194.364C111.128 194.555 111.001 194.806 111.001 195.119C111.001 195.46 111.17 195.734 111.507 195.939C111.702 196.061 111.99 196.168 112.371 196.261L113.243 196.474C114.19 196.703 114.825 196.925 115.147 197.14C115.66 197.477 115.916 198.007 115.916 198.729C115.916 199.428 115.65 200.031 115.118 200.539C114.59 201.046 113.785 201.3 112.701 201.3C111.534 201.3 110.706 201.037 110.218 200.509C109.734 199.977 109.476 199.32 109.441 198.539H110.708ZM117.396 190.241H118.663V196.488L122.046 193.156H123.731L120.728 196.093L123.899 201H122.215L119.769 197.045L118.663 198.056V201H117.396V190.241ZM124.925 193.192H126.265V201H124.925V193.192ZM124.925 190.241H126.265V191.735H124.925V190.241ZM130.711 190.241H131.824L128.411 201H127.298L130.711 190.241ZM136.102 199.513V201.073L135.113 201.11C134.126 201.144 133.453 200.973 133.091 200.597C132.857 200.358 132.74 199.989 132.74 199.491V194.577H131.626V193.09H132.74V190.863H134.805V193.09H136.102V194.577H134.805V198.795C134.805 199.123 134.847 199.328 134.93 199.411C135.013 199.489 135.267 199.528 135.691 199.528C135.755 199.528 135.821 199.528 135.889 199.528C135.962 199.523 136.033 199.518 136.102 199.513ZM141.456 194.943C140.616 194.943 140.052 195.216 139.764 195.763C139.603 196.071 139.522 196.544 139.522 197.184V201H137.42V193.017H139.412V194.408C139.734 193.876 140.015 193.512 140.254 193.317C140.645 192.99 141.153 192.826 141.778 192.826C141.817 192.826 141.849 192.829 141.873 192.833C141.902 192.833 141.963 192.836 142.056 192.841V194.979C141.924 194.965 141.807 194.955 141.705 194.95C141.602 194.945 141.519 194.943 141.456 194.943ZM145.433 193.017V201H143.316V193.017H145.433ZM145.433 190.138V192.064H143.316V190.138H145.433ZM154.295 198.656C154.241 199.13 153.995 199.611 153.555 200.099C152.872 200.875 151.915 201.264 150.684 201.264C149.668 201.264 148.772 200.937 147.996 200.282C147.22 199.628 146.832 198.563 146.832 197.089C146.832 195.707 147.181 194.647 147.879 193.91C148.582 193.173 149.493 192.804 150.611 192.804C151.275 192.804 151.873 192.929 152.405 193.178C152.938 193.427 153.377 193.82 153.724 194.357C154.036 194.831 154.239 195.38 154.332 196.005C154.385 196.371 154.407 196.898 154.397 197.587H148.934C148.963 198.388 149.214 198.949 149.688 199.271C149.976 199.472 150.323 199.572 150.728 199.572C151.158 199.572 151.507 199.45 151.775 199.206C151.922 199.074 152.051 198.891 152.164 198.656H154.295ZM152.229 196.21C152.195 195.658 152.027 195.241 151.724 194.958C151.426 194.669 151.055 194.525 150.611 194.525C150.127 194.525 149.751 194.677 149.483 194.979C149.219 195.282 149.053 195.692 148.985 196.21H152.229ZM163.985 194.459C163.985 194.157 163.882 193.886 163.677 193.646C163.477 193.402 163.199 193.28 162.842 193.28C162.286 193.28 161.802 193.61 161.392 194.269C160.987 194.923 160.784 195.575 160.784 196.225C160.784 196.703 160.889 197.069 161.099 197.323C161.309 197.572 161.573 197.697 161.89 197.697C162.549 197.697 163.062 197.313 163.428 196.547C163.799 195.775 163.985 195.08 163.985 194.459ZM162.527 201.315C160.486 201.315 158.914 200.678 157.811 199.403C156.927 198.383 156.485 197.204 156.485 195.866C156.485 194.274 157.022 192.921 158.096 191.808C159.288 190.568 160.887 189.948 162.894 189.948C164.632 189.948 165.999 190.387 166.995 191.266C167.928 192.096 168.394 193.173 168.394 194.496C168.394 195.609 168.06 196.562 167.391 197.353C166.727 198.139 165.982 198.532 165.157 198.532C164.673 198.532 164.317 198.417 164.087 198.188C163.858 197.953 163.743 197.672 163.743 197.345C163.743 197.292 163.748 197.235 163.758 197.177C163.768 197.118 163.78 197.057 163.794 196.994C163.536 197.555 163.208 197.953 162.813 198.188C162.417 198.417 162.01 198.532 161.59 198.532C160.989 198.532 160.501 198.314 160.125 197.88C159.754 197.445 159.568 196.886 159.568 196.203C159.568 195.231 159.886 194.374 160.521 193.632C161.16 192.89 161.846 192.519 162.579 192.519C163.077 192.519 163.487 192.663 163.809 192.951C164.136 193.239 164.31 193.585 164.329 193.991L164.695 192.76H165.772L164.798 195.968C164.725 196.217 164.671 196.417 164.637 196.569C164.603 196.72 164.585 196.854 164.585 196.972C164.585 197.191 164.651 197.353 164.783 197.455C164.92 197.553 165.074 197.602 165.245 197.602C165.801 197.602 166.299 197.311 166.739 196.73C167.183 196.149 167.405 195.39 167.405 194.452C167.405 193.319 167.01 192.431 166.219 191.786C165.428 191.137 164.363 190.812 163.025 190.812C161.17 190.812 159.751 191.354 158.77 192.438C157.93 193.361 157.51 194.521 157.51 195.917C157.51 197.138 157.911 198.163 158.711 198.993C159.649 199.975 160.984 200.465 162.718 200.465C163.528 200.465 164.283 200.338 164.981 200.084C165.679 199.826 166.319 199.479 166.9 199.044L167.383 199.704C166.944 200.094 166.287 200.46 165.413 200.802C164.539 201.144 163.577 201.315 162.527 201.315ZM175.03 197.287V192.533L171.668 197.287H175.03ZM175.052 201V198.437H170.452V197.147L175.257 190.482H176.37V197.287H177.916V198.437H176.37V201H175.052ZM179.703 199.403H181.233V201H179.703V199.403ZM186.653 190.512C188.011 190.512 188.992 191.071 189.598 192.189C190.066 193.053 190.301 194.237 190.301 195.741C190.301 197.167 190.088 198.346 189.664 199.279C189.048 200.617 188.042 201.286 186.646 201.286C185.386 201.286 184.449 200.739 183.833 199.645C183.321 198.732 183.064 197.506 183.064 195.968C183.064 194.777 183.218 193.754 183.526 192.899C184.102 191.308 185.145 190.512 186.653 190.512ZM186.639 200.084C187.322 200.084 187.867 199.782 188.272 199.176C188.677 198.571 188.88 197.443 188.88 195.792C188.88 194.601 188.733 193.622 188.44 192.855C188.147 192.084 187.579 191.698 186.734 191.698C185.958 191.698 185.389 192.064 185.027 192.797C184.671 193.524 184.493 194.599 184.493 196.02C184.493 197.089 184.607 197.948 184.837 198.598C185.188 199.589 185.789 200.084 186.639 200.084ZM192.227 199.403H193.758V201H192.227V199.403ZM199.178 190.512C200.535 190.512 201.517 191.071 202.122 192.189C202.591 193.053 202.825 194.237 202.825 195.741C202.825 197.167 202.613 198.346 202.188 199.279C201.573 200.617 200.567 201.286 199.17 201.286C197.911 201.286 196.973 200.739 196.358 199.645C195.845 198.732 195.589 197.506 195.589 195.968C195.589 194.777 195.743 193.754 196.05 192.899C196.626 191.308 197.669 190.512 199.178 190.512ZM199.163 200.084C199.847 200.084 200.391 199.782 200.796 199.176C201.202 198.571 201.404 197.443 201.404 195.792C201.404 194.601 201.258 193.622 200.965 192.855C200.672 192.084 200.103 191.698 199.258 191.698C198.482 191.698 197.913 192.064 197.552 192.797C197.195 193.524 197.017 194.599 197.017 196.02C197.017 197.089 197.132 197.948 197.361 198.598C197.713 199.589 198.313 200.084 199.163 200.084Z" fill="black"/>
<path d="M216.45 185V168H310.965C311.233 168 311.45 168.895 311.45 170V183C311.45 184.105 311.233 185 310.965 185H216.45Z" fill="#F7BE19"/>
<path d="M216.45 204V187H518.899C519.756 187 520.45 187.895 520.45 189V202C520.45 203.105 519.756 204 518.899 204H216.45Z" fill="#4285F4"/>
<path d="M216 223V206H573.223C574.204 206 575 206.895 575 208V221C575 222.105 574.204 223 573.223 223H216Z" fill="#EA4335"/>
<path d="M215.95 57V419" stroke="#333333" stroke-miterlimit="10"/>
</svg>
