<svg width="735" height="514" viewBox="0 0 735 514" fill="none" xmlns="http://www.w3.org/2000/svg">
<rect width="735" height="514" rx="5" fill="white"/>
<path d="M345.106 476.241H347.193L350.284 485.337L353.353 476.241H355.418V487H354.034V480.65C354.034 480.43 354.039 480.066 354.049 479.559C354.059 479.051 354.063 478.506 354.063 477.925L350.995 487H349.552L346.461 477.925V478.255C346.461 478.519 346.466 478.921 346.476 479.463C346.49 480 346.498 480.396 346.498 480.65V487H345.106V476.241ZM357.462 479.192H358.802V487H357.462V479.192ZM357.462 476.241H358.802V477.735H357.462V476.241ZM360.838 476.241H362.157V487H360.838V476.241ZM364.178 476.241H365.497V487H364.178V476.241ZM367.481 479.192H368.822V487H367.481V479.192ZM367.481 476.241H368.822V477.735H367.481V476.241ZM373.934 486.15C374.808 486.15 375.406 485.821 375.729 485.162C376.056 484.498 376.219 483.76 376.219 482.95C376.219 482.217 376.102 481.622 375.868 481.163C375.497 480.44 374.857 480.079 373.949 480.079C373.143 480.079 372.557 480.386 372.191 481.001C371.825 481.617 371.642 482.359 371.642 483.228C371.642 484.063 371.825 484.759 372.191 485.315C372.557 485.872 373.138 486.15 373.934 486.15ZM373.985 478.929C374.996 478.929 375.851 479.266 376.549 479.939C377.247 480.613 377.596 481.604 377.596 482.913C377.596 484.178 377.289 485.223 376.673 486.048C376.058 486.873 375.104 487.286 373.81 487.286C372.73 487.286 371.874 486.922 371.239 486.194C370.604 485.462 370.287 484.48 370.287 483.25C370.287 481.932 370.621 480.882 371.29 480.101C371.959 479.319 372.857 478.929 373.985 478.929ZM379.171 479.156H380.423V480.269C380.794 479.81 381.188 479.48 381.603 479.28C382.018 479.08 382.479 478.98 382.987 478.98C384.1 478.98 384.852 479.368 385.243 480.145C385.458 480.569 385.565 481.177 385.565 481.968V487H384.225V482.056C384.225 481.578 384.154 481.192 384.012 480.899C383.778 480.411 383.353 480.167 382.738 480.167C382.425 480.167 382.169 480.198 381.969 480.262C381.607 480.369 381.29 480.584 381.017 480.906C380.797 481.165 380.653 481.434 380.584 481.712C380.521 481.985 380.489 482.378 380.489 482.891V487H379.171V479.156ZM388.304 484.539C388.343 484.979 388.453 485.315 388.634 485.55C388.966 485.975 389.542 486.187 390.362 486.187C390.851 486.187 391.28 486.082 391.651 485.872C392.022 485.657 392.208 485.328 392.208 484.883C392.208 484.546 392.059 484.29 391.761 484.114C391.571 484.007 391.195 483.882 390.633 483.741L389.586 483.477C388.917 483.311 388.424 483.125 388.106 482.92C387.54 482.564 387.257 482.071 387.257 481.441C387.257 480.699 387.523 480.098 388.055 479.639C388.592 479.18 389.312 478.951 390.216 478.951C391.397 478.951 392.25 479.297 392.772 479.991C393.099 480.43 393.258 480.904 393.248 481.412H392.003C391.979 481.114 391.874 480.843 391.688 480.599C391.385 480.252 390.86 480.079 390.113 480.079C389.615 480.079 389.237 480.174 388.978 480.364C388.724 480.555 388.597 480.806 388.597 481.119C388.597 481.46 388.766 481.734 389.103 481.939C389.298 482.061 389.586 482.168 389.967 482.261L390.838 482.474C391.786 482.703 392.42 482.925 392.743 483.14C393.255 483.477 393.512 484.007 393.512 484.729C393.512 485.428 393.246 486.031 392.713 486.539C392.186 487.046 391.38 487.3 390.296 487.3C389.129 487.3 388.302 487.037 387.813 486.509C387.33 485.977 387.071 485.32 387.037 484.539H388.304ZM402.308 486.15C403.182 486.15 403.78 485.821 404.103 485.162C404.43 484.498 404.593 483.76 404.593 482.95C404.593 482.217 404.476 481.622 404.242 481.163C403.871 480.44 403.231 480.079 402.323 480.079C401.517 480.079 400.931 480.386 400.565 481.001C400.199 481.617 400.016 482.359 400.016 483.228C400.016 484.063 400.199 484.759 400.565 485.315C400.931 485.872 401.512 486.15 402.308 486.15ZM402.359 478.929C403.37 478.929 404.225 479.266 404.923 479.939C405.621 480.613 405.97 481.604 405.97 482.913C405.97 484.178 405.663 485.223 405.047 486.048C404.432 486.873 403.478 487.286 402.184 487.286C401.104 487.286 400.248 486.922 399.613 486.194C398.978 485.462 398.661 484.48 398.661 483.25C398.661 481.932 398.995 480.882 399.664 480.101C400.333 479.319 401.231 478.929 402.359 478.929ZM407.875 477.962C407.894 477.415 407.989 477.015 408.16 476.761C408.468 476.312 409.061 476.087 409.94 476.087C410.023 476.087 410.108 476.089 410.196 476.094C410.284 476.099 410.384 476.106 410.497 476.116V477.317C410.36 477.308 410.26 477.303 410.196 477.303C410.138 477.298 410.082 477.295 410.028 477.295C409.627 477.295 409.388 477.4 409.31 477.61C409.232 477.815 409.193 478.343 409.193 479.192H410.497V480.232H409.178V487H407.875V480.232H406.783V479.192H407.875V477.962ZM419.007 486.15C419.881 486.15 420.479 485.821 420.802 485.162C421.129 484.498 421.292 483.76 421.292 482.95C421.292 482.217 421.175 481.622 420.941 481.163C420.57 480.44 419.93 480.079 419.022 480.079C418.216 480.079 417.63 480.386 417.264 481.001C416.898 481.617 416.715 482.359 416.715 483.228C416.715 484.063 416.898 484.759 417.264 485.315C417.63 485.872 418.211 486.15 419.007 486.15ZM419.059 478.929C420.069 478.929 420.924 479.266 421.622 479.939C422.32 480.613 422.669 481.604 422.669 482.913C422.669 484.178 422.362 485.223 421.747 486.048C421.131 486.873 420.177 487.286 418.883 487.286C417.804 487.286 416.947 486.922 416.312 486.194C415.677 485.462 415.36 484.48 415.36 483.25C415.36 481.932 415.694 480.882 416.363 480.101C417.032 479.319 417.931 478.929 419.059 478.929ZM427.555 486.114C428.17 486.114 428.68 485.857 429.085 485.345C429.496 484.827 429.701 484.056 429.701 483.03C429.701 482.405 429.61 481.868 429.43 481.419C429.088 480.555 428.463 480.123 427.555 480.123C426.642 480.123 426.017 480.579 425.68 481.492C425.499 481.98 425.409 482.601 425.409 483.353C425.409 483.958 425.499 484.473 425.68 484.898C426.021 485.708 426.646 486.114 427.555 486.114ZM424.142 479.192H425.423V480.232C425.687 479.876 425.975 479.6 426.288 479.405C426.732 479.112 427.254 478.965 427.855 478.965C428.744 478.965 429.498 479.307 430.118 479.991C430.738 480.669 431.048 481.641 431.048 482.906C431.048 484.615 430.602 485.835 429.708 486.568C429.142 487.032 428.482 487.264 427.73 487.264C427.14 487.264 426.644 487.134 426.244 486.875C426.009 486.729 425.748 486.478 425.46 486.121V490.127H424.142V479.192ZM435.86 478.98C436.417 478.98 436.957 479.112 437.479 479.375C438.001 479.634 438.399 479.971 438.673 480.386C438.937 480.782 439.112 481.243 439.2 481.771C439.278 482.132 439.317 482.708 439.317 483.499H433.568C433.592 484.295 433.78 484.935 434.132 485.418C434.483 485.896 435.028 486.136 435.765 486.136C436.454 486.136 437.003 485.909 437.413 485.455C437.647 485.191 437.813 484.886 437.911 484.539H439.208C439.173 484.827 439.059 485.149 438.863 485.506C438.673 485.857 438.458 486.146 438.219 486.37C437.818 486.761 437.323 487.024 436.732 487.161C436.415 487.239 436.056 487.278 435.655 487.278C434.679 487.278 433.851 486.924 433.172 486.216C432.494 485.503 432.154 484.507 432.154 483.228C432.154 481.968 432.496 480.945 433.18 480.159C433.863 479.373 434.757 478.98 435.86 478.98ZM437.962 482.452C437.909 481.88 437.784 481.424 437.589 481.082C437.228 480.447 436.625 480.13 435.78 480.13C435.174 480.13 434.667 480.35 434.256 480.789C433.846 481.224 433.629 481.778 433.604 482.452H437.962ZM440.98 479.156H442.232V480.511C442.335 480.247 442.586 479.927 442.987 479.551C443.387 479.17 443.849 478.98 444.371 478.98C444.396 478.98 444.437 478.982 444.496 478.987C444.554 478.992 444.654 479.002 444.796 479.017V480.408C444.718 480.394 444.645 480.384 444.576 480.379C444.513 480.374 444.442 480.372 444.364 480.372C443.7 480.372 443.189 480.586 442.833 481.016C442.477 481.441 442.298 481.932 442.298 482.488V487H440.98V479.156ZM446.949 484.913C446.949 485.293 447.088 485.594 447.367 485.813C447.645 486.033 447.975 486.143 448.355 486.143C448.819 486.143 449.269 486.036 449.703 485.821C450.436 485.464 450.802 484.881 450.802 484.07V483.008C450.641 483.111 450.433 483.196 450.179 483.265C449.925 483.333 449.676 483.382 449.432 483.411L448.634 483.514C448.155 483.577 447.796 483.677 447.557 483.814C447.152 484.043 446.949 484.41 446.949 484.913ZM450.143 482.247C450.445 482.208 450.648 482.081 450.75 481.866C450.809 481.749 450.838 481.58 450.838 481.36C450.838 480.911 450.677 480.586 450.355 480.386C450.038 480.181 449.581 480.079 448.985 480.079C448.297 480.079 447.809 480.264 447.521 480.635C447.359 480.84 447.254 481.146 447.206 481.551H445.975C446 480.584 446.312 479.913 446.913 479.537C447.518 479.156 448.219 478.965 449.015 478.965C449.938 478.965 450.687 479.141 451.263 479.493C451.834 479.844 452.12 480.391 452.12 481.133V485.652C452.12 485.789 452.147 485.899 452.201 485.982C452.259 486.065 452.379 486.106 452.56 486.106C452.618 486.106 452.684 486.104 452.757 486.099C452.831 486.089 452.909 486.077 452.992 486.062V487.037C452.787 487.095 452.63 487.132 452.523 487.146C452.416 487.161 452.269 487.168 452.083 487.168C451.629 487.168 451.3 487.007 451.095 486.685C450.987 486.514 450.912 486.272 450.868 485.96C450.599 486.312 450.213 486.617 449.71 486.875C449.208 487.134 448.653 487.264 448.048 487.264C447.32 487.264 446.725 487.044 446.261 486.604C445.802 486.16 445.572 485.606 445.572 484.942C445.572 484.214 445.799 483.65 446.253 483.25C446.708 482.85 447.303 482.603 448.041 482.51L450.143 482.247ZM454.552 476.966H455.885V479.156H457.137V480.232H455.885V485.352C455.885 485.625 455.978 485.809 456.163 485.901C456.266 485.955 456.437 485.982 456.676 485.982C456.739 485.982 456.808 485.982 456.881 485.982C456.954 485.977 457.04 485.97 457.137 485.96V487C456.986 487.044 456.827 487.076 456.661 487.095C456.5 487.115 456.324 487.125 456.134 487.125C455.519 487.125 455.101 486.968 454.881 486.656C454.662 486.338 454.552 485.928 454.552 485.425V480.232H453.49V479.156H454.552V476.966ZM458.463 479.192H459.803V487H458.463V479.192ZM458.463 476.241H459.803V477.735H458.463V476.241ZM464.916 486.15C465.79 486.15 466.388 485.821 466.71 485.162C467.037 484.498 467.201 483.76 467.201 482.95C467.201 482.217 467.083 481.622 466.849 481.163C466.478 480.44 465.838 480.079 464.93 480.079C464.125 480.079 463.539 480.386 463.172 481.001C462.806 481.617 462.623 482.359 462.623 483.228C462.623 484.063 462.806 484.759 463.172 485.315C463.539 485.872 464.12 486.15 464.916 486.15ZM464.967 478.929C465.978 478.929 466.832 479.266 467.53 479.939C468.229 480.613 468.578 481.604 468.578 482.913C468.578 484.178 468.27 485.223 467.655 486.048C467.04 486.873 466.085 487.286 464.791 487.286C463.712 487.286 462.855 486.922 462.22 486.194C461.585 485.462 461.268 484.48 461.268 483.25C461.268 481.932 461.603 480.882 462.271 480.101C462.94 479.319 463.839 478.929 464.967 478.929ZM470.152 479.156H471.405V480.269C471.776 479.81 472.169 479.48 472.584 479.28C472.999 479.08 473.46 478.98 473.968 478.98C475.082 478.98 475.833 479.368 476.224 480.145C476.439 480.569 476.546 481.177 476.546 481.968V487H475.206V482.056C475.206 481.578 475.135 481.192 474.994 480.899C474.759 480.411 474.334 480.167 473.719 480.167C473.407 480.167 473.15 480.198 472.95 480.262C472.589 480.369 472.271 480.584 471.998 480.906C471.778 481.165 471.634 481.434 471.566 481.712C471.502 481.985 471.471 482.378 471.471 482.891V487H470.152V479.156ZM479.286 484.539C479.325 484.979 479.435 485.315 479.615 485.55C479.947 485.975 480.523 486.187 481.344 486.187C481.832 486.187 482.262 486.082 482.633 485.872C483.004 485.657 483.189 485.328 483.189 484.883C483.189 484.546 483.041 484.29 482.743 484.114C482.552 484.007 482.176 483.882 481.615 483.741L480.567 483.477C479.898 483.311 479.405 483.125 479.088 482.92C478.521 482.564 478.238 482.071 478.238 481.441C478.238 480.699 478.504 480.098 479.037 479.639C479.574 479.18 480.294 478.951 481.197 478.951C482.379 478.951 483.231 479.297 483.753 479.991C484.081 480.43 484.239 480.904 484.229 481.412H482.984C482.96 481.114 482.855 480.843 482.669 480.599C482.367 480.252 481.842 480.079 481.095 480.079C480.597 480.079 480.218 480.174 479.959 480.364C479.706 480.555 479.579 480.806 479.579 481.119C479.579 481.46 479.747 481.734 480.084 481.939C480.279 482.061 480.567 482.168 480.948 482.261L481.82 482.474C482.767 482.703 483.402 482.925 483.724 483.14C484.237 483.477 484.493 484.007 484.493 484.729C484.493 485.428 484.227 486.031 483.695 486.539C483.167 487.046 482.362 487.3 481.278 487.3C480.111 487.3 479.283 487.037 478.795 486.509C478.312 485.977 478.053 485.32 478.019 484.539H479.286ZM493.487 486.114C494.103 486.114 494.613 485.857 495.018 485.345C495.428 484.827 495.633 484.056 495.633 483.03C495.633 482.405 495.543 481.868 495.362 481.419C495.021 480.555 494.396 480.123 493.487 480.123C492.574 480.123 491.949 480.579 491.612 481.492C491.432 481.98 491.341 482.601 491.341 483.353C491.341 483.958 491.432 484.473 491.612 484.898C491.954 485.708 492.579 486.114 493.487 486.114ZM490.074 479.192H491.356V480.232C491.62 479.876 491.908 479.6 492.22 479.405C492.665 479.112 493.187 478.965 493.788 478.965C494.676 478.965 495.431 479.307 496.051 479.991C496.671 480.669 496.981 481.641 496.981 482.906C496.981 484.615 496.534 485.835 495.641 486.568C495.074 487.032 494.415 487.264 493.663 487.264C493.072 487.264 492.577 487.134 492.176 486.875C491.942 486.729 491.681 486.478 491.393 486.121V490.127H490.074V479.192ZM501.793 478.98C502.35 478.98 502.889 479.112 503.412 479.375C503.934 479.634 504.332 479.971 504.605 480.386C504.869 480.782 505.045 481.243 505.133 481.771C505.211 482.132 505.25 482.708 505.25 483.499H499.5C499.525 484.295 499.713 484.935 500.064 485.418C500.416 485.896 500.96 486.136 501.698 486.136C502.386 486.136 502.936 485.909 503.346 485.455C503.58 485.191 503.746 484.886 503.844 484.539H505.14C505.106 484.827 504.991 485.149 504.796 485.506C504.605 485.857 504.391 486.146 504.151 486.37C503.751 486.761 503.255 487.024 502.665 487.161C502.347 487.239 501.988 487.278 501.588 487.278C500.611 487.278 499.784 486.924 499.105 486.216C498.426 485.503 498.087 484.507 498.087 483.228C498.087 481.968 498.429 480.945 499.112 480.159C499.796 479.373 500.689 478.98 501.793 478.98ZM503.895 482.452C503.841 481.88 503.717 481.424 503.521 481.082C503.16 480.447 502.557 480.13 501.712 480.13C501.107 480.13 500.599 480.35 500.189 480.789C499.779 481.224 499.562 481.778 499.537 482.452H503.895ZM506.913 479.156H508.165V480.511C508.268 480.247 508.519 479.927 508.919 479.551C509.32 479.17 509.781 478.98 510.304 478.98C510.328 478.98 510.37 478.982 510.428 478.987C510.487 478.992 510.587 479.002 510.729 479.017V480.408C510.65 480.394 510.577 480.384 510.509 480.379C510.445 480.374 510.375 480.372 510.296 480.372C509.632 480.372 509.122 480.586 508.766 481.016C508.409 481.441 508.231 481.932 508.231 482.488V487H506.913V479.156ZM516.83 484.539C516.869 484.979 516.979 485.315 517.159 485.55C517.491 485.975 518.067 486.187 518.888 486.187C519.376 486.187 519.806 486.082 520.177 485.872C520.548 485.657 520.733 485.328 520.733 484.883C520.733 484.546 520.584 484.29 520.287 484.114C520.096 484.007 519.72 483.882 519.159 483.741L518.111 483.477C517.442 483.311 516.949 483.125 516.632 482.92C516.065 482.564 515.782 482.071 515.782 481.441C515.782 480.699 516.048 480.098 516.581 479.639C517.118 479.18 517.838 478.951 518.741 478.951C519.923 478.951 520.775 479.297 521.297 479.991C521.625 480.43 521.783 480.904 521.773 481.412H520.528C520.504 481.114 520.399 480.843 520.213 480.599C519.911 480.252 519.386 480.079 518.639 480.079C518.141 480.079 517.762 480.174 517.503 480.364C517.25 480.555 517.123 480.806 517.123 481.119C517.123 481.46 517.291 481.734 517.628 481.939C517.823 482.061 518.111 482.168 518.492 482.261L519.364 482.474C520.311 482.703 520.946 482.925 521.268 483.14C521.781 483.477 522.037 484.007 522.037 484.729C522.037 485.428 521.771 486.031 521.239 486.539C520.711 487.046 519.906 487.3 518.822 487.3C517.655 487.3 516.827 487.037 516.339 486.509C515.855 485.977 515.597 485.32 515.562 484.539H516.83ZM526.812 478.98C527.369 478.98 527.909 479.112 528.431 479.375C528.954 479.634 529.352 479.971 529.625 480.386C529.889 480.782 530.064 481.243 530.152 481.771C530.23 482.132 530.27 482.708 530.27 483.499H524.52C524.544 484.295 524.732 484.935 525.084 485.418C525.436 485.896 525.98 486.136 526.717 486.136C527.406 486.136 527.955 485.909 528.365 485.455C528.6 485.191 528.766 484.886 528.863 484.539H530.16C530.125 484.827 530.011 485.149 529.815 485.506C529.625 485.857 529.41 486.146 529.171 486.37C528.771 486.761 528.275 487.024 527.684 487.161C527.367 487.239 527.008 487.278 526.607 487.278C525.631 487.278 524.803 486.924 524.125 486.216C523.446 485.503 523.106 484.507 523.106 483.228C523.106 481.968 523.448 480.945 524.132 480.159C524.815 479.373 525.709 478.98 526.812 478.98ZM528.915 482.452C528.861 481.88 528.736 481.424 528.541 481.082C528.18 480.447 527.577 480.13 526.732 480.13C526.126 480.13 525.619 480.35 525.208 480.789C524.798 481.224 524.581 481.778 524.557 482.452H528.915ZM534.92 478.929C535.804 478.929 536.522 479.144 537.074 479.573C537.63 480.003 537.965 480.743 538.077 481.792H536.795C536.717 481.309 536.539 480.909 536.261 480.591C535.982 480.269 535.536 480.108 534.92 480.108C534.081 480.108 533.48 480.518 533.119 481.338C532.884 481.871 532.767 482.527 532.767 483.309C532.767 484.095 532.933 484.756 533.265 485.293C533.597 485.831 534.12 486.099 534.833 486.099C535.379 486.099 535.812 485.933 536.129 485.601C536.451 485.264 536.673 484.805 536.795 484.224H538.077C537.931 485.264 537.564 486.026 536.979 486.509C536.393 486.988 535.643 487.227 534.73 487.227C533.705 487.227 532.887 486.854 532.276 486.106C531.666 485.354 531.361 484.417 531.361 483.294C531.361 481.917 531.695 480.845 532.364 480.079C533.033 479.312 533.885 478.929 534.92 478.929ZM542.508 486.15C543.382 486.15 543.98 485.821 544.303 485.162C544.63 484.498 544.793 483.76 544.793 482.95C544.793 482.217 544.676 481.622 544.442 481.163C544.071 480.44 543.431 480.079 542.523 480.079C541.717 480.079 541.131 480.386 540.765 481.001C540.399 481.617 540.216 482.359 540.216 483.228C540.216 484.063 540.399 484.759 540.765 485.315C541.131 485.872 541.712 486.15 542.508 486.15ZM542.56 478.929C543.57 478.929 544.425 479.266 545.123 479.939C545.821 480.613 546.17 481.604 546.17 482.913C546.17 484.178 545.863 485.223 545.248 486.048C544.632 486.873 543.678 487.286 542.384 487.286C541.305 487.286 540.448 486.922 539.813 486.194C539.178 485.462 538.861 484.48 538.861 483.25C538.861 481.932 539.195 480.882 539.864 480.101C540.533 479.319 541.432 478.929 542.56 478.929ZM547.745 479.156H548.998V480.269C549.369 479.81 549.762 479.48 550.177 479.28C550.592 479.08 551.053 478.98 551.561 478.98C552.674 478.98 553.426 479.368 553.817 480.145C554.032 480.569 554.139 481.177 554.139 481.968V487H552.799V482.056C552.799 481.578 552.728 481.192 552.586 480.899C552.352 480.411 551.927 480.167 551.312 480.167C551 480.167 550.743 480.198 550.543 480.262C550.182 480.369 549.864 480.584 549.591 480.906C549.371 481.165 549.227 481.434 549.159 481.712C549.095 481.985 549.063 482.378 549.063 482.891V487H547.745V479.156ZM556.93 483.169C556.93 484.009 557.108 484.712 557.464 485.279C557.821 485.845 558.392 486.128 559.178 486.128C559.789 486.128 560.289 485.867 560.68 485.345C561.075 484.817 561.273 484.063 561.273 483.082C561.273 482.09 561.07 481.358 560.665 480.884C560.26 480.406 559.759 480.167 559.164 480.167C558.5 480.167 557.96 480.42 557.545 480.928C557.135 481.436 556.93 482.183 556.93 483.169ZM558.915 479.017C559.515 479.017 560.018 479.144 560.423 479.397C560.658 479.544 560.924 479.8 561.222 480.167V476.204H562.489V487H561.302V485.909C560.995 486.392 560.631 486.741 560.211 486.956C559.791 487.171 559.31 487.278 558.768 487.278C557.894 487.278 557.137 486.912 556.498 486.18C555.858 485.442 555.538 484.463 555.538 483.243C555.538 482.1 555.829 481.111 556.41 480.276C556.996 479.437 557.831 479.017 558.915 479.017Z" fill="black"/>
<path d="M216.246 449.609C217.332 449.609 218.117 450.057 218.602 450.951C218.977 451.643 219.164 452.59 219.164 453.793C219.164 454.934 218.994 455.877 218.654 456.623C218.162 457.693 217.357 458.229 216.24 458.229C215.232 458.229 214.482 457.791 213.99 456.916C213.58 456.186 213.375 455.205 213.375 453.975C213.375 453.021 213.498 452.203 213.744 451.52C214.205 450.246 215.039 449.609 216.246 449.609ZM216.234 457.268C216.781 457.268 217.217 457.025 217.541 456.541C217.865 456.057 218.027 455.154 218.027 453.834C218.027 452.881 217.91 452.098 217.676 451.484C217.441 450.867 216.986 450.559 216.311 450.559C215.689 450.559 215.234 450.852 214.945 451.438C214.66 452.02 214.518 452.879 214.518 454.016C214.518 454.871 214.609 455.559 214.793 456.078C215.074 456.871 215.555 457.268 216.234 457.268Z" fill="black"/>
<path d="M333.482 455.861C333.553 456.463 333.832 456.879 334.32 457.109C334.57 457.227 334.859 457.285 335.188 457.285C335.812 457.285 336.275 457.086 336.576 456.688C336.877 456.289 337.027 455.848 337.027 455.363C337.027 454.777 336.848 454.324 336.488 454.004C336.133 453.684 335.705 453.523 335.205 453.523C334.842 453.523 334.529 453.594 334.268 453.734C334.01 453.875 333.789 454.07 333.605 454.32L332.691 454.268L333.33 449.75H337.689V450.77H334.121L333.764 453.102C333.959 452.953 334.145 452.842 334.32 452.768C334.633 452.639 334.994 452.574 335.404 452.574C336.174 452.574 336.826 452.822 337.361 453.318C337.896 453.814 338.164 454.443 338.164 455.205C338.164 455.998 337.918 456.697 337.426 457.303C336.938 457.908 336.156 458.211 335.082 458.211C334.398 458.211 333.793 458.02 333.266 457.637C332.742 457.25 332.449 456.658 332.387 455.861H333.482Z" fill="black"/>
<path d="M448.148 452.059V451.25C448.91 451.176 449.441 451.053 449.742 450.881C450.043 450.705 450.268 450.293 450.416 449.645H451.248V458H450.123V452.059H448.148ZM456.926 449.609C458.012 449.609 458.797 450.057 459.281 450.951C459.656 451.643 459.844 452.59 459.844 453.793C459.844 454.934 459.674 455.877 459.334 456.623C458.842 457.693 458.037 458.229 456.92 458.229C455.912 458.229 455.162 457.791 454.67 456.916C454.26 456.186 454.055 455.205 454.055 453.975C454.055 453.021 454.178 452.203 454.424 451.52C454.885 450.246 455.719 449.609 456.926 449.609ZM456.914 457.268C457.461 457.268 457.896 457.025 458.221 456.541C458.545 456.057 458.707 455.154 458.707 453.834C458.707 452.881 458.59 452.098 458.355 451.484C458.121 450.867 457.666 450.559 456.99 450.559C456.369 450.559 455.914 450.852 455.625 451.438C455.34 452.02 455.197 452.879 455.197 454.016C455.197 454.871 455.289 455.559 455.473 456.078C455.754 456.871 456.234 457.268 456.914 457.268Z" fill="black"/>
<path d="M567.148 452.059V451.25C567.91 451.176 568.441 451.053 568.742 450.881C569.043 450.705 569.268 450.293 569.416 449.645H570.248V458H569.123V452.059H567.148ZM574.162 455.861C574.232 456.463 574.512 456.879 575 457.109C575.25 457.227 575.539 457.285 575.867 457.285C576.492 457.285 576.955 457.086 577.256 456.688C577.557 456.289 577.707 455.848 577.707 455.363C577.707 454.777 577.527 454.324 577.168 454.004C576.812 453.684 576.385 453.523 575.885 453.523C575.521 453.523 575.209 453.594 574.947 453.734C574.689 453.875 574.469 454.07 574.285 454.32L573.371 454.268L574.01 449.75H578.369V450.77H574.801L574.443 453.102C574.639 452.953 574.824 452.842 575 452.768C575.312 452.639 575.674 452.574 576.084 452.574C576.854 452.574 577.506 452.822 578.041 453.318C578.576 453.814 578.844 454.443 578.844 455.205C578.844 455.998 578.598 456.697 578.105 457.303C577.617 457.908 576.836 458.211 575.762 458.211C575.078 458.211 574.473 458.02 573.945 457.637C573.422 457.25 573.129 456.658 573.066 455.861H574.162Z" fill="black"/>
<path d="M685.375 458C685.414 457.277 685.562 456.648 685.82 456.113C686.082 455.578 686.59 455.092 687.344 454.654L688.469 454.004C688.973 453.711 689.326 453.461 689.529 453.254C689.85 452.93 690.01 452.559 690.01 452.141C690.01 451.652 689.863 451.266 689.57 450.98C689.277 450.691 688.887 450.547 688.398 450.547C687.676 450.547 687.176 450.82 686.898 451.367C686.75 451.66 686.668 452.066 686.652 452.586H685.58C685.592 451.855 685.727 451.26 685.984 450.799C686.441 449.986 687.248 449.58 688.404 449.58C689.365 449.58 690.066 449.84 690.508 450.359C690.953 450.879 691.176 451.457 691.176 452.094C691.176 452.766 690.939 453.34 690.467 453.816C690.193 454.094 689.703 454.43 688.996 454.824L688.193 455.27C687.811 455.48 687.51 455.682 687.291 455.873C686.9 456.213 686.654 456.59 686.553 457.004H691.135V458H685.375ZM694.926 449.609C696.012 449.609 696.797 450.057 697.281 450.951C697.656 451.643 697.844 452.59 697.844 453.793C697.844 454.934 697.674 455.877 697.334 456.623C696.842 457.693 696.037 458.229 694.92 458.229C693.912 458.229 693.162 457.791 692.67 456.916C692.26 456.186 692.055 455.205 692.055 453.975C692.055 453.021 692.178 452.203 692.424 451.52C692.885 450.246 693.719 449.609 694.926 449.609ZM694.914 457.268C695.461 457.268 695.896 457.025 696.221 456.541C696.545 456.057 696.707 455.154 696.707 453.834C696.707 452.881 696.59 452.098 696.355 451.484C696.121 450.867 695.666 450.559 694.99 450.559C694.369 450.559 693.914 450.852 693.625 451.438C693.34 452.02 693.197 452.879 693.197 454.016C693.197 454.871 693.289 455.559 693.473 456.078C693.754 456.871 694.234 457.268 694.914 457.268Z" fill="black"/>
<path d="M418 28C418 27.4477 418.448 27 419 27H429C429.552 27 430 27.4477 430 28V38C430 38.5523 429.552 39 429 39H419C418.448 39 418 38.5523 418 38V28Z" fill="#F7BE19"/>
<path d="M444.665 33.5908L443.032 28.8374L441.296 33.5908H444.665ZM442.27 27.2407H443.918L447.822 38H446.225L445.134 34.7773H440.878L439.714 38H438.22L442.27 27.2407ZM449.807 34.1694C449.807 35.0093 449.985 35.7124 450.341 36.2788C450.698 36.8452 451.269 37.1284 452.055 37.1284C452.666 37.1284 453.166 36.8672 453.557 36.3447C453.952 35.8174 454.15 35.063 454.15 34.0815C454.15 33.0903 453.947 32.3579 453.542 31.8843C453.137 31.4058 452.636 31.1665 452.041 31.1665C451.376 31.1665 450.837 31.4204 450.422 31.9282C450.012 32.436 449.807 33.1831 449.807 34.1694ZM451.792 30.0166C452.392 30.0166 452.895 30.1436 453.3 30.3975C453.535 30.5439 453.801 30.8003 454.099 31.1665V27.2041H455.366V38H454.179V36.9087C453.872 37.3921 453.508 37.7412 453.088 37.9561C452.668 38.1709 452.187 38.2783 451.645 38.2783C450.771 38.2783 450.014 37.9121 449.375 37.1797C448.735 36.4424 448.415 35.4634 448.415 34.2427C448.415 33.1001 448.706 32.1113 449.287 31.2764C449.873 30.4365 450.708 30.0166 451.792 30.0166ZM458.156 34.1694C458.156 35.0093 458.334 35.7124 458.691 36.2788C459.047 36.8452 459.619 37.1284 460.405 37.1284C461.015 37.1284 461.516 36.8672 461.906 36.3447C462.302 35.8174 462.5 35.063 462.5 34.0815C462.5 33.0903 462.297 32.3579 461.892 31.8843C461.486 31.4058 460.986 31.1665 460.39 31.1665C459.726 31.1665 459.187 31.4204 458.771 31.9282C458.361 32.436 458.156 33.1831 458.156 34.1694ZM460.141 30.0166C460.742 30.0166 461.245 30.1436 461.65 30.3975C461.884 30.5439 462.15 30.8003 462.448 31.1665V27.2041H463.715V38H462.529V36.9087C462.221 37.3921 461.857 37.7412 461.438 37.9561C461.018 38.1709 460.537 38.2783 459.995 38.2783C459.121 38.2783 458.364 37.9121 457.724 37.1797C457.084 36.4424 456.765 35.4634 456.765 34.2427C456.765 33.1001 457.055 32.1113 457.636 31.2764C458.222 30.4365 459.057 30.0166 460.141 30.0166Z" fill="black"/>
<path d="M320 28C320 27.4477 320.448 27 321 27H331C331.552 27 332 27.4477 332 28V38C332 38.5523 331.552 39 331 39H321C320.448 39 320 38.5523 320 38V28Z" fill="#EA4335"/>
<path d="M345.793 26.9624C346.804 26.9624 347.678 27.1577 348.416 27.5483C349.485 28.1099 350.139 29.0938 350.378 30.5H348.936C348.76 29.7139 348.396 29.1426 347.844 28.7861C347.292 28.4248 346.597 28.2441 345.757 28.2441C344.761 28.2441 343.921 28.6177 343.237 29.3647C342.559 30.1118 342.219 31.2251 342.219 32.7046C342.219 33.9839 342.5 35.0264 343.062 35.832C343.623 36.6328 344.539 37.0332 345.808 37.0332C346.78 37.0332 347.583 36.7524 348.218 36.1909C348.857 35.6245 349.185 34.7114 349.199 33.4517H345.83V32.2432H350.554V38H349.617L349.265 36.6157C348.772 37.1577 348.335 37.5337 347.954 37.7437C347.314 38.105 346.501 38.2856 345.515 38.2856C344.241 38.2856 343.145 37.873 342.227 37.0479C341.226 36.0127 340.725 34.5918 340.725 32.7852C340.725 30.9834 341.213 29.5503 342.19 28.4858C343.118 27.4702 344.319 26.9624 345.793 26.9624ZM355.908 29.98C356.465 29.98 357.004 30.1118 357.527 30.3755C358.049 30.6343 358.447 30.9712 358.721 31.3862C358.984 31.7817 359.16 32.2432 359.248 32.7705C359.326 33.1318 359.365 33.708 359.365 34.499H353.616C353.64 35.2949 353.828 35.9346 354.18 36.418C354.531 36.8965 355.076 37.1357 355.813 37.1357C356.501 37.1357 357.051 36.9087 357.461 36.4546C357.695 36.1909 357.861 35.8857 357.959 35.5391H359.255C359.221 35.8271 359.106 36.1494 358.911 36.5059C358.721 36.8574 358.506 37.1455 358.267 37.3701C357.866 37.7607 357.371 38.0244 356.78 38.1611C356.462 38.2393 356.104 38.2783 355.703 38.2783C354.727 38.2783 353.899 37.9243 353.22 37.2163C352.542 36.5034 352.202 35.5073 352.202 34.228C352.202 32.9683 352.544 31.9453 353.228 31.1592C353.911 30.373 354.805 29.98 355.908 29.98ZM358.01 33.4517C357.957 32.8804 357.832 32.4238 357.637 32.082C357.275 31.4473 356.672 31.1299 355.828 31.1299C355.222 31.1299 354.714 31.3496 354.304 31.7891C353.894 32.2236 353.677 32.7778 353.652 33.4517H358.01ZM361.255 27.9658H362.588V30.1558H363.84V31.2324H362.588V36.3521C362.588 36.6255 362.681 36.8086 362.866 36.9014C362.969 36.9551 363.14 36.9819 363.379 36.9819C363.442 36.9819 363.511 36.9819 363.584 36.9819C363.657 36.9771 363.743 36.9697 363.84 36.96V38C363.689 38.0439 363.53 38.0757 363.364 38.0952C363.203 38.1147 363.027 38.1245 362.837 38.1245C362.222 38.1245 361.804 37.9683 361.584 37.6558C361.365 37.3384 361.255 36.9282 361.255 36.4253V31.2324H360.193V30.1558H361.255V27.9658Z" fill="black"/>
<path d="M518 28C518 27.4477 518.448 27 519 27H529C529.552 27 530 27.4477 530 28V38C530 38.5523 529.552 39 529 39H519C518.448 39 518 38.5523 518 38V28Z" fill="#4285F4"/>
<path d="M540.725 27.2407V33.8911C540.725 34.6724 540.871 35.3218 541.164 35.8394C541.599 36.6206 542.331 37.0112 543.361 37.0112C544.597 37.0112 545.437 36.5889 545.881 35.7441C546.12 35.2852 546.24 34.6675 546.24 33.8911V27.2407H547.719V33.2832C547.719 34.6064 547.541 35.6245 547.185 36.3374C546.53 37.6362 545.295 38.2856 543.479 38.2856C541.662 38.2856 540.429 37.6362 539.78 36.3374C539.423 35.6245 539.245 34.6064 539.245 33.2832V27.2407H540.725ZM553.117 37.1138C553.732 37.1138 554.243 36.8574 554.648 36.3447C555.058 35.8271 555.263 35.0557 555.263 34.0303C555.263 33.4053 555.173 32.8682 554.992 32.4189C554.65 31.5547 554.025 31.1226 553.117 31.1226C552.204 31.1226 551.579 31.5791 551.242 32.4922C551.062 32.9805 550.971 33.6006 550.971 34.3525C550.971 34.958 551.062 35.4731 551.242 35.8979C551.584 36.7085 552.209 37.1138 553.117 37.1138ZM549.704 30.1924H550.986V31.2324C551.25 30.876 551.538 30.6001 551.85 30.4048C552.294 30.1118 552.817 29.9653 553.417 29.9653C554.306 29.9653 555.061 30.3071 555.681 30.9907C556.301 31.6694 556.611 32.6411 556.611 33.9058C556.611 35.6147 556.164 36.8354 555.271 37.5679C554.704 38.0317 554.045 38.2637 553.293 38.2637C552.702 38.2637 552.207 38.1343 551.806 37.8755C551.572 37.729 551.311 37.4775 551.022 37.1211V41.1274H549.704V30.1924ZM558.991 34.1694C558.991 35.0093 559.169 35.7124 559.526 36.2788C559.882 36.8452 560.454 37.1284 561.24 37.1284C561.85 37.1284 562.351 36.8672 562.741 36.3447C563.137 35.8174 563.334 35.063 563.334 34.0815C563.334 33.0903 563.132 32.3579 562.727 31.8843C562.321 31.4058 561.821 31.1665 561.225 31.1665C560.561 31.1665 560.021 31.4204 559.606 31.9282C559.196 32.436 558.991 33.1831 558.991 34.1694ZM560.976 30.0166C561.577 30.0166 562.08 30.1436 562.485 30.3975C562.719 30.5439 562.985 30.8003 563.283 31.1665V27.2041H564.55V38H563.364V36.9087C563.056 37.3921 562.692 37.7412 562.272 37.9561C561.853 38.1709 561.372 38.2783 560.83 38.2783C559.956 38.2783 559.199 37.9121 558.559 37.1797C557.919 36.4424 557.6 35.4634 557.6 34.2427C557.6 33.1001 557.89 32.1113 558.471 31.2764C559.057 30.4365 559.892 30.0166 560.976 30.0166ZM567.517 35.9126C567.517 36.2935 567.656 36.5938 567.934 36.8135C568.212 37.0332 568.542 37.1431 568.923 37.1431C569.387 37.1431 569.836 37.0356 570.271 36.8208C571.003 36.4644 571.369 35.8809 571.369 35.0703V34.0083C571.208 34.1108 571 34.1963 570.747 34.2646C570.493 34.333 570.244 34.3818 570 34.4111L569.201 34.5137C568.723 34.5771 568.364 34.6772 568.125 34.814C567.719 35.0435 567.517 35.4097 567.517 35.9126ZM570.71 33.2466C571.013 33.2075 571.215 33.0806 571.318 32.8657C571.376 32.7485 571.406 32.5801 571.406 32.3604C571.406 31.9111 571.245 31.5864 570.922 31.3862C570.605 31.1812 570.148 31.0786 569.553 31.0786C568.864 31.0786 568.376 31.2642 568.088 31.6353C567.927 31.8403 567.822 32.1455 567.773 32.5508H566.542C566.567 31.584 566.879 30.9126 567.48 30.5366C568.085 30.1558 568.786 29.9653 569.582 29.9653C570.505 29.9653 571.254 30.1411 571.831 30.4927C572.402 30.8442 572.688 31.3911 572.688 32.1333V36.6523C572.688 36.7891 572.714 36.8989 572.768 36.9819C572.827 37.0649 572.946 37.1064 573.127 37.1064C573.186 37.1064 573.251 37.104 573.325 37.0991C573.398 37.0894 573.476 37.0771 573.559 37.0625V38.0366C573.354 38.0952 573.198 38.1318 573.09 38.1465C572.983 38.1611 572.836 38.1685 572.651 38.1685C572.197 38.1685 571.867 38.0073 571.662 37.6851C571.555 37.5142 571.479 37.2725 571.435 36.96C571.167 37.3115 570.781 37.6167 570.278 37.8755C569.775 38.1343 569.221 38.2637 568.615 38.2637C567.888 38.2637 567.292 38.0439 566.828 37.6045C566.369 37.1602 566.14 36.606 566.14 35.9419C566.14 35.2144 566.367 34.6504 566.821 34.25C567.275 33.8496 567.871 33.603 568.608 33.5103L570.71 33.2466ZM575.119 27.9658H576.452V30.1558H577.705V31.2324H576.452V36.3521C576.452 36.6255 576.545 36.8086 576.73 36.9014C576.833 36.9551 577.004 36.9819 577.243 36.9819C577.307 36.9819 577.375 36.9819 577.448 36.9819C577.521 36.9771 577.607 36.9697 577.705 36.96V38C577.553 38.0439 577.395 38.0757 577.229 38.0952C577.067 38.1147 576.892 38.1245 576.701 38.1245C576.086 38.1245 575.668 37.9683 575.449 37.6558C575.229 37.3384 575.119 36.9282 575.119 36.4253V31.2324H574.057V30.1558H575.119V27.9658ZM582.297 29.98C582.854 29.98 583.393 30.1118 583.916 30.3755C584.438 30.6343 584.836 30.9712 585.109 31.3862C585.373 31.7817 585.549 32.2432 585.637 32.7705C585.715 33.1318 585.754 33.708 585.754 34.499H580.004C580.029 35.2949 580.217 35.9346 580.568 36.418C580.92 36.8965 581.464 37.1357 582.202 37.1357C582.89 37.1357 583.439 36.9087 583.85 36.4546C584.084 36.1909 584.25 35.8857 584.348 35.5391H585.644C585.61 35.8271 585.495 36.1494 585.3 36.5059C585.109 36.8574 584.895 37.1455 584.655 37.3701C584.255 37.7607 583.759 38.0244 583.168 38.1611C582.851 38.2393 582.492 38.2783 582.092 38.2783C581.115 38.2783 580.288 37.9243 579.609 37.2163C578.93 36.5034 578.591 35.5073 578.591 34.228C578.591 32.9683 578.933 31.9453 579.616 31.1592C580.3 30.373 581.193 29.98 582.297 29.98ZM584.399 33.4517C584.345 32.8804 584.221 32.4238 584.025 32.082C583.664 31.4473 583.061 31.1299 582.216 31.1299C581.611 31.1299 581.103 31.3496 580.693 31.7891C580.283 32.2236 580.065 32.7778 580.041 33.4517H584.399Z" fill="black"/>
<path d="M215.95 57V437" stroke="#333333" stroke-miterlimit="10"/>
<path d="M215.95 443V431" stroke="black" stroke-miterlimit="10"/>
<path d="M334.95 57V437" stroke="#CCCCCC" stroke-miterlimit="10"/>
<path d="M453.95 57V437" stroke="#CCCCCC" stroke-miterlimit="10"/>
<path d="M572.95 57V437" stroke="#CCCCCC" stroke-miterlimit="10"/>
<path d="M691.95 57V437" stroke="#CCCCCC" stroke-miterlimit="10"/>
<path d="M245.95 57V437" stroke="#E6E6E6" stroke-miterlimit="10"/>
<path d="M275.95 57V437" stroke="#E6E6E6" stroke-miterlimit="10"/>
<path d="M304.95 57V437" stroke="#E6E6E6" stroke-miterlimit="10"/>
<path d="M364.95 57V437" stroke="#E6E6E6" stroke-miterlimit="10"/>
<path d="M394.95 57V437" stroke="#E6E6E6" stroke-miterlimit="10"/>
<path d="M423.95 57V437" stroke="#E6E6E6" stroke-miterlimit="10"/>
<path d="M483.95 57V437" stroke="#E6E6E6" stroke-miterlimit="10"/>
<path d="M512.95 57V437" stroke="#E6E6E6" stroke-miterlimit="10"/>
<path d="M542.95 57V437" stroke="#E6E6E6" stroke-miterlimit="10"/>
<path d="M602.95 57V437" stroke="#E6E6E6" stroke-miterlimit="10"/>
<path d="M631.95 57V437" stroke="#E6E6E6" stroke-miterlimit="10"/>
<path d="M661.95 57V437" stroke="#E6E6E6" stroke-miterlimit="10"/>
<path d="M692 437H216" stroke="black" stroke-miterlimit="10"/>
<path d="M36.1479 105.459C36.1479 105.157 36.0454 104.886 35.8403 104.646C35.6401 104.402 35.3618 104.28 35.0054 104.28C34.4487 104.28 33.9653 104.61 33.5552 105.269C33.1499 105.923 32.9473 106.575 32.9473 107.225C32.9473 107.703 33.0522 108.069 33.2622 108.323C33.4722 108.572 33.7358 108.697 34.0532 108.697C34.7124 108.697 35.2251 108.313 35.5913 107.547C35.9624 106.775 36.1479 106.08 36.1479 105.459ZM34.6904 112.315C32.6494 112.315 31.0771 111.678 29.9736 110.403C29.0898 109.383 28.6479 108.204 28.6479 106.866C28.6479 105.274 29.1851 103.921 30.2593 102.808C31.4507 101.568 33.0498 100.948 35.0566 100.948C36.7949 100.948 38.1621 101.387 39.1582 102.266C40.0908 103.096 40.5571 104.173 40.5571 105.496C40.5571 106.609 40.2227 107.562 39.5537 108.353C38.8896 109.139 38.145 109.532 37.3198 109.532C36.8364 109.532 36.48 109.417 36.2505 109.188C36.021 108.953 35.9062 108.672 35.9062 108.345C35.9062 108.292 35.9111 108.235 35.9209 108.177C35.9307 108.118 35.9429 108.057 35.9575 107.994C35.6987 108.555 35.3716 108.953 34.9761 109.188C34.5806 109.417 34.1729 109.532 33.7529 109.532C33.1523 109.532 32.6641 109.314 32.2881 108.88C31.917 108.445 31.7314 107.886 31.7314 107.203C31.7314 106.231 32.0488 105.374 32.6836 104.632C33.3232 103.89 34.0093 103.519 34.7417 103.519C35.2397 103.519 35.6499 103.663 35.9722 103.951C36.2993 104.239 36.4727 104.585 36.4922 104.991L36.8584 103.76H37.9351L36.9609 106.968C36.8877 107.217 36.834 107.417 36.7998 107.569C36.7656 107.72 36.7485 107.854 36.7485 107.972C36.7485 108.191 36.8145 108.353 36.9463 108.455C37.083 108.553 37.2368 108.602 37.4077 108.602C37.9644 108.602 38.4624 108.311 38.9019 107.73C39.3462 107.149 39.5684 106.39 39.5684 105.452C39.5684 104.319 39.1729 103.431 38.3818 102.786C37.5908 102.137 36.5264 101.812 35.1885 101.812C33.333 101.812 31.9146 102.354 30.9331 103.438C30.0933 104.361 29.6733 105.521 29.6733 106.917C29.6733 108.138 30.0737 109.163 30.8745 109.993C31.812 110.975 33.1475 111.465 34.8809 111.465C35.6914 111.465 36.4458 111.338 37.144 111.084C37.8423 110.826 38.4819 110.479 39.063 110.044L39.5464 110.704C39.1069 111.094 38.4502 111.46 37.5762 111.802C36.7021 112.144 35.7402 112.315 34.6904 112.315ZM43.9849 109.539C44.0239 109.979 44.1338 110.315 44.3145 110.55C44.6465 110.975 45.2227 111.187 46.043 111.187C46.5312 111.187 46.9609 111.082 47.332 110.872C47.7031 110.657 47.8887 110.328 47.8887 109.883C47.8887 109.546 47.7397 109.29 47.4419 109.114C47.2515 109.007 46.8755 108.882 46.314 108.741L45.2666 108.477C44.5977 108.311 44.1045 108.125 43.7871 107.92C43.2207 107.564 42.9375 107.071 42.9375 106.441C42.9375 105.699 43.2036 105.098 43.7358 104.639C44.2729 104.18 44.9932 103.951 45.8965 103.951C47.0781 103.951 47.9302 104.297 48.4526 104.991C48.7798 105.43 48.9385 105.904 48.9287 106.412H47.6836C47.6592 106.114 47.5542 105.843 47.3687 105.599C47.0659 105.252 46.541 105.079 45.7939 105.079C45.2959 105.079 44.9175 105.174 44.6587 105.364C44.4048 105.555 44.2778 105.806 44.2778 106.119C44.2778 106.46 44.4463 106.734 44.7832 106.939C44.9785 107.061 45.2666 107.168 45.6475 107.261L46.519 107.474C47.4663 107.703 48.1011 107.925 48.4233 108.14C48.936 108.477 49.1924 109.007 49.1924 109.729C49.1924 110.428 48.9263 111.031 48.394 111.539C47.8667 112.046 47.061 112.3 45.9771 112.3C44.8101 112.3 43.9824 112.037 43.4941 111.509C43.0107 110.977 42.752 110.32 42.7178 109.539H43.9849ZM50.7012 104.156H52.0049V105.269C52.3174 104.883 52.6006 104.603 52.8545 104.427C53.2891 104.129 53.7822 103.98 54.334 103.98C54.959 103.98 55.4619 104.134 55.8428 104.441C56.0576 104.617 56.2529 104.876 56.4287 105.218C56.7217 104.798 57.0659 104.488 57.4614 104.288C57.8569 104.083 58.3013 103.98 58.7944 103.98C59.8491 103.98 60.5669 104.361 60.9478 105.123C61.1528 105.533 61.2554 106.084 61.2554 106.778V112H59.8857V106.551C59.8857 106.028 59.7539 105.669 59.4902 105.474C59.2314 105.279 58.9141 105.181 58.5381 105.181C58.0205 105.181 57.5737 105.354 57.1978 105.701C56.8267 106.048 56.6411 106.626 56.6411 107.437V112H55.3008V106.88C55.3008 106.348 55.2373 105.96 55.1104 105.716C54.9102 105.35 54.5366 105.167 53.9897 105.167C53.4917 105.167 53.0376 105.359 52.6274 105.745C52.2222 106.131 52.0195 106.829 52.0195 107.84V112H50.7012V104.156ZM63.1963 104.192H64.5366V112H63.1963V104.192ZM63.1963 101.241H64.5366V102.735H63.1963V101.241ZM66.5068 101.241H67.7739V107.488L71.1577 104.156H72.8423L69.8394 107.093L73.0107 112H71.3262L68.8799 108.045L67.7739 109.056V112H66.5068V101.241ZM74.0361 101.204H75.3545V105.218C75.667 104.822 75.9478 104.544 76.1968 104.383C76.6216 104.104 77.1514 103.965 77.7861 103.965C78.9238 103.965 79.6953 104.363 80.1006 105.159C80.3203 105.594 80.4302 106.197 80.4302 106.968V112H79.0752V107.056C79.0752 106.48 79.002 106.058 78.8555 105.789C78.6162 105.359 78.167 105.145 77.5078 105.145C76.9609 105.145 76.4653 105.333 76.021 105.708C75.5767 106.084 75.3545 106.795 75.3545 107.84V112H74.0361V101.204ZM83.3965 109.913C83.3965 110.293 83.5356 110.594 83.814 110.813C84.0923 111.033 84.4219 111.143 84.8027 111.143C85.2666 111.143 85.7158 111.036 86.1504 110.821C86.8828 110.464 87.249 109.881 87.249 109.07V108.008C87.0879 108.111 86.8804 108.196 86.6265 108.265C86.3726 108.333 86.1235 108.382 85.8794 108.411L85.0811 108.514C84.6025 108.577 84.2437 108.677 84.0044 108.814C83.5991 109.043 83.3965 109.41 83.3965 109.913ZM86.5898 107.247C86.8926 107.208 87.0952 107.081 87.1978 106.866C87.2563 106.749 87.2856 106.58 87.2856 106.36C87.2856 105.911 87.1245 105.586 86.8022 105.386C86.4849 105.181 86.0283 105.079 85.4326 105.079C84.7441 105.079 84.2559 105.264 83.9678 105.635C83.8066 105.84 83.7017 106.146 83.6528 106.551H82.4224C82.4468 105.584 82.7593 104.913 83.3599 104.537C83.9653 104.156 84.666 103.965 85.4619 103.965C86.3848 103.965 87.1343 104.141 87.7104 104.493C88.2817 104.844 88.5674 105.391 88.5674 106.133V110.652C88.5674 110.789 88.5942 110.899 88.6479 110.982C88.7065 111.065 88.8262 111.106 89.0068 111.106C89.0654 111.106 89.1313 111.104 89.2046 111.099C89.2778 111.089 89.356 111.077 89.439 111.062V112.037C89.2339 112.095 89.0776 112.132 88.9702 112.146C88.8628 112.161 88.7163 112.168 88.5308 112.168C88.0767 112.168 87.7471 112.007 87.542 111.685C87.4346 111.514 87.3589 111.272 87.3149 110.96C87.0464 111.312 86.6606 111.617 86.1577 111.875C85.6548 112.134 85.1006 112.264 84.4951 112.264C83.7676 112.264 83.1719 112.044 82.708 111.604C82.249 111.16 82.0195 110.606 82.0195 109.942C82.0195 109.214 82.2466 108.65 82.7007 108.25C83.1548 107.85 83.7505 107.603 84.4878 107.51L86.5898 107.247ZM90.772 101.241H92.0903V112H90.772V101.241ZM97.3418 103.98C97.8984 103.98 98.438 104.112 98.9604 104.375C99.4829 104.634 99.8809 104.971 100.154 105.386C100.418 105.782 100.594 106.243 100.682 106.771C100.76 107.132 100.799 107.708 100.799 108.499H95.0493C95.0737 109.295 95.2617 109.935 95.6133 110.418C95.9648 110.896 96.5093 111.136 97.2466 111.136C97.9351 111.136 98.4844 110.909 98.8945 110.455C99.1289 110.191 99.2949 109.886 99.3926 109.539H100.689C100.655 109.827 100.54 110.149 100.345 110.506C100.154 110.857 99.9395 111.146 99.7002 111.37C99.2998 111.761 98.8042 112.024 98.2134 112.161C97.896 112.239 97.5371 112.278 97.1367 112.278C96.1602 112.278 95.3325 111.924 94.6538 111.216C93.9751 110.503 93.6357 109.507 93.6357 108.228C93.6357 106.968 93.9775 105.945 94.6611 105.159C95.3447 104.373 96.2383 103.98 97.3418 103.98ZM99.4438 107.452C99.3901 106.88 99.2656 106.424 99.0703 106.082C98.709 105.447 98.106 105.13 97.2612 105.13C96.6558 105.13 96.1479 105.35 95.7378 105.789C95.3276 106.224 95.1104 106.778 95.0859 107.452H99.4438ZM103.069 104.156L105.164 110.542L107.354 104.156H108.797L105.838 112H104.432L101.539 104.156H103.069ZM110.708 109.539C110.748 109.979 110.857 110.315 111.038 110.55C111.37 110.975 111.946 111.187 112.767 111.187C113.255 111.187 113.685 111.082 114.056 110.872C114.427 110.657 114.612 110.328 114.612 109.883C114.612 109.546 114.463 109.29 114.166 109.114C113.975 109.007 113.599 108.882 113.038 108.741L111.99 108.477C111.321 108.311 110.828 108.125 110.511 107.92C109.944 107.564 109.661 107.071 109.661 106.441C109.661 105.699 109.927 105.098 110.459 104.639C110.997 104.18 111.717 103.951 112.62 103.951C113.802 103.951 114.654 104.297 115.176 104.991C115.503 105.43 115.662 105.904 115.652 106.412H114.407C114.383 106.114 114.278 105.843 114.092 105.599C113.79 105.252 113.265 105.079 112.518 105.079C112.02 105.079 111.641 105.174 111.382 105.364C111.128 105.555 111.001 105.806 111.001 106.119C111.001 106.46 111.17 106.734 111.507 106.939C111.702 107.061 111.99 107.168 112.371 107.261L113.243 107.474C114.19 107.703 114.825 107.925 115.147 108.14C115.66 108.477 115.916 109.007 115.916 109.729C115.916 110.428 115.65 111.031 115.118 111.539C114.59 112.046 113.785 112.3 112.701 112.3C111.534 112.3 110.706 112.037 110.218 111.509C109.734 110.977 109.476 110.32 109.441 109.539H110.708ZM117.396 101.241H118.663V107.488L122.046 104.156H123.731L120.728 107.093L123.899 112H122.215L119.769 108.045L118.663 109.056V112H117.396V101.241ZM124.925 104.192H126.265V112H124.925V104.192ZM124.925 101.241H126.265V102.735H124.925V101.241ZM130.711 101.241H131.824L128.411 112H127.298L130.711 101.241ZM136.102 110.513V112.073L135.113 112.11C134.126 112.144 133.453 111.973 133.091 111.597C132.857 111.358 132.74 110.989 132.74 110.491V105.577H131.626V104.09H132.74V101.863H134.805V104.09H136.102V105.577H134.805V109.795C134.805 110.123 134.847 110.328 134.93 110.411C135.013 110.489 135.267 110.528 135.691 110.528C135.755 110.528 135.821 110.528 135.889 110.528C135.962 110.523 136.033 110.518 136.102 110.513ZM141.456 105.943C140.616 105.943 140.052 106.216 139.764 106.763C139.603 107.071 139.522 107.544 139.522 108.184V112H137.42V104.017H139.412V105.408C139.734 104.876 140.015 104.512 140.254 104.317C140.645 103.99 141.153 103.826 141.778 103.826C141.817 103.826 141.849 103.829 141.873 103.833C141.902 103.833 141.963 103.836 142.056 103.841V105.979C141.924 105.965 141.807 105.955 141.705 105.95C141.602 105.945 141.519 105.943 141.456 105.943ZM145.433 104.017V112H143.316V104.017H145.433ZM145.433 101.138V103.064H143.316V101.138H145.433ZM154.295 109.656C154.241 110.13 153.995 110.611 153.555 111.099C152.872 111.875 151.915 112.264 150.684 112.264C149.668 112.264 148.772 111.937 147.996 111.282C147.22 110.628 146.832 109.563 146.832 108.089C146.832 106.707 147.181 105.647 147.879 104.91C148.582 104.173 149.493 103.804 150.611 103.804C151.275 103.804 151.873 103.929 152.405 104.178C152.938 104.427 153.377 104.82 153.724 105.357C154.036 105.831 154.239 106.38 154.332 107.005C154.385 107.371 154.407 107.898 154.397 108.587H148.934C148.963 109.388 149.214 109.949 149.688 110.271C149.976 110.472 150.323 110.572 150.728 110.572C151.158 110.572 151.507 110.45 151.775 110.206C151.922 110.074 152.051 109.891 152.164 109.656H154.295ZM152.229 107.21C152.195 106.658 152.027 106.241 151.724 105.958C151.426 105.669 151.055 105.525 150.611 105.525C150.127 105.525 149.751 105.677 149.483 105.979C149.219 106.282 149.053 106.692 148.985 107.21H152.229ZM163.985 105.459C163.985 105.157 163.882 104.886 163.677 104.646C163.477 104.402 163.199 104.28 162.842 104.28C162.286 104.28 161.802 104.61 161.392 105.269C160.987 105.923 160.784 106.575 160.784 107.225C160.784 107.703 160.889 108.069 161.099 108.323C161.309 108.572 161.573 108.697 161.89 108.697C162.549 108.697 163.062 108.313 163.428 107.547C163.799 106.775 163.985 106.08 163.985 105.459ZM162.527 112.315C160.486 112.315 158.914 111.678 157.811 110.403C156.927 109.383 156.485 108.204 156.485 106.866C156.485 105.274 157.022 103.921 158.096 102.808C159.288 101.568 160.887 100.948 162.894 100.948C164.632 100.948 165.999 101.387 166.995 102.266C167.928 103.096 168.394 104.173 168.394 105.496C168.394 106.609 168.06 107.562 167.391 108.353C166.727 109.139 165.982 109.532 165.157 109.532C164.673 109.532 164.317 109.417 164.087 109.188C163.858 108.953 163.743 108.672 163.743 108.345C163.743 108.292 163.748 108.235 163.758 108.177C163.768 108.118 163.78 108.057 163.794 107.994C163.536 108.555 163.208 108.953 162.813 109.188C162.417 109.417 162.01 109.532 161.59 109.532C160.989 109.532 160.501 109.314 160.125 108.88C159.754 108.445 159.568 107.886 159.568 107.203C159.568 106.231 159.886 105.374 160.521 104.632C161.16 103.89 161.846 103.519 162.579 103.519C163.077 103.519 163.487 103.663 163.809 103.951C164.136 104.239 164.31 104.585 164.329 104.991L164.695 103.76H165.772L164.798 106.968C164.725 107.217 164.671 107.417 164.637 107.569C164.603 107.72 164.585 107.854 164.585 107.972C164.585 108.191 164.651 108.353 164.783 108.455C164.92 108.553 165.074 108.602 165.245 108.602C165.801 108.602 166.299 108.311 166.739 107.73C167.183 107.149 167.405 106.39 167.405 105.452C167.405 104.319 167.01 103.431 166.219 102.786C165.428 102.137 164.363 101.812 163.025 101.812C161.17 101.812 159.751 102.354 158.77 103.438C157.93 104.361 157.51 105.521 157.51 106.917C157.51 108.138 157.911 109.163 158.711 109.993C159.649 110.975 160.984 111.465 162.718 111.465C163.528 111.465 164.283 111.338 164.981 111.084C165.679 110.826 166.319 110.479 166.9 110.044L167.383 110.704C166.944 111.094 166.287 111.46 165.413 111.802C164.539 112.144 163.577 112.315 162.527 112.315ZM175.03 108.287V103.533L171.668 108.287H175.03ZM175.052 112V109.437H170.452V108.147L175.257 101.482H176.37V108.287H177.916V109.437H176.37V112H175.052ZM179.703 110.403H181.233V112H179.703V110.403ZM186.653 101.512C188.011 101.512 188.992 102.071 189.598 103.189C190.066 104.053 190.301 105.237 190.301 106.741C190.301 108.167 190.088 109.346 189.664 110.279C189.048 111.617 188.042 112.286 186.646 112.286C185.386 112.286 184.449 111.739 183.833 110.645C183.321 109.732 183.064 108.506 183.064 106.968C183.064 105.777 183.218 104.754 183.526 103.899C184.102 102.308 185.145 101.512 186.653 101.512ZM186.639 111.084C187.322 111.084 187.867 110.782 188.272 110.176C188.677 109.571 188.88 108.443 188.88 106.792C188.88 105.601 188.733 104.622 188.44 103.855C188.147 103.084 187.579 102.698 186.734 102.698C185.958 102.698 185.389 103.064 185.027 103.797C184.671 104.524 184.493 105.599 184.493 107.02C184.493 108.089 184.607 108.948 184.837 109.598C185.188 110.589 185.789 111.084 186.639 111.084ZM192.227 110.403H193.758V112H192.227V110.403ZM199.178 101.512C200.535 101.512 201.517 102.071 202.122 103.189C202.591 104.053 202.825 105.237 202.825 106.741C202.825 108.167 202.613 109.346 202.188 110.279C201.573 111.617 200.567 112.286 199.17 112.286C197.911 112.286 196.973 111.739 196.358 110.645C195.845 109.732 195.589 108.506 195.589 106.968C195.589 105.777 195.743 104.754 196.05 103.899C196.626 102.308 197.669 101.512 199.178 101.512ZM199.163 111.084C199.847 111.084 200.391 110.782 200.796 110.176C201.202 109.571 201.404 108.443 201.404 106.792C201.404 105.601 201.258 104.622 200.965 103.855C200.672 103.084 200.103 102.698 199.258 102.698C198.482 102.698 197.913 103.064 197.552 103.797C197.195 104.524 197.017 105.599 197.017 107.02C197.017 108.089 197.132 108.948 197.361 109.598C197.713 110.589 198.313 111.084 199.163 111.084Z" fill="black"/>
<path d="M216.45 96V79H573.673C574.654 79 575.45 79.8954 575.45 81V94C575.45 95.1046 574.654 96 573.673 96H216.45Z" fill="#EA4335"/>
<path d="M216.45 115V98H310.965C311.233 98 311.45 98.8954 311.45 100V113C311.45 114.105 311.233 115 310.965 115H216.45Z" fill="#F7BE19"/>
<path d="M216.45 134V117H518.899C519.756 117 520.45 117.895 520.45 119V132C520.45 133.105 519.756 134 518.899 134H216.45Z" fill="#4285F4"/>
<path d="M176.208 232H174.106V221.204H177.387L179.35 229.693L181.298 221.204H184.543V232H182.441V224.698C182.441 224.488 182.443 224.195 182.448 223.819C182.453 223.438 182.456 223.145 182.456 222.94L180.412 232H178.222L176.193 222.94C176.193 223.145 176.196 223.438 176.201 223.819C176.206 224.195 176.208 224.488 176.208 224.698V232ZM186.77 224.881C187.321 224.178 188.269 223.826 189.611 223.826C190.485 223.826 191.262 224 191.94 224.346C192.619 224.693 192.958 225.347 192.958 226.309V229.971C192.958 230.225 192.963 230.533 192.973 230.894C192.988 231.167 193.029 231.353 193.098 231.451C193.166 231.548 193.269 231.629 193.405 231.692V232H191.135C191.071 231.839 191.027 231.688 191.003 231.546C190.979 231.404 190.959 231.243 190.944 231.062C190.656 231.375 190.324 231.641 189.948 231.861C189.499 232.12 188.991 232.249 188.425 232.249C187.702 232.249 187.104 232.044 186.63 231.634C186.162 231.219 185.927 230.633 185.927 229.876C185.927 228.895 186.306 228.184 187.062 227.745C187.478 227.505 188.088 227.334 188.894 227.232L189.604 227.144C189.99 227.095 190.266 227.034 190.432 226.961C190.729 226.834 190.878 226.636 190.878 226.368C190.878 226.041 190.764 225.816 190.534 225.694C190.31 225.567 189.978 225.503 189.538 225.503C189.045 225.503 188.696 225.625 188.491 225.87C188.344 226.05 188.247 226.294 188.198 226.602H186.184C186.228 225.904 186.423 225.33 186.77 224.881ZM188.322 230.491C188.518 230.652 188.757 230.733 189.04 230.733C189.489 230.733 189.902 230.601 190.278 230.337C190.659 230.074 190.856 229.593 190.871 228.895V228.118C190.739 228.201 190.605 228.27 190.468 228.323C190.336 228.372 190.153 228.418 189.919 228.462L189.45 228.55C189.011 228.628 188.696 228.724 188.505 228.836C188.183 229.026 188.022 229.322 188.022 229.722C188.022 230.079 188.122 230.335 188.322 230.491ZM201.506 224.874C202.15 225.562 202.473 226.573 202.473 227.906C202.473 229.312 202.155 230.384 201.521 231.121C200.891 231.858 200.078 232.227 199.082 232.227C198.447 232.227 197.919 232.068 197.5 231.751C197.27 231.575 197.045 231.319 196.826 230.982V235.142H194.76V224.017H196.76V225.196C196.984 224.849 197.224 224.576 197.478 224.375C197.941 224.019 198.493 223.841 199.133 223.841C200.065 223.841 200.856 224.185 201.506 224.874ZM200.319 228.008C200.319 227.393 200.178 226.849 199.895 226.375C199.616 225.901 199.162 225.665 198.532 225.665C197.775 225.665 197.255 226.023 196.972 226.741C196.826 227.122 196.752 227.605 196.752 228.191C196.752 229.119 196.999 229.771 197.492 230.147C197.785 230.367 198.132 230.477 198.532 230.477C199.113 230.477 199.555 230.252 199.858 229.803C200.166 229.354 200.319 228.755 200.319 228.008Z" fill="black"/>
<path d="M216.45 216V199H690.093C691.395 199 692.45 199.895 692.45 201V214C692.45 215.105 691.395 216 690.093 216H216.45Z" fill="#EA4335"/>
<path d="M216.45 235V218H663.159C664.424 218 665.45 218.895 665.45 220V233C665.45 234.105 664.424 235 663.159 235H216.45Z" fill="#F7BE19"/>
<path d="M216.45 254V237H651.22C652.452 237 653.45 237.895 653.45 239V252C653.45 253.105 652.452 254 651.22 254H216.45Z" fill="#4285F4"/>
<path d="M82.6289 309.513V311.073L81.6401 311.11C80.6538 311.144 79.98 310.973 79.6187 310.597C79.3843 310.358 79.2671 309.989 79.2671 309.491V304.577H78.1538V303.09H79.2671V300.863H81.3325V303.09H82.6289V304.577H81.3325V308.795C81.3325 309.123 81.374 309.328 81.457 309.411C81.54 309.489 81.7939 309.528 82.2188 309.528C82.2822 309.528 82.3481 309.528 82.4165 309.528C82.4897 309.523 82.5605 309.518 82.6289 309.513ZM87.9829 304.943C87.1431 304.943 86.5791 305.216 86.291 305.763C86.1299 306.071 86.0493 306.544 86.0493 307.184V311H83.9473V303.017H85.9395V304.408C86.2617 303.876 86.5425 303.512 86.7817 303.317C87.1724 302.99 87.6802 302.826 88.3052 302.826C88.3442 302.826 88.376 302.829 88.4004 302.833C88.4297 302.833 88.4907 302.836 88.5835 302.841V304.979C88.4517 304.965 88.3345 304.955 88.2319 304.95C88.1294 304.945 88.0464 304.943 87.9829 304.943ZM91.96 303.017V311H89.8433V303.017H91.96ZM91.96 300.138V302.064H89.8433V300.138H91.96ZM100.822 308.656C100.769 309.13 100.522 309.611 100.083 310.099C99.3989 310.875 98.4419 311.264 97.2114 311.264C96.1958 311.264 95.2998 310.937 94.5234 310.282C93.7471 309.628 93.3589 308.563 93.3589 307.089C93.3589 305.707 93.708 304.647 94.4062 303.91C95.1094 303.173 96.02 302.804 97.1382 302.804C97.8022 302.804 98.4004 302.929 98.9326 303.178C99.4648 303.427 99.9043 303.82 100.251 304.357C100.563 304.831 100.766 305.38 100.859 306.005C100.913 306.371 100.935 306.898 100.925 307.587H95.4609C95.4902 308.388 95.7417 308.949 96.2153 309.271C96.5034 309.472 96.8501 309.572 97.2554 309.572C97.6851 309.572 98.0342 309.45 98.3027 309.206C98.4492 309.074 98.5786 308.891 98.6909 308.656H100.822ZM98.7568 306.21C98.7227 305.658 98.5542 305.241 98.2515 304.958C97.9536 304.669 97.5825 304.525 97.1382 304.525C96.6548 304.525 96.2788 304.677 96.0103 304.979C95.7466 305.282 95.5806 305.692 95.5122 306.21H98.7568ZM101.708 305.829H105.913V307.807H101.708V305.829ZM112.834 303.383C113.459 303.783 113.818 304.472 113.911 305.448H111.823C111.794 305.18 111.718 304.967 111.596 304.811C111.367 304.528 110.976 304.386 110.424 304.386C109.97 304.386 109.646 304.457 109.45 304.599C109.26 304.74 109.165 304.906 109.165 305.097C109.165 305.336 109.267 305.509 109.472 305.617C109.677 305.729 110.402 305.922 111.647 306.195C112.478 306.391 113.1 306.686 113.515 307.082C113.925 307.482 114.13 307.982 114.13 308.583C114.13 309.374 113.835 310.021 113.244 310.524C112.658 311.022 111.75 311.271 110.52 311.271C109.265 311.271 108.337 311.007 107.736 310.48C107.141 309.948 106.843 309.271 106.843 308.451H108.959C109.003 308.822 109.099 309.086 109.245 309.242C109.504 309.521 109.982 309.66 110.681 309.66C111.091 309.66 111.416 309.599 111.655 309.477C111.899 309.354 112.021 309.171 112.021 308.927C112.021 308.693 111.923 308.515 111.728 308.393C111.533 308.271 110.808 308.061 109.553 307.763C108.649 307.538 108.012 307.257 107.641 306.92C107.27 306.588 107.084 306.11 107.084 305.485C107.084 304.748 107.373 304.115 107.949 303.588C108.53 303.056 109.345 302.79 110.395 302.79C111.391 302.79 112.204 302.987 112.834 303.383ZM122.517 308.656C122.463 309.13 122.216 309.611 121.777 310.099C121.093 310.875 120.136 311.264 118.906 311.264C117.89 311.264 116.994 310.937 116.218 310.282C115.441 309.628 115.053 308.563 115.053 307.089C115.053 305.707 115.402 304.647 116.101 303.91C116.804 303.173 117.714 302.804 118.833 302.804C119.497 302.804 120.095 302.929 120.627 303.178C121.159 303.427 121.599 303.82 121.945 304.357C122.258 304.831 122.46 305.38 122.553 306.005C122.607 306.371 122.629 306.898 122.619 307.587H117.155C117.185 308.388 117.436 308.949 117.91 309.271C118.198 309.472 118.544 309.572 118.95 309.572C119.379 309.572 119.729 309.45 119.997 309.206C120.144 309.074 120.273 308.891 120.385 308.656H122.517ZM120.451 306.21C120.417 305.658 120.249 305.241 119.946 304.958C119.648 304.669 119.277 304.525 118.833 304.525C118.349 304.525 117.973 304.677 117.705 304.979C117.441 305.282 117.275 305.692 117.207 306.21H120.451ZM124.333 303.881C124.885 303.178 125.832 302.826 127.175 302.826C128.049 302.826 128.825 303 129.504 303.346C130.183 303.693 130.522 304.347 130.522 305.309V308.971C130.522 309.225 130.527 309.533 130.537 309.894C130.551 310.167 130.593 310.353 130.661 310.451C130.729 310.548 130.832 310.629 130.969 310.692V311H128.698C128.635 310.839 128.591 310.688 128.566 310.546C128.542 310.404 128.522 310.243 128.508 310.062C128.22 310.375 127.888 310.641 127.512 310.861C127.062 311.12 126.555 311.249 125.988 311.249C125.266 311.249 124.667 311.044 124.194 310.634C123.725 310.219 123.491 309.633 123.491 308.876C123.491 307.895 123.869 307.184 124.626 306.745C125.041 306.505 125.651 306.334 126.457 306.232L127.167 306.144C127.553 306.095 127.829 306.034 127.995 305.961C128.293 305.834 128.442 305.636 128.442 305.368C128.442 305.041 128.327 304.816 128.098 304.694C127.873 304.567 127.541 304.503 127.102 304.503C126.608 304.503 126.259 304.625 126.054 304.87C125.908 305.05 125.81 305.294 125.761 305.602H123.747C123.791 304.904 123.986 304.33 124.333 303.881ZM125.886 309.491C126.081 309.652 126.32 309.733 126.604 309.733C127.053 309.733 127.465 309.601 127.841 309.337C128.222 309.074 128.42 308.593 128.435 307.895V307.118C128.303 307.201 128.168 307.27 128.032 307.323C127.9 307.372 127.717 307.418 127.482 307.462L127.014 307.55C126.574 307.628 126.259 307.724 126.069 307.836C125.747 308.026 125.585 308.322 125.585 308.722C125.585 309.079 125.686 309.335 125.886 309.491ZM136.396 304.943C135.556 304.943 134.992 305.216 134.704 305.763C134.543 306.071 134.462 306.544 134.462 307.184V311H132.36V303.017H134.353V304.408C134.675 303.876 134.956 303.512 135.195 303.317C135.585 302.99 136.093 302.826 136.718 302.826C136.757 302.826 136.789 302.829 136.813 302.833C136.843 302.833 136.904 302.836 136.997 302.841V304.979C136.865 304.965 136.748 304.955 136.645 304.95C136.542 304.945 136.459 304.943 136.396 304.943ZM145.134 305.88H142.995C142.956 305.583 142.856 305.314 142.695 305.075C142.46 304.752 142.097 304.591 141.604 304.591C140.9 304.591 140.419 304.94 140.161 305.639C140.024 306.01 139.956 306.503 139.956 307.118C139.956 307.704 140.024 308.175 140.161 308.532C140.41 309.196 140.878 309.528 141.567 309.528C142.055 309.528 142.402 309.396 142.607 309.132C142.812 308.869 142.937 308.527 142.98 308.107H145.112C145.063 308.742 144.833 309.342 144.423 309.909C143.769 310.822 142.8 311.278 141.516 311.278C140.231 311.278 139.287 310.897 138.681 310.136C138.076 309.374 137.773 308.385 137.773 307.169C137.773 305.797 138.107 304.73 138.776 303.969C139.445 303.207 140.368 302.826 141.545 302.826C142.546 302.826 143.364 303.051 143.999 303.5C144.638 303.949 145.017 304.743 145.134 305.88ZM153.791 306.312V311H151.66V306.144C151.66 305.714 151.586 305.368 151.44 305.104C151.25 304.733 150.888 304.547 150.356 304.547C149.804 304.547 149.384 304.733 149.096 305.104C148.813 305.47 148.671 305.995 148.671 306.679V311H146.591V300.241H148.671V304.057C148.974 303.593 149.323 303.271 149.719 303.09C150.119 302.904 150.539 302.812 150.979 302.812C151.472 302.812 151.918 302.897 152.319 303.068C152.724 303.239 153.056 303.5 153.315 303.852C153.535 304.149 153.669 304.457 153.718 304.774C153.767 305.087 153.791 305.6 153.791 306.312ZM163.92 304.459C163.92 304.157 163.818 303.886 163.613 303.646C163.413 303.402 163.134 303.28 162.778 303.28C162.221 303.28 161.738 303.61 161.328 304.269C160.922 304.923 160.72 305.575 160.72 306.225C160.72 306.703 160.825 307.069 161.035 307.323C161.245 307.572 161.508 307.697 161.826 307.697C162.485 307.697 162.998 307.313 163.364 306.547C163.735 305.775 163.92 305.08 163.92 304.459ZM162.463 311.315C160.422 311.315 158.85 310.678 157.746 309.403C156.862 308.383 156.42 307.204 156.42 305.866C156.42 304.274 156.958 302.921 158.032 301.808C159.223 300.568 160.822 299.948 162.829 299.948C164.567 299.948 165.935 300.387 166.931 301.266C167.863 302.096 168.33 303.173 168.33 304.496C168.33 305.609 167.995 306.562 167.326 307.353C166.662 308.139 165.917 308.532 165.092 308.532C164.609 308.532 164.252 308.417 164.023 308.188C163.793 307.953 163.679 307.672 163.679 307.345C163.679 307.292 163.684 307.235 163.693 307.177C163.703 307.118 163.715 307.057 163.73 306.994C163.471 307.555 163.144 307.953 162.749 308.188C162.353 308.417 161.945 308.532 161.525 308.532C160.925 308.532 160.437 308.314 160.061 307.88C159.689 307.445 159.504 306.886 159.504 306.203C159.504 305.231 159.821 304.374 160.456 303.632C161.096 302.89 161.782 302.519 162.514 302.519C163.012 302.519 163.422 302.663 163.745 302.951C164.072 303.239 164.245 303.585 164.265 303.991L164.631 302.76H165.708L164.733 305.968C164.66 306.217 164.606 306.417 164.572 306.569C164.538 306.72 164.521 306.854 164.521 306.972C164.521 307.191 164.587 307.353 164.719 307.455C164.855 307.553 165.009 307.602 165.18 307.602C165.737 307.602 166.235 307.311 166.674 306.73C167.119 306.149 167.341 305.39 167.341 304.452C167.341 303.319 166.945 302.431 166.154 301.786C165.363 301.137 164.299 300.812 162.961 300.812C161.105 300.812 159.687 301.354 158.706 302.438C157.866 303.361 157.446 304.521 157.446 305.917C157.446 307.138 157.846 308.163 158.647 308.993C159.584 309.975 160.92 310.465 162.653 310.465C163.464 310.465 164.218 310.338 164.917 310.084C165.615 309.826 166.254 309.479 166.835 309.044L167.319 309.704C166.879 310.094 166.223 310.46 165.349 310.802C164.475 311.144 163.513 311.315 162.463 311.315ZM171.442 303.573V302.562C172.395 302.47 173.059 302.316 173.435 302.101C173.811 301.881 174.091 301.366 174.277 300.556H175.317V311H173.911V303.573H171.442ZM179.638 309.403H181.169V311H179.638V309.403ZM187.49 307.287V302.533L184.128 307.287H187.49ZM187.512 311V308.437H182.912V307.147L187.717 300.482H188.83V307.287H190.375V308.437H188.83V311H187.512ZM192.163 309.403H193.693V311H192.163V309.403ZM195.524 311C195.573 310.097 195.759 309.311 196.081 308.642C196.408 307.973 197.043 307.365 197.985 306.818L199.392 306.005C200.021 305.639 200.463 305.326 200.717 305.067C201.118 304.662 201.318 304.198 201.318 303.676C201.318 303.065 201.135 302.582 200.769 302.226C200.402 301.864 199.914 301.684 199.304 301.684C198.4 301.684 197.775 302.025 197.429 302.709C197.243 303.075 197.141 303.583 197.121 304.232H195.781C195.795 303.319 195.964 302.575 196.286 301.999C196.857 300.983 197.866 300.475 199.311 300.475C200.512 300.475 201.389 300.8 201.94 301.449C202.497 302.099 202.775 302.821 202.775 303.617C202.775 304.457 202.48 305.175 201.889 305.771C201.547 306.117 200.935 306.537 200.051 307.03L199.047 307.587C198.569 307.851 198.193 308.102 197.919 308.341C197.431 308.766 197.124 309.237 196.997 309.755H202.724V311H195.524Z" fill="black"/>
<path d="M216.45 295V278H310.98C311.239 278 311.45 278.895 311.45 280V293C311.45 294.105 311.239 295 310.98 295H216.45Z" fill="#EA4335"/>
<path d="M216.45 314V297H258.236C258.354 297 258.45 297.895 258.45 299V312C258.45 313.105 258.354 314 258.236 314H216.45Z" fill="#F7BE19"/>
<path d="M216.45 333V316H263.21C263.343 316 263.45 316.895 263.45 318V331C263.45 332.105 263.343 333 263.21 333H216.45Z" fill="#4285F4"/>
<path d="M71.4565 384.214C71.2808 383.828 70.9365 383.635 70.4238 383.635C69.8281 383.635 69.4277 383.828 69.2227 384.214C69.1104 384.434 69.0542 384.761 69.0542 385.195V390H66.9375V382.031H68.9663V383.196C69.2251 382.781 69.4692 382.485 69.6987 382.31C70.104 381.997 70.6289 381.841 71.2734 381.841C71.8838 381.841 72.377 381.975 72.7529 382.244C73.0557 382.493 73.2852 382.812 73.4414 383.203C73.7148 382.734 74.0542 382.39 74.4595 382.17C74.8892 381.951 75.3677 381.841 75.895 381.841C76.2466 381.841 76.5933 381.909 76.9351 382.046C77.2769 382.183 77.5869 382.422 77.8652 382.764C78.0898 383.042 78.2412 383.384 78.3193 383.789C78.3682 384.058 78.3926 384.451 78.3926 384.968L78.3779 390H76.2393V384.917C76.2393 384.614 76.1904 384.365 76.0928 384.17C75.9072 383.799 75.5654 383.613 75.0674 383.613C74.4912 383.613 74.0933 383.853 73.8735 384.331C73.7612 384.585 73.7051 384.89 73.7051 385.247V390H71.603V385.247C71.603 384.773 71.5542 384.429 71.4565 384.214ZM84.0762 383.562C83.3682 383.562 82.8823 383.862 82.6187 384.463C82.4819 384.78 82.4136 385.186 82.4136 385.679V390H80.3335V382.031H82.3477V383.196C82.6162 382.786 82.8701 382.49 83.1094 382.31C83.5391 381.987 84.0835 381.826 84.7427 381.826C85.5679 381.826 86.2417 382.043 86.7642 382.478C87.2915 382.908 87.5552 383.623 87.5552 384.624V390H85.4165V385.144C85.4165 384.724 85.3604 384.402 85.248 384.177C85.043 383.767 84.6523 383.562 84.0762 383.562ZM96.3223 387.656C96.2686 388.13 96.022 388.611 95.5825 389.099C94.8989 389.875 93.9419 390.264 92.7114 390.264C91.6958 390.264 90.7998 389.937 90.0234 389.282C89.2471 388.628 88.8589 387.563 88.8589 386.089C88.8589 384.707 89.208 383.647 89.9062 382.91C90.6094 382.173 91.52 381.804 92.6382 381.804C93.3022 381.804 93.9004 381.929 94.4326 382.178C94.9648 382.427 95.4043 382.82 95.751 383.357C96.0635 383.831 96.2661 384.38 96.3589 385.005C96.4126 385.371 96.4346 385.898 96.4248 386.587H90.9609C90.9902 387.388 91.2417 387.949 91.7153 388.271C92.0034 388.472 92.3501 388.572 92.7554 388.572C93.1851 388.572 93.5342 388.45 93.8027 388.206C93.9492 388.074 94.0786 387.891 94.1909 387.656H96.3223ZM94.2568 385.21C94.2227 384.658 94.0542 384.241 93.7515 383.958C93.4536 383.669 93.0825 383.525 92.6382 383.525C92.1548 383.525 91.7788 383.677 91.5103 383.979C91.2466 384.282 91.0806 384.692 91.0122 385.21H94.2568ZM102.321 384.214C102.145 383.828 101.801 383.635 101.288 383.635C100.692 383.635 100.292 383.828 100.087 384.214C99.9746 384.434 99.9185 384.761 99.9185 385.195V390H97.8018V382.031H99.8306V383.196C100.089 382.781 100.333 382.485 100.563 382.31C100.968 381.997 101.493 381.841 102.138 381.841C102.748 381.841 103.241 381.975 103.617 382.244C103.92 382.493 104.149 382.812 104.306 383.203C104.579 382.734 104.918 382.39 105.324 382.17C105.753 381.951 106.232 381.841 106.759 381.841C107.111 381.841 107.458 381.909 107.799 382.046C108.141 382.183 108.451 382.422 108.729 382.764C108.954 383.042 109.105 383.384 109.184 383.789C109.232 384.058 109.257 384.451 109.257 384.968L109.242 390H107.104V384.917C107.104 384.614 107.055 384.365 106.957 384.17C106.771 383.799 106.43 383.613 105.932 383.613C105.355 383.613 104.958 383.853 104.738 384.331C104.625 384.585 104.569 384.89 104.569 385.247V390H102.467V385.247C102.467 384.773 102.418 384.429 102.321 384.214ZM117.841 383.027C118.515 383.872 118.852 384.871 118.852 386.023C118.852 387.195 118.515 388.198 117.841 389.033C117.167 389.863 116.144 390.278 114.772 390.278C113.4 390.278 112.377 389.863 111.703 389.033C111.029 388.198 110.692 387.195 110.692 386.023C110.692 384.871 111.029 383.872 111.703 383.027C112.377 382.183 113.4 381.76 114.772 381.76C116.144 381.76 117.167 382.183 117.841 383.027ZM114.765 383.525C114.154 383.525 113.683 383.743 113.351 384.177C113.024 384.607 112.86 385.222 112.86 386.023C112.86 386.824 113.024 387.441 113.351 387.876C113.683 388.311 114.154 388.528 114.765 388.528C115.375 388.528 115.844 388.311 116.171 387.876C116.498 387.441 116.662 386.824 116.662 386.023C116.662 385.222 116.498 384.607 116.171 384.177C115.844 383.743 115.375 383.525 114.765 383.525ZM124.11 383.562C123.402 383.562 122.917 383.862 122.653 384.463C122.516 384.78 122.448 385.186 122.448 385.679V390H120.368V382.031H122.382V383.196C122.65 382.786 122.904 382.49 123.144 382.31C123.573 381.987 124.118 381.826 124.777 381.826C125.602 381.826 126.276 382.043 126.798 382.478C127.326 382.908 127.589 383.623 127.589 384.624V390H125.451V385.144C125.451 384.724 125.395 384.402 125.282 384.177C125.077 383.767 124.687 383.562 124.11 383.562ZM131.669 382.017V390H129.552V382.017H131.669ZM131.669 379.138V381.064H129.552V379.138H131.669ZM139.198 382.383C139.823 382.783 140.182 383.472 140.275 384.448H138.188C138.158 384.18 138.083 383.967 137.96 383.811C137.731 383.528 137.34 383.386 136.789 383.386C136.334 383.386 136.01 383.457 135.814 383.599C135.624 383.74 135.529 383.906 135.529 384.097C135.529 384.336 135.631 384.509 135.836 384.617C136.042 384.729 136.767 384.922 138.012 385.195C138.842 385.391 139.464 385.686 139.879 386.082C140.29 386.482 140.495 386.982 140.495 387.583C140.495 388.374 140.199 389.021 139.608 389.524C139.022 390.022 138.114 390.271 136.884 390.271C135.629 390.271 134.701 390.007 134.101 389.48C133.505 388.948 133.207 388.271 133.207 387.451H135.324C135.368 387.822 135.463 388.086 135.609 388.242C135.868 388.521 136.347 388.66 137.045 388.66C137.455 388.66 137.78 388.599 138.019 388.477C138.263 388.354 138.385 388.171 138.385 387.927C138.385 387.693 138.288 387.515 138.092 387.393C137.897 387.271 137.172 387.061 135.917 386.763C135.014 386.538 134.376 386.257 134.005 385.92C133.634 385.588 133.449 385.11 133.449 384.485C133.449 383.748 133.737 383.115 134.313 382.588C134.894 382.056 135.709 381.79 136.759 381.79C137.755 381.79 138.568 381.987 139.198 382.383ZM145.702 388.513V390.073L144.713 390.11C143.727 390.144 143.053 389.973 142.692 389.597C142.458 389.358 142.34 388.989 142.34 388.491V383.577H141.227V382.09H142.34V379.863H144.406V382.09H145.702V383.577H144.406V387.795C144.406 388.123 144.447 388.328 144.53 388.411C144.613 388.489 144.867 388.528 145.292 388.528C145.355 388.528 145.421 388.528 145.49 388.528C145.563 388.523 145.634 388.518 145.702 388.513ZM155.216 383.459C155.216 383.157 155.114 382.886 154.909 382.646C154.708 382.402 154.43 382.28 154.074 382.28C153.517 382.28 153.034 382.61 152.624 383.269C152.218 383.923 152.016 384.575 152.016 385.225C152.016 385.703 152.121 386.069 152.331 386.323C152.541 386.572 152.804 386.697 153.122 386.697C153.781 386.697 154.293 386.313 154.66 385.547C155.031 384.775 155.216 384.08 155.216 383.459ZM153.759 390.315C151.718 390.315 150.146 389.678 149.042 388.403C148.158 387.383 147.716 386.204 147.716 384.866C147.716 383.274 148.253 381.921 149.328 380.808C150.519 379.568 152.118 378.948 154.125 378.948C155.863 378.948 157.23 379.387 158.227 380.266C159.159 381.096 159.625 382.173 159.625 383.496C159.625 384.609 159.291 385.562 158.622 386.353C157.958 387.139 157.213 387.532 156.388 387.532C155.905 387.532 155.548 387.417 155.319 387.188C155.089 386.953 154.975 386.672 154.975 386.345C154.975 386.292 154.979 386.235 154.989 386.177C154.999 386.118 155.011 386.057 155.026 385.994C154.767 386.555 154.44 386.953 154.044 387.188C153.649 387.417 153.241 387.532 152.821 387.532C152.221 387.532 151.732 387.314 151.356 386.88C150.985 386.445 150.8 385.886 150.8 385.203C150.8 384.231 151.117 383.374 151.752 382.632C152.392 381.89 153.078 381.519 153.81 381.519C154.308 381.519 154.718 381.663 155.041 381.951C155.368 382.239 155.541 382.585 155.561 382.991L155.927 381.76H157.003L156.029 384.968C155.956 385.217 155.902 385.417 155.868 385.569C155.834 385.72 155.817 385.854 155.817 385.972C155.817 386.191 155.883 386.353 156.015 386.455C156.151 386.553 156.305 386.602 156.476 386.602C157.033 386.602 157.531 386.311 157.97 385.73C158.415 385.149 158.637 384.39 158.637 383.452C158.637 382.319 158.241 381.431 157.45 380.786C156.659 380.137 155.595 379.812 154.257 379.812C152.401 379.812 150.983 380.354 150.001 381.438C149.162 382.361 148.742 383.521 148.742 384.917C148.742 386.138 149.142 387.163 149.943 387.993C150.88 388.975 152.216 389.465 153.949 389.465C154.76 389.465 155.514 389.338 156.212 389.084C156.911 388.826 157.55 388.479 158.131 388.044L158.615 388.704C158.175 389.094 157.519 389.46 156.645 389.802C155.771 390.144 154.809 390.315 153.759 390.315ZM165.36 379.512C166.718 379.512 167.699 380.071 168.305 381.189C168.773 382.053 169.008 383.237 169.008 384.741C169.008 386.167 168.795 387.346 168.371 388.279C167.755 389.617 166.75 390.286 165.353 390.286C164.093 390.286 163.156 389.739 162.541 388.645C162.028 387.732 161.771 386.506 161.771 384.968C161.771 383.777 161.925 382.754 162.233 381.899C162.809 380.308 163.852 379.512 165.36 379.512ZM165.346 389.084C166.029 389.084 166.574 388.782 166.979 388.176C167.384 387.571 167.587 386.443 167.587 384.792C167.587 383.601 167.44 382.622 167.147 381.855C166.854 381.084 166.286 380.698 165.441 380.698C164.665 380.698 164.096 381.064 163.734 381.797C163.378 382.524 163.2 383.599 163.2 385.02C163.2 386.089 163.314 386.948 163.544 387.598C163.896 388.589 164.496 389.084 165.346 389.084ZM170.934 388.403H172.465V390H170.934V388.403ZM177.724 390.286C176.483 390.286 175.583 389.946 175.021 389.268C174.464 388.584 174.186 387.754 174.186 386.777H175.563C175.622 387.456 175.749 387.949 175.944 388.257C176.286 388.809 176.903 389.084 177.797 389.084C178.49 389.084 179.047 388.899 179.467 388.528C179.887 388.157 180.097 387.678 180.097 387.092C180.097 386.37 179.875 385.864 179.43 385.576C178.991 385.288 178.378 385.144 177.592 385.144C177.504 385.144 177.414 385.146 177.321 385.151C177.233 385.151 177.143 385.154 177.05 385.159V383.994C177.187 384.009 177.301 384.019 177.394 384.023C177.487 384.028 177.587 384.031 177.694 384.031C178.188 384.031 178.593 383.953 178.91 383.796C179.467 383.523 179.745 383.035 179.745 382.332C179.745 381.809 179.56 381.406 179.188 381.123C178.817 380.84 178.385 380.698 177.892 380.698C177.013 380.698 176.405 380.991 176.068 381.577C175.883 381.899 175.778 382.358 175.753 382.954H174.45C174.45 382.173 174.606 381.509 174.918 380.962C175.456 379.985 176.4 379.497 177.753 379.497C178.822 379.497 179.65 379.736 180.236 380.215C180.822 380.688 181.115 381.377 181.115 382.28C181.115 382.925 180.941 383.447 180.595 383.848C180.38 384.097 180.102 384.292 179.76 384.434C180.312 384.585 180.741 384.878 181.049 385.312C181.361 385.742 181.518 386.27 181.518 386.895C181.518 387.896 181.188 388.711 180.529 389.341C179.87 389.971 178.935 390.286 177.724 390.286ZM184.169 387.466C184.208 388.193 184.489 388.696 185.011 388.975C185.28 389.121 185.583 389.194 185.919 389.194C186.549 389.194 187.086 388.933 187.531 388.411C187.975 387.883 188.29 386.816 188.476 385.21C188.183 385.674 187.819 386.001 187.384 386.191C186.955 386.377 186.491 386.47 185.993 386.47C184.982 386.47 184.181 386.155 183.59 385.525C183.004 384.895 182.711 384.084 182.711 383.093C182.711 382.141 183.002 381.304 183.583 380.581C184.164 379.858 185.021 379.497 186.154 379.497C187.682 379.497 188.737 380.186 189.318 381.562C189.64 382.319 189.801 383.267 189.801 384.404C189.801 385.688 189.608 386.826 189.223 387.817C188.583 389.468 187.499 390.293 185.971 390.293C184.945 390.293 184.167 390.024 183.634 389.487C183.102 388.95 182.836 388.276 182.836 387.466H184.169ZM186.168 385.312C186.691 385.312 187.167 385.142 187.597 384.8C188.031 384.453 188.249 383.85 188.249 382.991C188.249 382.219 188.053 381.646 187.663 381.27C187.277 380.889 186.784 380.698 186.183 380.698C185.539 380.698 185.026 380.916 184.645 381.35C184.269 381.78 184.081 382.356 184.081 383.079C184.081 383.762 184.247 384.307 184.579 384.712C184.911 385.112 185.441 385.312 186.168 385.312ZM191.808 388.403H193.339V390H191.808V388.403ZM196.554 387.327C196.642 388.079 196.991 388.599 197.602 388.887C197.914 389.033 198.275 389.106 198.686 389.106C199.467 389.106 200.045 388.857 200.421 388.359C200.797 387.861 200.985 387.31 200.985 386.704C200.985 385.972 200.761 385.405 200.312 385.005C199.867 384.604 199.333 384.404 198.708 384.404C198.253 384.404 197.863 384.492 197.536 384.668C197.213 384.844 196.938 385.088 196.708 385.4L195.565 385.334L196.364 379.688H201.813V380.962H197.353L196.906 383.877C197.15 383.691 197.382 383.552 197.602 383.459C197.992 383.298 198.444 383.218 198.957 383.218C199.918 383.218 200.734 383.528 201.403 384.148C202.072 384.768 202.406 385.554 202.406 386.506C202.406 387.498 202.099 388.372 201.483 389.128C200.873 389.885 199.896 390.264 198.554 390.264C197.699 390.264 196.942 390.024 196.283 389.546C195.629 389.062 195.263 388.323 195.185 387.327H196.554Z" fill="black"/>
<path d="M216.45 374V357H383.618C384.078 357 384.45 357.895 384.45 359V372C384.45 373.105 384.078 374 383.618 374H216.45Z" fill="#EA4335"/>
<path d="M216.45 393V376H301.016C301.256 376 301.45 376.895 301.45 378V391C301.45 392.105 301.256 393 301.016 393H216.45Z" fill="#F7BE19"/>
<path d="M216.45 412V395H388.567C389.055 395 389.45 395.895 389.45 397V410C389.45 411.105 389.055 412 388.567 412H216.45Z" fill="#4285F4"/>
<path d="M334.95 443V431" stroke="black" stroke-miterlimit="10"/>
<path d="M453.95 443V431" stroke="black" stroke-miterlimit="10"/>
<path d="M572.95 443V431" stroke="black" stroke-miterlimit="10"/>
<path d="M691.95 443V431" stroke="black" stroke-miterlimit="10"/>
</svg>
